M48
; DRILL file {KiCad 9.0.0} date 2026-01-25T01:00:18-0500
; FORMAT={-:-/ absolute / metric / decimal}
; #@! TF.CreationDate,2026-01-25T01:00:18-05:00
; #@! TF.GenerationSoftware,Kicad,Pcbnew,9.0.0
; #@! TF.FileFunction,Plated,1,4,PTH
FMAT,2
METRIC
; #@! TA.AperFunction,Plated,PTH,ComponentDrill
T1C0.800
; #@! TA.AperFunction,Plated,PTH,ViaDrill
T2C1.000
; #@! TA.AperFunction,Plated,PTH,ComponentDrill
T3C1.000
; #@! TA.AperFunction,Plated,PTH,ComponentDrill
T4C1.020
; #@! TA.AperFunction,Plated,PTH,ComponentDrill
T5C1.200
; #@! TA.AperFunction,Plated,PTH,ComponentDrill
T6C1.270
; #@! TA.AperFunction,Plated,PTH,ComponentDrill
T7C1.300
; #@! TA.AperFunction,Plated,PTH,ComponentDrill
T8C1.320
%
G90
G05
T1
X50.375Y-102.47
X52.875Y-102.47
X77.274Y-89.326
X77.274Y-92.826
X77.274Y-97.879
X77.274Y-100.379
X84.274Y-97.974
X84.274Y-100.474
X91.005Y-95.0
X93.505Y-95.0
X101.3Y-108.3
X101.3Y-111.8
X112.6Y-117.8
X115.1Y-117.8
X115.3Y-108.3
X115.3Y-110.8
X122.7Y-106.4
X122.7Y-108.9
X122.7Y-113.195
X122.7Y-115.695
X144.012Y-102.205
X146.512Y-102.205
T2
X74.5Y-109.2
X130.417Y-102.205
T3
X101.032Y-85.0
X106.032Y-85.0
X114.6Y-32.8
X114.6Y-35.34
X114.6Y-37.88
X114.6Y-40.42
X114.6Y-42.96
X114.6Y-45.5
X114.6Y-48.04
X114.6Y-50.58
X114.6Y-53.12
X114.6Y-55.66
T4
X84.22Y-33.03
X84.22Y-35.57
X84.22Y-38.11
X84.22Y-40.65
X84.22Y-43.19
X84.22Y-45.73
X84.22Y-48.27
X84.22Y-50.81
X84.22Y-53.35
X84.22Y-55.89
X84.22Y-58.43
X84.22Y-60.97
X84.22Y-63.51
X84.22Y-66.05
X84.22Y-68.59
X109.62Y-33.03
X109.62Y-35.57
X109.62Y-38.11
X109.62Y-40.65
X109.62Y-43.19
X109.62Y-45.73
X109.62Y-48.27
X109.62Y-50.81
X109.62Y-53.35
X109.62Y-55.89
X109.62Y-58.43
X109.62Y-60.97
X109.62Y-63.51
X109.62Y-66.05
X109.62Y-68.59
T5
X59.57Y-99.59
X59.57Y-102.13
X59.57Y-104.67
X137.7Y-99.66
X137.7Y-102.2
X137.7Y-104.74
T6
X79.074Y-105.274
X81.624Y-105.274
X84.174Y-105.274
X117.6Y-101.6
X120.15Y-101.6
X122.7Y-101.6
T7
X76.6Y-132.2
X81.6Y-132.2
X101.15Y-95.067
X106.15Y-95.067
X119.1Y-131.7
X124.1Y-131.7
T8
X90.763Y-117.68
X90.763Y-132.92
X93.303Y-117.68
X93.303Y-132.92
X95.843Y-117.68
X95.843Y-132.92
X98.383Y-117.68
X98.383Y-132.92
X100.923Y-117.68
X100.923Y-132.92
X103.463Y-117.68
X103.463Y-132.92
X106.003Y-117.68
X106.003Y-132.92
X108.543Y-117.68
X108.543Y-132.92
M30
