%TF.GenerationSoftware,KiCad,Pcbnew,9.0.0*%
%TF.CreationDate,2026-01-25T01:00:19-05:00*%
%TF.ProjectId,StealTheMoon,53746561-6c54-4686-954d-6f6f6e2e6b69,rev?*%
%TF.SameCoordinates,Original*%
%TF.FileFunction,Copper,L4,Bot*%
%TF.FilePolarity,Positive*%
%FSLAX46Y46*%
G04 Gerber Fmt 4.6, Leading zero omitted, Abs format (unit mm)*
G04 Created by KiCad (PCBNEW 9.0.0) date 2026-01-25 01:00:19*
%MOMM*%
%LPD*%
G01*
G04 APERTURE LIST*
G04 Aperture macros list*
%AMRoundRect*
0 Rectangle with rounded corners*
0 $1 Rounding radius*
0 $2 $3 $4 $5 $6 $7 $8 $9 X,Y pos of 4 corners*
0 Add a 4 corners polygon primitive as box body*
4,1,4,$2,$3,$4,$5,$6,$7,$8,$9,$2,$3,0*
0 Add four circle primitives for the rounded corners*
1,1,$1+$1,$2,$3*
1,1,$1+$1,$4,$5*
1,1,$1+$1,$6,$7*
1,1,$1+$1,$8,$9*
0 Add four rect primitives between the rounded corners*
20,1,$1+$1,$2,$3,$4,$5,0*
20,1,$1+$1,$4,$5,$6,$7,0*
20,1,$1+$1,$6,$7,$8,$9,0*
20,1,$1+$1,$8,$9,$2,$3,0*%
G04 Aperture macros list end*
%TA.AperFunction,ComponentPad*%
%ADD10RoundRect,0.250000X-0.750000X0.750000X-0.750000X-0.750000X0.750000X-0.750000X0.750000X0.750000X0*%
%TD*%
%TA.AperFunction,ComponentPad*%
%ADD11C,2.000000*%
%TD*%
%TA.AperFunction,ComponentPad*%
%ADD12R,1.600000X1.600000*%
%TD*%
%TA.AperFunction,ComponentPad*%
%ADD13C,1.600000*%
%TD*%
%TA.AperFunction,ComponentPad*%
%ADD14R,2.000000X2.000000*%
%TD*%
%TA.AperFunction,ComponentPad*%
%ADD15RoundRect,0.250001X-1.149999X-1.149999X1.149999X-1.149999X1.149999X1.149999X-1.149999X1.149999X0*%
%TD*%
%TA.AperFunction,ComponentPad*%
%ADD16C,2.800000*%
%TD*%
%TA.AperFunction,ComponentPad*%
%ADD17R,1.700000X1.700000*%
%TD*%
%TA.AperFunction,ComponentPad*%
%ADD18O,1.700000X1.700000*%
%TD*%
%TA.AperFunction,ComponentPad*%
%ADD19C,1.980000*%
%TD*%
%TA.AperFunction,ComponentPad*%
%ADD20R,1.910000X1.910000*%
%TD*%
%TA.AperFunction,ComponentPad*%
%ADD21C,1.910000*%
%TD*%
%TA.AperFunction,ComponentPad*%
%ADD22RoundRect,0.250001X1.149999X1.149999X-1.149999X1.149999X-1.149999X-1.149999X1.149999X-1.149999X0*%
%TD*%
%TA.AperFunction,ViaPad*%
%ADD23C,2.000000*%
%TD*%
%TA.AperFunction,Conductor*%
%ADD24C,0.200000*%
%TD*%
%TA.AperFunction,Conductor*%
%ADD25C,0.600000*%
%TD*%
%TA.AperFunction,Conductor*%
%ADD26C,2.000000*%
%TD*%
G04 APERTURE END LIST*
D10*
%TO.P,J4,1,Pin_1*%
%TO.N,/Sv2*%
X137700000Y-99660000D03*
D11*
%TO.P,J4,2,Pin_2*%
%TO.N,5V2*%
X137700000Y-102200000D03*
%TO.P,J4,3,Pin_3*%
%TO.N,GND*%
X137700000Y-104740000D03*
%TD*%
D12*
%TO.P,C8,1*%
%TO.N,5V2*%
X144012388Y-102205000D03*
D13*
%TO.P,C8,2*%
%TO.N,GND*%
X146512388Y-102205000D03*
%TD*%
D14*
%TO.P,U1,1,3V3*%
%TO.N,3.3V*%
X109620000Y-68590000D03*
D11*
%TO.P,U1,2,GND*%
%TO.N,GND*%
X109620000Y-66050000D03*
%TO.P,U1,3,D15*%
%TO.N,unconnected-(U1-D15-Pad3)*%
X109620000Y-63510000D03*
%TO.P,U1,4,D2*%
%TO.N,unconnected-(U1-D2-Pad4)*%
X109620000Y-60970000D03*
%TO.P,U1,5,D4*%
%TO.N,/Sv2*%
X109620000Y-58430000D03*
%TO.P,U1,6,RX2*%
%TO.N,unconnected-(U1-RX2-Pad6)*%
X109620000Y-55890000D03*
%TO.P,U1,7,TX2*%
%TO.N,unconnected-(U1-TX2-Pad7)*%
X109620000Y-53350000D03*
%TO.P,U1,8,D5*%
%TO.N,unconnected-(U1-D5-Pad8)*%
X109620000Y-50810000D03*
%TO.P,U1,9,D18*%
%TO.N,unconnected-(U1-D18-Pad9)*%
X109620000Y-48270000D03*
%TO.P,U1,10,D19*%
%TO.N,unconnected-(U1-D19-Pad10)*%
X109620000Y-45730000D03*
%TO.P,U1,11,D21*%
%TO.N,/SDA*%
X109620000Y-43190000D03*
%TO.P,U1,12,RX0*%
%TO.N,unconnected-(U1-RX0-Pad12)*%
X109620000Y-40650000D03*
%TO.P,U1,13,TX0*%
%TO.N,unconnected-(U1-TX0-Pad13)*%
X109620000Y-38110000D03*
%TO.P,U1,14,D22*%
%TO.N,/SCL*%
X109620000Y-35570000D03*
%TO.P,U1,15,D23*%
%TO.N,unconnected-(U1-D23-Pad15)*%
X109620000Y-33030000D03*
%TO.P,U1,30,VIN*%
%TO.N,5V1*%
X84220000Y-68590000D03*
%TO.P,U1,29,GND*%
%TO.N,GND*%
X84220000Y-66050000D03*
%TO.P,U1,28,D13*%
%TO.N,/Sv1*%
X84220000Y-63510000D03*
%TO.P,U1,27,D12*%
%TO.N,unconnected-(U1-D12-Pad27)*%
X84220000Y-60970000D03*
%TO.P,U1,26,D14*%
%TO.N,/PWMB*%
X84220000Y-58430000D03*
%TO.P,U1,25,D27*%
%TO.N,/BI2*%
X84220000Y-55890000D03*
%TO.P,U1,24,D26*%
%TO.N,/BI1*%
X84220000Y-53350000D03*
%TO.P,U1,23,D25*%
%TO.N,/AI1*%
X84220000Y-50810000D03*
%TO.P,U1,22,D33*%
%TO.N,/AI2*%
X84220000Y-48270000D03*
%TO.P,U1,21,D32*%
%TO.N,/PWMA*%
X84220000Y-45730000D03*
%TO.P,U1,20,D35*%
%TO.N,unconnected-(U1-D35-Pad20)*%
X84220000Y-43190000D03*
%TO.P,U1,19,D34*%
%TO.N,unconnected-(U1-D34-Pad19)*%
X84220000Y-40650000D03*
%TO.P,U1,18,VN*%
%TO.N,unconnected-(U1-VN-Pad18)*%
X84220000Y-38110000D03*
%TO.P,U1,17,VP*%
%TO.N,unconnected-(U1-VP-Pad17)*%
X84220000Y-35570000D03*
%TO.P,U1,16,EN*%
%TO.N,unconnected-(U1-EN-Pad16)*%
X84220000Y-33030000D03*
%TD*%
D12*
%TO.P,C6,1*%
%TO.N,5V2*%
X77273674Y-92826325D03*
D13*
%TO.P,C6,2*%
%TO.N,GND*%
X77273674Y-89326325D03*
%TD*%
D15*
%TO.P,J6,1,Pin_1*%
%TO.N,9V*%
X101150000Y-95067500D03*
D16*
%TO.P,J6,2,Pin_2*%
%TO.N,GND*%
X106150000Y-95067500D03*
%TD*%
D17*
%TO.P,J5,1,Pin_1*%
%TO.N,3.3V*%
X114600000Y-32800000D03*
D18*
%TO.P,J5,2,Pin_2*%
%TO.N,GND*%
X114600000Y-35340000D03*
%TO.P,J5,3,Pin_3*%
%TO.N,/SCL*%
X114600000Y-37880000D03*
%TO.P,J5,4,Pin_4*%
%TO.N,/SDA*%
X114600000Y-40420000D03*
%TO.P,J5,5,Pin_5*%
%TO.N,unconnected-(J5-Pin_5-Pad5)*%
X114600000Y-42960000D03*
%TO.P,J5,6,Pin_6*%
%TO.N,unconnected-(J5-Pin_6-Pad6)*%
X114600000Y-45500000D03*
%TO.P,J5,7,Pin_7*%
%TO.N,unconnected-(J5-Pin_7-Pad7)*%
X114600000Y-48040000D03*
%TO.P,J5,8,Pin_8*%
%TO.N,unconnected-(J5-Pin_8-Pad8)*%
X114600000Y-50580000D03*
%TO.P,J5,9,Pin_9*%
%TO.N,unconnected-(J5-Pin_9-Pad9)*%
X114600000Y-53120000D03*
%TO.P,J5,10,Pin_10*%
%TO.N,unconnected-(J5-Pin_10-Pad10)*%
X114600000Y-55660000D03*
%TD*%
D12*
%TO.P,C3,1*%
%TO.N,5V1*%
X122700000Y-113194888D03*
D13*
%TO.P,C3,2*%
%TO.N,GND*%
X122700000Y-115694888D03*
%TD*%
D12*
%TO.P,C12,1*%
%TO.N,9V*%
X93505113Y-95000000D03*
D13*
%TO.P,C12,2*%
%TO.N,GND*%
X91005113Y-95000000D03*
%TD*%
D12*
%TO.P,C10,1*%
%TO.N,9V*%
X101300000Y-111800000D03*
D13*
%TO.P,C10,2*%
%TO.N,GND*%
X101300000Y-108300000D03*
%TD*%
D12*
%TO.P,C7,1*%
%TO.N,5V2*%
X52875113Y-102470000D03*
D13*
%TO.P,C7,2*%
%TO.N,GND*%
X50375113Y-102470000D03*
%TD*%
D19*
%TO.P,U2,8,GND*%
%TO.N,GND*%
X90763400Y-117680000D03*
%TO.P,U2,7,B01*%
%TO.N,Net-(J2-Pin_1)*%
X93303400Y-117680000D03*
%TO.P,U2,6,B02*%
%TO.N,Net-(J2-Pin_2)*%
X95843400Y-117680000D03*
%TO.P,U2,5,A02*%
%TO.N,Net-(J1-Pin_2)*%
X98383400Y-117680000D03*
%TO.P,U2,4,A01*%
%TO.N,Net-(J1-Pin_1)*%
X100923400Y-117680000D03*
%TO.P,U2,3,GND*%
%TO.N,GND*%
X103463400Y-117680000D03*
%TO.P,U2,2,VCC*%
%TO.N,3.3V*%
X106003400Y-117680000D03*
%TO.P,U2,1,VM*%
%TO.N,9V*%
X108543400Y-117680000D03*
%TO.P,U2,16,PWMA*%
%TO.N,/PWMA*%
X108543400Y-132920000D03*
%TO.P,U2,15,AI2*%
%TO.N,/AI2*%
X106003400Y-132920000D03*
%TO.P,U2,14,AI1*%
%TO.N,/AI1*%
X103463400Y-132920000D03*
%TO.P,U2,13,STBY*%
%TO.N,3.3V*%
X100923400Y-132920000D03*
%TO.P,U2,12,BI1*%
%TO.N,/BI1*%
X98383400Y-132920000D03*
%TO.P,U2,11,BI2*%
%TO.N,/BI2*%
X95843400Y-132920000D03*
%TO.P,U2,10,PWMB*%
%TO.N,/PWMB*%
X93303400Y-132920000D03*
%TO.P,U2,9,GND*%
%TO.N,GND*%
X90763400Y-132920000D03*
%TD*%
D15*
%TO.P,J2,1,Pin_1*%
%TO.N,Net-(J2-Pin_1)*%
X76600000Y-132200000D03*
D16*
%TO.P,J2,2,Pin_2*%
%TO.N,Net-(J2-Pin_2)*%
X81600000Y-132200000D03*
%TD*%
D14*
%TO.P,C11,1*%
%TO.N,9V*%
X101032323Y-85000000D03*
D11*
%TO.P,C11,2*%
%TO.N,GND*%
X106032323Y-85000000D03*
%TD*%
D20*
%TO.P,U4,1,INPUT*%
%TO.N,9V*%
X84173674Y-105273674D03*
D21*
%TO.P,U4,2,GROUND*%
%TO.N,GND*%
X81623674Y-105273674D03*
%TO.P,U4,3,OUTPUT*%
%TO.N,5V2*%
X79073674Y-105273674D03*
%TD*%
D12*
%TO.P,C4,1*%
%TO.N,9V*%
X84273674Y-100473674D03*
D13*
%TO.P,C4,2*%
%TO.N,GND*%
X84273674Y-97973674D03*
%TD*%
D12*
%TO.P,C9,1*%
%TO.N,9V*%
X112600000Y-117800000D03*
D13*
%TO.P,C9,2*%
%TO.N,GND*%
X115100000Y-117800000D03*
%TD*%
D12*
%TO.P,C5,1*%
%TO.N,5V2*%
X77273674Y-100378786D03*
D13*
%TO.P,C5,2*%
%TO.N,GND*%
X77273674Y-97878786D03*
%TD*%
D12*
%TO.P,C1,1*%
%TO.N,9V*%
X115300000Y-108300000D03*
D13*
%TO.P,C1,2*%
%TO.N,GND*%
X115300000Y-110800000D03*
%TD*%
D10*
%TO.P,J3,1,Pin_1*%
%TO.N,/Sv1*%
X59570000Y-99590000D03*
D11*
%TO.P,J3,2,Pin_2*%
%TO.N,5V2*%
X59570000Y-102130000D03*
%TO.P,J3,3,Pin_3*%
%TO.N,GND*%
X59570000Y-104670000D03*
%TD*%
D22*
%TO.P,J1,1,Pin_1*%
%TO.N,Net-(J1-Pin_1)*%
X124100000Y-131700000D03*
D16*
%TO.P,J1,2,Pin_2*%
%TO.N,Net-(J1-Pin_2)*%
X119100000Y-131700000D03*
%TD*%
D12*
%TO.P,C2,1*%
%TO.N,5V1*%
X122700000Y-106400000D03*
D13*
%TO.P,C2,2*%
%TO.N,GND*%
X122700000Y-108900000D03*
%TD*%
D20*
%TO.P,U3,1,INPUT*%
%TO.N,9V*%
X117600000Y-101600000D03*
D21*
%TO.P,U3,2,GROUND*%
%TO.N,GND*%
X120150000Y-101600000D03*
%TO.P,U3,3,OUTPUT*%
%TO.N,5V1*%
X122700000Y-101600000D03*
%TD*%
D23*
%TO.N,5V2*%
X130417500Y-102205000D03*
X74500000Y-109200000D03*
%TD*%
D24*
%TO.N,GND*%
X113800000Y-36600000D02*
X115400000Y-36600000D01*
X113300000Y-36100000D02*
X113800000Y-36600000D01*
D25*
%TO.N,3.3V*%
X106003400Y-117680000D02*
X106003400Y-119403400D01*
X106003400Y-119403400D02*
X108600000Y-122000000D01*
X108600000Y-122000000D02*
X144500000Y-122000000D01*
X144500000Y-122000000D02*
X144700000Y-121800000D01*
X144700000Y-121800000D02*
X149200000Y-117300000D01*
X144700000Y-121800000D02*
X126300000Y-140200000D01*
X113400000Y-135900000D02*
X113400000Y-131100000D01*
X102700000Y-129700000D02*
X100923400Y-131476600D01*
X126300000Y-140200000D02*
X117700000Y-140200000D01*
X117700000Y-140200000D02*
X113400000Y-135900000D01*
X113400000Y-131100000D02*
X112000000Y-129700000D01*
X100923400Y-131476600D02*
X100923400Y-132920000D01*
X112000000Y-129700000D02*
X102700000Y-129700000D01*
X117900000Y-62900000D02*
X125800000Y-62900000D01*
X125800000Y-62900000D02*
X149200000Y-86300000D01*
X149200000Y-86300000D02*
X149200000Y-117300000D01*
X117900000Y-34400000D02*
X117900000Y-62900000D01*
%TO.N,/Sv2*%
X137700000Y-82000000D02*
X127600000Y-71900000D01*
X127600000Y-71900000D02*
X106300000Y-71900000D01*
X104600000Y-61300000D02*
X107470000Y-58430000D01*
X106300000Y-71900000D02*
X104600000Y-70200000D01*
X104600000Y-70200000D02*
X104600000Y-61300000D01*
X137700000Y-99660000D02*
X137700000Y-82000000D01*
X107470000Y-58430000D02*
X109620000Y-58430000D01*
%TO.N,3.3V*%
X117900000Y-63100000D02*
X112400000Y-68600000D01*
X117900000Y-62900000D02*
X117900000Y-63100000D01*
X114600000Y-32800000D02*
X116300000Y-32800000D01*
X112390000Y-68590000D02*
X109620000Y-68590000D01*
X116300000Y-32800000D02*
X117900000Y-34400000D01*
X112400000Y-68600000D02*
X112390000Y-68590000D01*
%TO.N,5V2*%
X137700000Y-102200000D02*
X144007388Y-102200000D01*
X144007388Y-102200000D02*
X144012388Y-102205000D01*
X130417500Y-102205000D02*
X130422500Y-102200000D01*
X130422500Y-102200000D02*
X137700000Y-102200000D01*
X143872388Y-102065000D02*
X144012388Y-102205000D01*
D24*
%TO.N,/SDA*%
X109620000Y-43190000D02*
X111610000Y-43190000D01*
X111610000Y-43190000D02*
X114380000Y-40420000D01*
X114380000Y-40420000D02*
X114600000Y-40420000D01*
%TO.N,/SCL*%
X109620000Y-35570000D02*
X111770000Y-35570000D01*
X111770000Y-35570000D02*
X114080000Y-37880000D01*
X114080000Y-37880000D02*
X114600000Y-37880000D01*
D25*
%TO.N,5V1*%
X84220000Y-68590000D02*
X91102500Y-68590000D01*
X91102500Y-68590000D02*
X96712500Y-74200000D01*
X96712500Y-74200000D02*
X124100000Y-74200000D01*
X124800000Y-101600000D02*
X122700000Y-101600000D01*
X124100000Y-74200000D02*
X128600000Y-78700000D01*
X128600000Y-78700000D02*
X128600000Y-97800000D01*
X128600000Y-97800000D02*
X124800000Y-101600000D01*
D24*
%TO.N,/Sv1*%
X59570000Y-99590000D02*
X59570000Y-83330000D01*
X79390000Y-63510000D02*
X84220000Y-63510000D01*
X59570000Y-83330000D02*
X79390000Y-63510000D01*
%TO.N,/PWMA*%
X108543400Y-132920000D02*
X108543400Y-136356600D01*
X83990000Y-45500000D02*
X84220000Y-45730000D01*
X108543400Y-136356600D02*
X98600000Y-146300000D01*
X39800000Y-116900000D02*
X39800000Y-76400000D01*
X39800000Y-76400000D02*
X70700000Y-45500000D01*
X70700000Y-45500000D02*
X83990000Y-45500000D01*
X98600000Y-146300000D02*
X69200000Y-146300000D01*
X69200000Y-146300000D02*
X39800000Y-116900000D01*
%TO.N,/AI2*%
X83650000Y-47700000D02*
X71800000Y-47700000D01*
X71800000Y-47700000D02*
X41300000Y-78200000D01*
X84220000Y-48270000D02*
X83650000Y-47700000D01*
X97300000Y-144500000D02*
X106003400Y-135796600D01*
X41300000Y-116400000D02*
X69400000Y-144500000D01*
X41300000Y-78200000D02*
X41300000Y-116400000D01*
X69400000Y-144500000D02*
X97300000Y-144500000D01*
X106003400Y-135796600D02*
X106003400Y-132920000D01*
%TO.N,/AI1*%
X103463400Y-135636600D02*
X96300000Y-142800000D01*
X96300000Y-142800000D02*
X70100000Y-142800000D01*
X70100000Y-142800000D02*
X42800000Y-115500000D01*
X42800000Y-115500000D02*
X42800000Y-80100000D01*
X103463400Y-132920000D02*
X103463400Y-135636600D01*
X42800000Y-80100000D02*
X72500000Y-50400000D01*
X72500000Y-50400000D02*
X83810000Y-50400000D01*
X83810000Y-50400000D02*
X84220000Y-50810000D01*
%TO.N,/BI1*%
X98383400Y-132920000D02*
X98383400Y-134816600D01*
X98383400Y-134816600D02*
X91900000Y-141300000D01*
X70800000Y-141300000D02*
X44500000Y-115000000D01*
X44500000Y-115000000D02*
X44500000Y-81424757D01*
X91900000Y-141300000D02*
X70800000Y-141300000D01*
X44500000Y-81424757D02*
X72824757Y-53100000D01*
X72824757Y-53100000D02*
X83970000Y-53100000D01*
X83970000Y-53100000D02*
X84220000Y-53350000D01*
%TO.N,/BI2*%
X95843400Y-132920000D02*
X95843400Y-134956600D01*
X83930000Y-55600000D02*
X84220000Y-55890000D01*
X91000000Y-139800000D02*
X71900000Y-139800000D01*
X95843400Y-134956600D02*
X91000000Y-139800000D01*
X71900000Y-139800000D02*
X46100000Y-114000000D01*
X46100000Y-114000000D02*
X46100000Y-82600000D01*
X46100000Y-82600000D02*
X73100000Y-55600000D01*
X73100000Y-55600000D02*
X83930000Y-55600000D01*
%TO.N,/PWMB*%
X93303400Y-132920000D02*
X93303400Y-134996600D01*
X93303400Y-134996600D02*
X89900000Y-138400000D01*
X89900000Y-138400000D02*
X72900000Y-138400000D01*
X72900000Y-138400000D02*
X47700000Y-113200000D01*
X47700000Y-113200000D02*
X47700000Y-83600000D01*
X47700000Y-83600000D02*
X73100000Y-58200000D01*
X73100000Y-58200000D02*
X83990000Y-58200000D01*
X83990000Y-58200000D02*
X84220000Y-58430000D01*
D26*
%TO.N,9V*%
X84173674Y-105273674D02*
X91026326Y-105273674D01*
X101150000Y-95067500D02*
X93572613Y-95067500D01*
X112600000Y-117800000D02*
X108663400Y-117800000D01*
X104100000Y-111800000D02*
X108543400Y-116243400D01*
X101150000Y-85117677D02*
X101032323Y-85000000D01*
X106800000Y-102800000D02*
X116400000Y-102800000D01*
X101300000Y-111800000D02*
X104100000Y-111800000D01*
X101150000Y-95067500D02*
X101150000Y-100850000D01*
X101150000Y-95150000D02*
X101150000Y-95067500D01*
X108543400Y-116243400D02*
X108543400Y-117680000D01*
X101150000Y-95067500D02*
X101150000Y-97150000D01*
X91026326Y-105273674D02*
X101150000Y-95150000D01*
X93572613Y-95067500D02*
X93505113Y-95000000D01*
X84273674Y-105173674D02*
X84173674Y-105273674D01*
X108663400Y-117800000D02*
X108543400Y-117680000D01*
X101150000Y-100850000D02*
X108543400Y-108243400D01*
X117600000Y-106000000D02*
X115300000Y-108300000D01*
X116400000Y-102800000D02*
X117600000Y-101600000D01*
X117600000Y-101600000D02*
X117600000Y-106000000D01*
X108543400Y-108243400D02*
X108543400Y-117680000D01*
X84273674Y-100473674D02*
X84273674Y-105173674D01*
X101150000Y-95067500D02*
X101150000Y-85117677D01*
X101150000Y-97150000D02*
X106800000Y-102800000D01*
D25*
%TO.N,5V1*%
X127300000Y-111300000D02*
X125405112Y-113194888D01*
X125405112Y-113194888D02*
X122700000Y-113194888D01*
X127300000Y-106200000D02*
X127300000Y-111300000D01*
X122700000Y-101600000D02*
X123300000Y-101600000D01*
X122700000Y-101600000D02*
X122700000Y-106400000D01*
X122700000Y-101600000D02*
X127300000Y-106200000D01*
%TO.N,5V2*%
X79073674Y-102178786D02*
X77273674Y-100378786D01*
X80873674Y-100473674D02*
X80873674Y-95973674D01*
X67473674Y-105273674D02*
X64100000Y-101900000D01*
X79073674Y-105273674D02*
X67473674Y-105273674D01*
X64100000Y-101900000D02*
X63870000Y-102130000D01*
X77726325Y-92826325D02*
X77273674Y-92826325D01*
X79073674Y-105273674D02*
X78426326Y-105273674D01*
X79073674Y-102273674D02*
X80873674Y-100473674D01*
X63870000Y-102130000D02*
X59570000Y-102130000D01*
X78426326Y-105273674D02*
X74500000Y-109200000D01*
X80873674Y-95973674D02*
X77726325Y-92826325D01*
X59230000Y-102470000D02*
X59570000Y-102130000D01*
X79073674Y-105273674D02*
X79073674Y-102178786D01*
X79073674Y-105273674D02*
X79073674Y-102273674D01*
X52875113Y-102470000D02*
X59230000Y-102470000D01*
%TO.N,Net-(J1-Pin_2)*%
X98383400Y-120483400D02*
X105100000Y-127200000D01*
X105100000Y-127200000D02*
X114600000Y-127200000D01*
X114600000Y-127200000D02*
X119100000Y-131700000D01*
X98383400Y-117680000D02*
X98383400Y-120483400D01*
%TO.N,Net-(J1-Pin_1)*%
X100923400Y-117680000D02*
X100923400Y-119223400D01*
X117700000Y-124500000D02*
X124100000Y-130900000D01*
X124100000Y-130900000D02*
X124100000Y-131700000D01*
X100923400Y-119223400D02*
X106200000Y-124500000D01*
X106200000Y-124500000D02*
X117700000Y-124500000D01*
%TO.N,Net-(J2-Pin_1)*%
X89883400Y-121100000D02*
X87400000Y-121100000D01*
X87400000Y-121100000D02*
X76600000Y-131900000D01*
X93303400Y-117680000D02*
X89883400Y-121100000D01*
X76600000Y-131900000D02*
X76600000Y-132200000D01*
%TO.N,Net-(J2-Pin_2)*%
X81600000Y-131923400D02*
X81600000Y-132200000D01*
X95843400Y-117680000D02*
X81600000Y-131923400D01*
%TD*%
%TA.AperFunction,Conductor*%
%TO.N,GND*%
G36*
X107737665Y-26670113D02*
G01*
X109004494Y-26889930D01*
X109007455Y-26890481D01*
X110557104Y-27198725D01*
X110560014Y-27199341D01*
X112035756Y-27530730D01*
X112101649Y-27545527D01*
X112104609Y-27546230D01*
X113637243Y-27930134D01*
X113640184Y-27930909D01*
X114400769Y-28141392D01*
X115162889Y-28352299D01*
X115165805Y-28353144D01*
X116677822Y-28811809D01*
X116680607Y-28812691D01*
X118181029Y-29308363D01*
X118183747Y-29309299D01*
X119671440Y-29841604D01*
X119674175Y-29842620D01*
X121148370Y-30411280D01*
X121151152Y-30412393D01*
X121690248Y-30635694D01*
X122610884Y-31017034D01*
X122613681Y-31018233D01*
X123295688Y-31320546D01*
X123909104Y-31592455D01*
X124058093Y-31658497D01*
X124060848Y-31659758D01*
X124779172Y-31999500D01*
X125489156Y-32335297D01*
X125491885Y-32336629D01*
X126903208Y-33047029D01*
X126905847Y-33048399D01*
X128299310Y-33793221D01*
X128301875Y-33794632D01*
X129273390Y-34344989D01*
X129676655Y-34573436D01*
X129679285Y-34574969D01*
X129982288Y-34756582D01*
X130538562Y-35090000D01*
X131034451Y-35387224D01*
X131037029Y-35388812D01*
X132371949Y-36234140D01*
X132374430Y-36235755D01*
X133688165Y-37113564D01*
X133690631Y-37115255D01*
X134982439Y-38025049D01*
X134984869Y-38026806D01*
X136253963Y-38968031D01*
X136256343Y-38969842D01*
X136724267Y-39335013D01*
X137501934Y-39941910D01*
X137504310Y-39943812D01*
X138225500Y-40535677D01*
X138716236Y-40938414D01*
X138725640Y-40946131D01*
X138727953Y-40948077D01*
X139924357Y-41980103D01*
X139926587Y-41982075D01*
X140855855Y-42824314D01*
X141097283Y-43043132D01*
X141099513Y-43045203D01*
X142243833Y-44134686D01*
X142246011Y-44136812D01*
X143363187Y-45253988D01*
X143365313Y-45256166D01*
X144454796Y-46400486D01*
X144456867Y-46402716D01*
X144685568Y-46655048D01*
X145436493Y-47483567D01*
X145517902Y-47573387D01*
X145519901Y-47575647D01*
X146421946Y-48621368D01*
X146551909Y-48772031D01*
X146553868Y-48774359D01*
X147556187Y-49995689D01*
X147558089Y-49998065D01*
X148530141Y-51243635D01*
X148531977Y-51246049D01*
X149150479Y-52080000D01*
X149473180Y-52515112D01*
X149474960Y-52517575D01*
X150144393Y-53468097D01*
X150384729Y-53809347D01*
X150386447Y-53811851D01*
X151260176Y-55119481D01*
X151264221Y-55125534D01*
X151265871Y-55128070D01*
X151525856Y-55538631D01*
X152111179Y-56462957D01*
X152112775Y-56465548D01*
X152925030Y-57820714D01*
X152926563Y-57823344D01*
X153337128Y-58548092D01*
X153528653Y-58886181D01*
X153705339Y-59198074D01*
X153706794Y-59200718D01*
X154040738Y-59825483D01*
X154451584Y-60594121D01*
X154452986Y-60596822D01*
X155163367Y-62008108D01*
X155164702Y-62010843D01*
X155840235Y-63439139D01*
X155841502Y-63441906D01*
X156481766Y-64886318D01*
X156482965Y-64889115D01*
X157087597Y-66348825D01*
X157088727Y-66351651D01*
X157129790Y-66458102D01*
X157655234Y-67820264D01*
X157657357Y-67825766D01*
X157658412Y-67828605D01*
X157805122Y-68238632D01*
X158190684Y-69316207D01*
X158191652Y-69319017D01*
X158687292Y-70819342D01*
X158688197Y-70822199D01*
X159146853Y-72334187D01*
X159147700Y-72337110D01*
X159569089Y-73859813D01*
X159569865Y-73862756D01*
X159953769Y-75395390D01*
X159954472Y-75398350D01*
X160300651Y-76939952D01*
X160301281Y-76942930D01*
X160609515Y-78492529D01*
X160610072Y-78495521D01*
X160880183Y-80052204D01*
X160880667Y-80055208D01*
X161112505Y-81618131D01*
X161112914Y-81621147D01*
X161306314Y-83189191D01*
X161306650Y-83192216D01*
X161461516Y-84764605D01*
X161461777Y-84767637D01*
X161578005Y-86343310D01*
X161578192Y-86346348D01*
X161655719Y-87924433D01*
X161655831Y-87927474D01*
X161694606Y-89506984D01*
X161694643Y-89510027D01*
X161694643Y-91089972D01*
X161694606Y-91093015D01*
X161655831Y-92672525D01*
X161655719Y-92675566D01*
X161578192Y-94253651D01*
X161578005Y-94256689D01*
X161461777Y-95832362D01*
X161461516Y-95835394D01*
X161306650Y-97407783D01*
X161306314Y-97410808D01*
X161112914Y-98978852D01*
X161112505Y-98981868D01*
X160880667Y-100544791D01*
X160880183Y-100547795D01*
X160610072Y-102104478D01*
X160609515Y-102107470D01*
X160301281Y-103657069D01*
X160300651Y-103660047D01*
X159954472Y-105201649D01*
X159953769Y-105204609D01*
X159569865Y-106737243D01*
X159569089Y-106740186D01*
X159147700Y-108262889D01*
X159146853Y-108265812D01*
X158688197Y-109777800D01*
X158687284Y-109780680D01*
X158191660Y-111280958D01*
X158190684Y-111283792D01*
X157658417Y-112771380D01*
X157657357Y-112774233D01*
X157088727Y-114248348D01*
X157087597Y-114251174D01*
X156482965Y-115710884D01*
X156481766Y-115713681D01*
X155841502Y-117158093D01*
X155840235Y-117160860D01*
X155164702Y-118589156D01*
X155163367Y-118591891D01*
X154452986Y-120003177D01*
X154451584Y-120005878D01*
X153706806Y-121399259D01*
X153705339Y-121401925D01*
X152926563Y-122776655D01*
X152925030Y-122779285D01*
X152112775Y-124134451D01*
X152111179Y-124137042D01*
X151265881Y-125471914D01*
X151264221Y-125474465D01*
X150386450Y-126788143D01*
X150384729Y-126790652D01*
X149474963Y-128082420D01*
X149473180Y-128084887D01*
X148531984Y-129353942D01*
X148530141Y-129356364D01*
X147558089Y-130601934D01*
X147556187Y-130604310D01*
X146553868Y-131825640D01*
X146551909Y-131827968D01*
X145519918Y-133024332D01*
X145517902Y-133026612D01*
X144456867Y-134197283D01*
X144454796Y-134199513D01*
X143365313Y-135343833D01*
X143363187Y-135346011D01*
X142246011Y-136463187D01*
X142243833Y-136465313D01*
X141099513Y-137554796D01*
X141097283Y-137556867D01*
X139926612Y-138617902D01*
X139924332Y-138619918D01*
X138727968Y-139651909D01*
X138725640Y-139653868D01*
X137504310Y-140656187D01*
X137501934Y-140658089D01*
X136256364Y-141630141D01*
X136253942Y-141631984D01*
X134984887Y-142573180D01*
X134982420Y-142574963D01*
X133690652Y-143484729D01*
X133688143Y-143486450D01*
X132374465Y-144364221D01*
X132371914Y-144365881D01*
X131037042Y-145211179D01*
X131034451Y-145212775D01*
X129679285Y-146025030D01*
X129676655Y-146026563D01*
X128301925Y-146805339D01*
X128299259Y-146806806D01*
X126905878Y-147551584D01*
X126903177Y-147552986D01*
X125491891Y-148263367D01*
X125489156Y-148264702D01*
X124060860Y-148940235D01*
X124058093Y-148941502D01*
X122613681Y-149581766D01*
X122610884Y-149582965D01*
X121151174Y-150187597D01*
X121148348Y-150188727D01*
X119674233Y-150757357D01*
X119671380Y-150758417D01*
X118183792Y-151290684D01*
X118180958Y-151291660D01*
X116680680Y-151787284D01*
X116677800Y-151788197D01*
X115165812Y-152246853D01*
X115162889Y-152247700D01*
X113640186Y-152669089D01*
X113637243Y-152669865D01*
X112104609Y-153053769D01*
X112101649Y-153054472D01*
X110560047Y-153400651D01*
X110557069Y-153401281D01*
X109007470Y-153709515D01*
X109004478Y-153710072D01*
X107447795Y-153980183D01*
X107444791Y-153980667D01*
X105881868Y-154212505D01*
X105878852Y-154212914D01*
X104310808Y-154406314D01*
X104307783Y-154406650D01*
X102735394Y-154561516D01*
X102732362Y-154561777D01*
X101156689Y-154678005D01*
X101153651Y-154678192D01*
X99575566Y-154755719D01*
X99572525Y-154755831D01*
X97993015Y-154794606D01*
X97989972Y-154794643D01*
X96410028Y-154794643D01*
X96406985Y-154794606D01*
X94827474Y-154755831D01*
X94824433Y-154755719D01*
X93246348Y-154678192D01*
X93243310Y-154678005D01*
X91667637Y-154561777D01*
X91664605Y-154561516D01*
X90092216Y-154406650D01*
X90089191Y-154406314D01*
X88521147Y-154212914D01*
X88518131Y-154212505D01*
X86955208Y-153980667D01*
X86952204Y-153980183D01*
X85395521Y-153710072D01*
X85392529Y-153709515D01*
X83842930Y-153401281D01*
X83839952Y-153400651D01*
X82298350Y-153054472D01*
X82295390Y-153053769D01*
X80762756Y-152669865D01*
X80759813Y-152669089D01*
X79237110Y-152247700D01*
X79234187Y-152246853D01*
X77722199Y-151788197D01*
X77719342Y-151787292D01*
X76219017Y-151291652D01*
X76216207Y-151290684D01*
X75745303Y-151122192D01*
X74728605Y-150758412D01*
X74725779Y-150757362D01*
X74138388Y-150530780D01*
X73251651Y-150188727D01*
X73248825Y-150187597D01*
X71789115Y-149582965D01*
X71786318Y-149581766D01*
X70341906Y-148941502D01*
X70339139Y-148940235D01*
X68910843Y-148264702D01*
X68908108Y-148263367D01*
X67496822Y-147552986D01*
X67494121Y-147551584D01*
X66276031Y-146900501D01*
X66100718Y-146806794D01*
X66098096Y-146805351D01*
X65591771Y-146518521D01*
X64723344Y-146026563D01*
X64720714Y-146025030D01*
X63365548Y-145212775D01*
X63362957Y-145211179D01*
X62028085Y-144365881D01*
X62025534Y-144364221D01*
X61330029Y-143899500D01*
X60711851Y-143486447D01*
X60709347Y-143484729D01*
X60589752Y-143400501D01*
X59417575Y-142574960D01*
X59415112Y-142573180D01*
X58508109Y-141900500D01*
X58146049Y-141631977D01*
X58143635Y-141630141D01*
X56898065Y-140658089D01*
X56895689Y-140656187D01*
X55674359Y-139653868D01*
X55672031Y-139651909D01*
X55337315Y-139363181D01*
X54475647Y-138619901D01*
X54473407Y-138617920D01*
X53302716Y-137556867D01*
X53300486Y-137554796D01*
X52156166Y-136465313D01*
X52153988Y-136463187D01*
X51036812Y-135346011D01*
X51034686Y-135343833D01*
X50990212Y-135297121D01*
X50418377Y-134696503D01*
X49945203Y-134199513D01*
X49943132Y-134197283D01*
X49665531Y-133890998D01*
X48882075Y-133026587D01*
X48880103Y-133024357D01*
X47848077Y-131827953D01*
X47846131Y-131825640D01*
X47811836Y-131783852D01*
X47368061Y-131243110D01*
X46843812Y-130604310D01*
X46841910Y-130601934D01*
X45869858Y-129356364D01*
X45868015Y-129353942D01*
X45663520Y-129078213D01*
X44926806Y-128084869D01*
X44925036Y-128082420D01*
X44892920Y-128036819D01*
X44015255Y-126790631D01*
X44013549Y-126788143D01*
X43135755Y-125474430D01*
X43134140Y-125471949D01*
X42288812Y-124137029D01*
X42287224Y-124134451D01*
X42026524Y-123699500D01*
X41875340Y-123447264D01*
X41474969Y-122779285D01*
X41473436Y-122776655D01*
X41047279Y-122024383D01*
X40694632Y-121401875D01*
X40693221Y-121399310D01*
X39948399Y-120005847D01*
X39947029Y-120003208D01*
X39236629Y-118591885D01*
X39235297Y-118589156D01*
X39228026Y-118573783D01*
X38559758Y-117160848D01*
X38558497Y-117158093D01*
X38546835Y-117131785D01*
X38169183Y-116279815D01*
X37918233Y-115713681D01*
X37917034Y-115710884D01*
X37466539Y-114623293D01*
X37312393Y-114251152D01*
X37311272Y-114248348D01*
X37304883Y-114231785D01*
X36742620Y-112774175D01*
X36741604Y-112771440D01*
X36209299Y-111283747D01*
X36208363Y-111281029D01*
X35712691Y-109780607D01*
X35711802Y-109777800D01*
X35707480Y-109763553D01*
X35253144Y-108265805D01*
X35252299Y-108262889D01*
X35240056Y-108218650D01*
X34830909Y-106740184D01*
X34830134Y-106737243D01*
X34813909Y-106672471D01*
X34547551Y-105609105D01*
X34446230Y-105204609D01*
X34445527Y-105201649D01*
X34420735Y-105091247D01*
X34099341Y-103660014D01*
X34098718Y-103657069D01*
X34093433Y-103630500D01*
X33790481Y-102107455D01*
X33789927Y-102104478D01*
X33519810Y-100547759D01*
X33519332Y-100544791D01*
X33518253Y-100537516D01*
X33287488Y-98981825D01*
X33287091Y-98978897D01*
X33093677Y-97410740D01*
X33093356Y-97407850D01*
X32938477Y-95835335D01*
X32938227Y-95832421D01*
X32821993Y-94256688D01*
X32821807Y-94253651D01*
X32809820Y-94009643D01*
X32744278Y-92675515D01*
X32744169Y-92672576D01*
X32705394Y-91093015D01*
X32705357Y-91089972D01*
X32705357Y-89510027D01*
X32705394Y-89506984D01*
X32736328Y-88246849D01*
X32744169Y-87927420D01*
X32744277Y-87924487D01*
X32821807Y-86346342D01*
X32821994Y-86343310D01*
X32830894Y-86222658D01*
X32938227Y-84767571D01*
X32938477Y-84764671D01*
X33093357Y-83192140D01*
X33093676Y-83189268D01*
X33287092Y-81621091D01*
X33287486Y-81618184D01*
X33519339Y-80055160D01*
X33519808Y-80052253D01*
X33789932Y-78495491D01*
X33790484Y-78492529D01*
X34098728Y-76942879D01*
X34099337Y-76940002D01*
X34445530Y-75398334D01*
X34446230Y-75395390D01*
X34493744Y-75205703D01*
X34830139Y-73862734D01*
X34830910Y-73859813D01*
X34901450Y-73604915D01*
X35252307Y-72337080D01*
X35253146Y-72334187D01*
X35573472Y-71278213D01*
X35711816Y-70822153D01*
X35712683Y-70819415D01*
X36208371Y-69318946D01*
X36209290Y-69316278D01*
X36741613Y-67828532D01*
X36742610Y-67825850D01*
X37311291Y-66351601D01*
X37312381Y-66348875D01*
X37917034Y-64889112D01*
X37918233Y-64886318D01*
X37983439Y-64739216D01*
X38558517Y-63441861D01*
X38559744Y-63439182D01*
X39235315Y-62010805D01*
X39236613Y-62008146D01*
X39947046Y-60596758D01*
X39948381Y-60594186D01*
X40693239Y-59200654D01*
X40694613Y-59198158D01*
X41473448Y-57823321D01*
X41474969Y-57820714D01*
X41534970Y-57720609D01*
X42287254Y-56465498D01*
X42288789Y-56463006D01*
X43134164Y-55128013D01*
X43135730Y-55125606D01*
X44013590Y-53811795D01*
X44015229Y-53809405D01*
X44925077Y-52517521D01*
X44926778Y-52515168D01*
X45868060Y-51245997D01*
X45869812Y-51243695D01*
X46841922Y-49998049D01*
X46843812Y-49995689D01*
X47846178Y-48774303D01*
X47848043Y-48772086D01*
X48880138Y-47575601D01*
X48882038Y-47573452D01*
X49943163Y-46402681D01*
X49945172Y-46400518D01*
X51034726Y-45256124D01*
X51036771Y-45254029D01*
X52154029Y-44136771D01*
X52156124Y-44134726D01*
X53300518Y-43045172D01*
X53302681Y-43043163D01*
X54473452Y-41982038D01*
X54475601Y-41980138D01*
X55672086Y-40948043D01*
X55674303Y-40946178D01*
X56895705Y-39943799D01*
X56898065Y-39941910D01*
X56949737Y-39901585D01*
X58143695Y-38969812D01*
X58145997Y-38968060D01*
X59415168Y-38026778D01*
X59417521Y-38025077D01*
X60709405Y-37115229D01*
X60711795Y-37113590D01*
X62025606Y-36235730D01*
X62028013Y-36234164D01*
X63363006Y-35388789D01*
X63365498Y-35387254D01*
X64720737Y-34574955D01*
X64723321Y-34573448D01*
X66098158Y-33794613D01*
X66100654Y-33793239D01*
X67494186Y-33048381D01*
X67496758Y-33047046D01*
X68908146Y-32336613D01*
X68910805Y-32335315D01*
X70339182Y-31659744D01*
X70341861Y-31658517D01*
X71786320Y-31018232D01*
X71789115Y-31017034D01*
X73248875Y-30412381D01*
X73251601Y-30411291D01*
X74725850Y-29842610D01*
X74728532Y-29841613D01*
X76216278Y-29309290D01*
X76218946Y-29308371D01*
X77719415Y-28812683D01*
X77722153Y-28811816D01*
X79234215Y-28353137D01*
X79237080Y-28352307D01*
X80759835Y-27930904D01*
X80762734Y-27930139D01*
X82295406Y-27546225D01*
X82298334Y-27545530D01*
X83840002Y-27199337D01*
X83842879Y-27198728D01*
X85392558Y-26890478D01*
X85395491Y-26889932D01*
X86147302Y-26759480D01*
X86216718Y-26767413D01*
X86270827Y-26811617D01*
X86292448Y-26878058D01*
X86292500Y-26881654D01*
X86292500Y-28447616D01*
X86272815Y-28514655D01*
X86220011Y-28560410D01*
X86150853Y-28570354D01*
X86087297Y-28541329D01*
X86070125Y-28523103D01*
X86008918Y-28443338D01*
X86008911Y-28443330D01*
X85846670Y-28281089D01*
X85846661Y-28281081D01*
X85664617Y-28141392D01*
X85465890Y-28026657D01*
X85465876Y-28026650D01*
X85253887Y-27938842D01*
X85224284Y-27930910D01*
X85032238Y-27879452D01*
X84994215Y-27874446D01*
X84804741Y-27849500D01*
X84804734Y-27849500D01*
X84575266Y-27849500D01*
X84575258Y-27849500D01*
X84358715Y-27878009D01*
X84347762Y-27879452D01*
X84254076Y-27904554D01*
X84126112Y-27938842D01*
X83914123Y-28026650D01*
X83914109Y-28026657D01*
X83715382Y-28141392D01*
X83533338Y-28281081D01*
X83371081Y-28443338D01*
X83231392Y-28625382D01*
X83116657Y-28824109D01*
X83116650Y-28824123D01*
X83028842Y-29036112D01*
X82969453Y-29257759D01*
X82969451Y-29257770D01*
X82939500Y-29485258D01*
X82939500Y-29714741D01*
X82964446Y-29904215D01*
X82969452Y-29942238D01*
X83028842Y-30163887D01*
X83116650Y-30375876D01*
X83116657Y-30375890D01*
X83231392Y-30574617D01*
X83371081Y-30756661D01*
X83371089Y-30756670D01*
X83533330Y-30918911D01*
X83533338Y-30918918D01*
X83715382Y-31058607D01*
X83715385Y-31058608D01*
X83715388Y-31058611D01*
X83914112Y-31173344D01*
X83914117Y-31173346D01*
X83914123Y-31173349D01*
X84005480Y-31211190D01*
X84126113Y-31261158D01*
X84217802Y-31285725D01*
X84277462Y-31322090D01*
X84307991Y-31384937D01*
X84299696Y-31454312D01*
X84255211Y-31508190D01*
X84188659Y-31529465D01*
X84185708Y-31529500D01*
X84101903Y-31529500D01*
X83868631Y-31566446D01*
X83644003Y-31639433D01*
X83433566Y-31746657D01*
X83324550Y-31825862D01*
X83242490Y-31885483D01*
X83242488Y-31885485D01*
X83242487Y-31885485D01*
X83075485Y-32052487D01*
X83075485Y-32052488D01*
X83075483Y-32052490D01*
X83047793Y-32090602D01*
X82936657Y-32243566D01*
X82829433Y-32454003D01*
X82756446Y-32678631D01*
X82719500Y-32911902D01*
X82719500Y-33148097D01*
X82756446Y-33381368D01*
X82829433Y-33605996D01*
X82925563Y-33794660D01*
X82936657Y-33816433D01*
X83075483Y-34007510D01*
X83242490Y-34174517D01*
X83277127Y-34199683D01*
X83319792Y-34255013D01*
X83325771Y-34324626D01*
X83293165Y-34386421D01*
X83277130Y-34400315D01*
X83259365Y-34413222D01*
X83242488Y-34425484D01*
X83075485Y-34592487D01*
X83075485Y-34592488D01*
X83075483Y-34592490D01*
X83046456Y-34632442D01*
X82936657Y-34783566D01*
X82829433Y-34994003D01*
X82756446Y-35218631D01*
X82719500Y-35451902D01*
X82719500Y-35688097D01*
X82756446Y-35921368D01*
X82829433Y-36145996D01*
X82936657Y-36356433D01*
X83075483Y-36547510D01*
X83242490Y-36714517D01*
X83277127Y-36739683D01*
X83319792Y-36795013D01*
X83325771Y-36864626D01*
X83293165Y-36926421D01*
X83277130Y-36940315D01*
X83259365Y-36953222D01*
X83242488Y-36965484D01*
X83075485Y-37132487D01*
X83075485Y-37132488D01*
X83075483Y-37132490D01*
X83046647Y-37172179D01*
X82936657Y-37323566D01*
X82829433Y-37534003D01*
X82756446Y-37758631D01*
X82719500Y-37991902D01*
X82719500Y-38228097D01*
X82756446Y-38461368D01*
X82829433Y-38685996D01*
X82936657Y-38896433D01*
X83075483Y-39087510D01*
X83242490Y-39254517D01*
X83277127Y-39279683D01*
X83319792Y-39335013D01*
X83325771Y-39404626D01*
X83293165Y-39466421D01*
X83277130Y-39480315D01*
X83259365Y-39493222D01*
X83242488Y-39505484D01*
X83075485Y-39672487D01*
X83075485Y-39672488D01*
X83075483Y-39672490D01*
X83046647Y-39712179D01*
X82936657Y-39863566D01*
X82829433Y-40074003D01*
X82756446Y-40298631D01*
X82719500Y-40531902D01*
X82719500Y-40768097D01*
X82756446Y-41001368D01*
X82829433Y-41225996D01*
X82936657Y-41436433D01*
X83075483Y-41627510D01*
X83242490Y-41794517D01*
X83277127Y-41819683D01*
X83319792Y-41875013D01*
X83325771Y-41944626D01*
X83293165Y-42006421D01*
X83277130Y-42020315D01*
X83259365Y-42033222D01*
X83242488Y-42045484D01*
X83075485Y-42212487D01*
X83075485Y-42212488D01*
X83075483Y-42212490D01*
X83046647Y-42252179D01*
X82936657Y-42403566D01*
X82829433Y-42614003D01*
X82756446Y-42838631D01*
X82719500Y-43071902D01*
X82719500Y-43308097D01*
X82756446Y-43541368D01*
X82829433Y-43765996D01*
X82936657Y-43976433D01*
X83075483Y-44167510D01*
X83242490Y-44334517D01*
X83277127Y-44359683D01*
X83319792Y-44415013D01*
X83325771Y-44484626D01*
X83293165Y-44546421D01*
X83277130Y-44560315D01*
X83259365Y-44573222D01*
X83242488Y-44585484D01*
X83075485Y-44752487D01*
X83075480Y-44752493D01*
X83005811Y-44848385D01*
X82950481Y-44891051D01*
X82905493Y-44899500D01*
X70779057Y-44899500D01*
X70620943Y-44899500D01*
X70468215Y-44940423D01*
X70468214Y-44940423D01*
X70468212Y-44940424D01*
X70468209Y-44940425D01*
X70418096Y-44969359D01*
X70418095Y-44969360D01*
X70374689Y-44994420D01*
X70331285Y-45019479D01*
X70331282Y-45019481D01*
X39319481Y-76031282D01*
X39319479Y-76031285D01*
X39269361Y-76118094D01*
X39269359Y-76118096D01*
X39240425Y-76168209D01*
X39240424Y-76168210D01*
X39240423Y-76168215D01*
X39199499Y-76320943D01*
X39199499Y-76320945D01*
X39199499Y-76489046D01*
X39199500Y-76489059D01*
X39199500Y-116813330D01*
X39199499Y-116813348D01*
X39199499Y-116979054D01*
X39199498Y-116979054D01*
X39234058Y-117108034D01*
X39240423Y-117131785D01*
X39256424Y-117159498D01*
X39262319Y-117169709D01*
X39262321Y-117169712D01*
X39319479Y-117268714D01*
X39319481Y-117268717D01*
X39438349Y-117387585D01*
X39438354Y-117387589D01*
X68831284Y-146780520D01*
X68831286Y-146780521D01*
X68831290Y-146780524D01*
X68968209Y-146859573D01*
X68968216Y-146859577D01*
X69120943Y-146900501D01*
X69120945Y-146900501D01*
X69286654Y-146900501D01*
X69286670Y-146900500D01*
X98513331Y-146900500D01*
X98513347Y-146900501D01*
X98520943Y-146900501D01*
X98679054Y-146900501D01*
X98679057Y-146900501D01*
X98831785Y-146859577D01*
X98881904Y-146830639D01*
X98968716Y-146780520D01*
X99080520Y-146668716D01*
X99080520Y-146668714D01*
X99090728Y-146658507D01*
X99090730Y-146658504D01*
X108901906Y-136847328D01*
X108901911Y-136847324D01*
X108912114Y-136837120D01*
X108912116Y-136837120D01*
X109023920Y-136725316D01*
X109027507Y-136719102D01*
X109090846Y-136609397D01*
X109090847Y-136609395D01*
X109095769Y-136600868D01*
X109102977Y-136588385D01*
X109143900Y-136435657D01*
X109143900Y-136277543D01*
X109143900Y-134362844D01*
X109163585Y-134295805D01*
X109211606Y-134252359D01*
X109324592Y-134194790D01*
X109514396Y-134056890D01*
X109680290Y-133890996D01*
X109818190Y-133701192D01*
X109924701Y-133492153D01*
X109997199Y-133269026D01*
X110033900Y-133037305D01*
X110033900Y-132802695D01*
X109997199Y-132570974D01*
X109924701Y-132347847D01*
X109818190Y-132138808D01*
X109800571Y-132114558D01*
X109680295Y-131949010D01*
X109680291Y-131949005D01*
X109514394Y-131783108D01*
X109514389Y-131783104D01*
X109324595Y-131645212D01*
X109324594Y-131645211D01*
X109324592Y-131645210D01*
X109187663Y-131575441D01*
X109115550Y-131538697D01*
X108892427Y-131466201D01*
X108776565Y-131447850D01*
X108660705Y-131429500D01*
X108426095Y-131429500D01*
X108348854Y-131441733D01*
X108194372Y-131466201D01*
X107971249Y-131538697D01*
X107762204Y-131645212D01*
X107572410Y-131783104D01*
X107572405Y-131783108D01*
X107406508Y-131949005D01*
X107406504Y-131949010D01*
X107373718Y-131994137D01*
X107318388Y-132036803D01*
X107248775Y-132042782D01*
X107186980Y-132010176D01*
X107173082Y-131994137D01*
X107140295Y-131949010D01*
X107140291Y-131949005D01*
X106974394Y-131783108D01*
X106974389Y-131783104D01*
X106784595Y-131645212D01*
X106784594Y-131645211D01*
X106784592Y-131645210D01*
X106647663Y-131575441D01*
X106575550Y-131538697D01*
X106352427Y-131466201D01*
X106236565Y-131447850D01*
X106120705Y-131429500D01*
X105886095Y-131429500D01*
X105808854Y-131441733D01*
X105654372Y-131466201D01*
X105431249Y-131538697D01*
X105222204Y-131645212D01*
X105032410Y-131783104D01*
X105032405Y-131783108D01*
X104866508Y-131949005D01*
X104866504Y-131949010D01*
X104833718Y-131994137D01*
X104778388Y-132036803D01*
X104708775Y-132042782D01*
X104646980Y-132010176D01*
X104633082Y-131994137D01*
X104600295Y-131949010D01*
X104600291Y-131949005D01*
X104434394Y-131783108D01*
X104434389Y-131783104D01*
X104244595Y-131645212D01*
X104244594Y-131645211D01*
X104244592Y-131645210D01*
X104107663Y-131575441D01*
X104035550Y-131538697D01*
X103812427Y-131466201D01*
X103696565Y-131447850D01*
X103580705Y-131429500D01*
X103346095Y-131429500D01*
X103268854Y-131441733D01*
X103114372Y-131466201D01*
X102891249Y-131538697D01*
X102682204Y-131645212D01*
X102492410Y-131783104D01*
X102492405Y-131783108D01*
X102326508Y-131949005D01*
X102326504Y-131949010D01*
X102293718Y-131994137D01*
X102238388Y-132036803D01*
X102168775Y-132042782D01*
X102106980Y-132010176D01*
X102093082Y-131994137D01*
X102060295Y-131949010D01*
X102060291Y-131949005D01*
X101909362Y-131798076D01*
X101875877Y-131736753D01*
X101880861Y-131667061D01*
X101909360Y-131622717D01*
X102995259Y-130536819D01*
X103056582Y-130503334D01*
X103082940Y-130500500D01*
X111617060Y-130500500D01*
X111684099Y-130520185D01*
X111704741Y-130536819D01*
X112563181Y-131395259D01*
X112596666Y-131456582D01*
X112599500Y-131482940D01*
X112599500Y-135978846D01*
X112630261Y-136133489D01*
X112630264Y-136133501D01*
X112690602Y-136279172D01*
X112690609Y-136279185D01*
X112778210Y-136410288D01*
X112778213Y-136410292D01*
X117073870Y-140705947D01*
X117073891Y-140705970D01*
X117189707Y-140821786D01*
X117189711Y-140821789D01*
X117320814Y-140909390D01*
X117320827Y-140909397D01*
X117466498Y-140969735D01*
X117466503Y-140969737D01*
X117466507Y-140969737D01*
X117466508Y-140969738D01*
X117621154Y-141000500D01*
X117621157Y-141000500D01*
X126378844Y-141000500D01*
X126378845Y-141000499D01*
X126533497Y-140969737D01*
X126679179Y-140909394D01*
X126810289Y-140821789D01*
X145321789Y-122310289D01*
X149821789Y-117810289D01*
X149909394Y-117679179D01*
X149969737Y-117533497D01*
X150000500Y-117378842D01*
X150000500Y-117221158D01*
X150000500Y-86221158D01*
X149977889Y-86107483D01*
X149969737Y-86066502D01*
X149932875Y-85977510D01*
X149909394Y-85920821D01*
X149909393Y-85920819D01*
X149909392Y-85920817D01*
X149821790Y-85789712D01*
X149818241Y-85786163D01*
X149710289Y-85678211D01*
X138742367Y-74710289D01*
X126310292Y-62278213D01*
X126310288Y-62278210D01*
X126179185Y-62190609D01*
X126179172Y-62190602D01*
X126033501Y-62130264D01*
X126033489Y-62130261D01*
X125878845Y-62099500D01*
X125878842Y-62099500D01*
X118824500Y-62099500D01*
X118757461Y-62079815D01*
X118711706Y-62027011D01*
X118700500Y-61975500D01*
X118700500Y-34321157D01*
X118700499Y-34321153D01*
X118699993Y-34318610D01*
X118669738Y-34166503D01*
X118609394Y-34020821D01*
X118609392Y-34020818D01*
X118609390Y-34020814D01*
X118521789Y-33889711D01*
X118521786Y-33889707D01*
X116810292Y-32178213D01*
X116810288Y-32178210D01*
X116679185Y-32090609D01*
X116679172Y-32090602D01*
X116533501Y-32030264D01*
X116533489Y-32030261D01*
X116378845Y-31999500D01*
X116378842Y-31999500D01*
X116072351Y-31999500D01*
X116005312Y-31979815D01*
X115959557Y-31927011D01*
X115949061Y-31888752D01*
X115944091Y-31842516D01*
X115893797Y-31707671D01*
X115893793Y-31707664D01*
X115807547Y-31592455D01*
X115807544Y-31592452D01*
X115692335Y-31506206D01*
X115692328Y-31506202D01*
X115557482Y-31455908D01*
X115557483Y-31455908D01*
X115497883Y-31449501D01*
X115497881Y-31449500D01*
X115497873Y-31449500D01*
X115497864Y-31449500D01*
X113702129Y-31449500D01*
X113702123Y-31449501D01*
X113642516Y-31455908D01*
X113507671Y-31506202D01*
X113507664Y-31506206D01*
X113392455Y-31592452D01*
X113392452Y-31592455D01*
X113306206Y-31707664D01*
X113306202Y-31707671D01*
X113255908Y-31842517D01*
X113249501Y-31902116D01*
X113249500Y-31902135D01*
X113249500Y-33697870D01*
X113249501Y-33697876D01*
X113255908Y-33757483D01*
X113306202Y-33892328D01*
X113306206Y-33892335D01*
X113392452Y-34007544D01*
X113392455Y-34007547D01*
X113507664Y-34093793D01*
X113507671Y-34093797D01*
X113507674Y-34093798D01*
X113639598Y-34143002D01*
X113695531Y-34184873D01*
X113719949Y-34250337D01*
X113705098Y-34318610D01*
X113683947Y-34346865D01*
X113570271Y-34460541D01*
X113445379Y-34632442D01*
X113348904Y-34821782D01*
X113283242Y-35023870D01*
X113283242Y-35023873D01*
X113272769Y-35090000D01*
X114166988Y-35090000D01*
X114134075Y-35147007D01*
X114100000Y-35274174D01*
X114100000Y-35405826D01*
X114134075Y-35532993D01*
X114166988Y-35590000D01*
X113272769Y-35590000D01*
X113283242Y-35656126D01*
X113283242Y-35656129D01*
X113348904Y-35858217D01*
X113445378Y-36047555D01*
X113445437Y-36047637D01*
X113445450Y-36047675D01*
X113447923Y-36051710D01*
X113447075Y-36052229D01*
X113468915Y-36113444D01*
X113453088Y-36181498D01*
X113402981Y-36230191D01*
X113334503Y-36244065D01*
X113269394Y-36218714D01*
X113257436Y-36208201D01*
X112257590Y-35208355D01*
X112257588Y-35208352D01*
X112138717Y-35089481D01*
X112138709Y-35089475D01*
X112021472Y-35021789D01*
X112021472Y-35021788D01*
X112021469Y-35021788D01*
X112001785Y-35010423D01*
X111849057Y-34969499D01*
X111690943Y-34969499D01*
X111683347Y-34969499D01*
X111683331Y-34969500D01*
X111074068Y-34969500D01*
X111007029Y-34949815D01*
X110963583Y-34901795D01*
X110932097Y-34840000D01*
X110903343Y-34783567D01*
X110764517Y-34592490D01*
X110597510Y-34425483D01*
X110562872Y-34400317D01*
X110520207Y-34344989D01*
X110514228Y-34275375D01*
X110546833Y-34213580D01*
X110562873Y-34199682D01*
X110597510Y-34174517D01*
X110764517Y-34007510D01*
X110903343Y-33816433D01*
X111010568Y-33605992D01*
X111083553Y-33381368D01*
X111120500Y-33148097D01*
X111120500Y-32911902D01*
X111083553Y-32678631D01*
X111010566Y-32454003D01*
X110903342Y-32243566D01*
X110855860Y-32178213D01*
X110764517Y-32052490D01*
X110597510Y-31885483D01*
X110406433Y-31746657D01*
X110329915Y-31707669D01*
X110195996Y-31639433D01*
X109971368Y-31566446D01*
X109738097Y-31529500D01*
X109738092Y-31529500D01*
X109704292Y-31529500D01*
X109637253Y-31509815D01*
X109591498Y-31457011D01*
X109581554Y-31387853D01*
X109610579Y-31324297D01*
X109669357Y-31286523D01*
X109672164Y-31285734D01*
X109763887Y-31261158D01*
X109975888Y-31173344D01*
X110174612Y-31058611D01*
X110356661Y-30918919D01*
X110356665Y-30918914D01*
X110356670Y-30918911D01*
X110518911Y-30756670D01*
X110518914Y-30756665D01*
X110518919Y-30756661D01*
X110658611Y-30574612D01*
X110773344Y-30375888D01*
X110861158Y-30163887D01*
X110920548Y-29942238D01*
X110950500Y-29714734D01*
X110950500Y-29485266D01*
X110920548Y-29257762D01*
X110861158Y-29036113D01*
X110773344Y-28824112D01*
X110658611Y-28625388D01*
X110658608Y-28625385D01*
X110658607Y-28625382D01*
X110518918Y-28443338D01*
X110518911Y-28443330D01*
X110356670Y-28281089D01*
X110356661Y-28281081D01*
X110174617Y-28141392D01*
X109975890Y-28026657D01*
X109975876Y-28026650D01*
X109763887Y-27938842D01*
X109734284Y-27930910D01*
X109542238Y-27879452D01*
X109504215Y-27874446D01*
X109314741Y-27849500D01*
X109314734Y-27849500D01*
X109085266Y-27849500D01*
X109085258Y-27849500D01*
X108868715Y-27878009D01*
X108857762Y-27879452D01*
X108764076Y-27904554D01*
X108636112Y-27938842D01*
X108424123Y-28026650D01*
X108424109Y-28026657D01*
X108225382Y-28141392D01*
X108043338Y-28281081D01*
X107881081Y-28443338D01*
X107814875Y-28529619D01*
X107758447Y-28570822D01*
X107688701Y-28574976D01*
X107627781Y-28540763D01*
X107595028Y-28479045D01*
X107592500Y-28454132D01*
X107592500Y-26792293D01*
X107612185Y-26725254D01*
X107664989Y-26679499D01*
X107734147Y-26669555D01*
X107737665Y-26670113D01*
G37*
%TD.AperFunction*%
%TA.AperFunction,Conductor*%
G36*
X82739611Y-58820185D02*
G01*
X82785366Y-58872989D01*
X82790503Y-58886181D01*
X82829433Y-59005996D01*
X82927303Y-59198074D01*
X82936657Y-59216433D01*
X83075483Y-59407510D01*
X83242490Y-59574517D01*
X83277127Y-59599683D01*
X83319792Y-59655013D01*
X83325771Y-59724626D01*
X83293165Y-59786421D01*
X83277130Y-59800315D01*
X83259365Y-59813222D01*
X83242488Y-59825484D01*
X83075485Y-59992487D01*
X83075485Y-59992488D01*
X83075483Y-59992490D01*
X83015862Y-60074550D01*
X82936657Y-60183566D01*
X82829433Y-60394003D01*
X82756446Y-60618631D01*
X82719500Y-60851902D01*
X82719500Y-61088097D01*
X82756446Y-61321368D01*
X82829433Y-61545996D01*
X82865052Y-61615901D01*
X82936657Y-61756433D01*
X83075483Y-61947510D01*
X83242490Y-62114517D01*
X83277127Y-62139683D01*
X83319792Y-62195013D01*
X83325771Y-62264626D01*
X83293165Y-62326421D01*
X83277130Y-62340315D01*
X83259365Y-62353222D01*
X83242488Y-62365484D01*
X83075485Y-62532487D01*
X83075485Y-62532488D01*
X83075483Y-62532490D01*
X83015862Y-62614550D01*
X82936657Y-62723566D01*
X82876417Y-62841795D01*
X82828442Y-62892591D01*
X82765932Y-62909500D01*
X79476670Y-62909500D01*
X79476654Y-62909499D01*
X79469058Y-62909499D01*
X79310943Y-62909499D01*
X79158215Y-62950423D01*
X79108992Y-62978842D01*
X79108991Y-62978842D01*
X79021290Y-63029475D01*
X79021282Y-63029481D01*
X59089481Y-82961282D01*
X59089479Y-82961285D01*
X59039361Y-83048094D01*
X59039359Y-83048096D01*
X59010425Y-83098209D01*
X59010424Y-83098210D01*
X59004725Y-83119480D01*
X58969499Y-83250943D01*
X58969499Y-83250945D01*
X58969499Y-83419046D01*
X58969500Y-83419059D01*
X58969500Y-97965500D01*
X58949815Y-98032539D01*
X58897011Y-98078294D01*
X58845502Y-98089500D01*
X58769999Y-98089500D01*
X58769980Y-98089501D01*
X58667203Y-98100000D01*
X58667200Y-98100001D01*
X58500668Y-98155185D01*
X58500663Y-98155187D01*
X58351342Y-98247289D01*
X58227289Y-98371342D01*
X58135187Y-98520663D01*
X58135186Y-98520666D01*
X58080001Y-98687203D01*
X58080001Y-98687204D01*
X58080000Y-98687204D01*
X58069500Y-98789983D01*
X58069500Y-100390001D01*
X58069501Y-100390018D01*
X58080000Y-100492796D01*
X58080001Y-100492799D01*
X58114573Y-100597128D01*
X58135186Y-100659334D01*
X58227288Y-100808656D01*
X58351344Y-100932712D01*
X58358311Y-100937009D01*
X58399656Y-100962511D01*
X58446381Y-101014459D01*
X58457604Y-101083421D01*
X58429760Y-101147504D01*
X58428615Y-101148759D01*
X58428647Y-101148786D01*
X58425485Y-101152487D01*
X58425483Y-101152490D01*
X58371925Y-101226206D01*
X58286657Y-101343566D01*
X58179434Y-101554002D01*
X58179432Y-101554007D01*
X58179432Y-101554008D01*
X58169744Y-101583821D01*
X58130307Y-101641495D01*
X58065948Y-101668692D01*
X58051815Y-101669500D01*
X54292090Y-101669500D01*
X54225051Y-101649815D01*
X54179296Y-101597011D01*
X54171846Y-101569865D01*
X54170989Y-101570068D01*
X54169205Y-101562520D01*
X54118910Y-101427671D01*
X54118906Y-101427664D01*
X54032660Y-101312455D01*
X54032657Y-101312452D01*
X53917448Y-101226206D01*
X53917441Y-101226202D01*
X53782595Y-101175908D01*
X53782596Y-101175908D01*
X53722996Y-101169501D01*
X53722994Y-101169500D01*
X53722986Y-101169500D01*
X53722977Y-101169500D01*
X52027242Y-101169500D01*
X52027236Y-101169501D01*
X51967629Y-101175908D01*
X51832784Y-101226202D01*
X51832777Y-101226206D01*
X51717568Y-101312452D01*
X51717565Y-101312455D01*
X51631319Y-101427664D01*
X51631315Y-101427671D01*
X51581021Y-101562517D01*
X51574614Y-101622116D01*
X51574435Y-101625452D01*
X51572854Y-101625367D01*
X51554928Y-101686419D01*
X51502124Y-101732174D01*
X51458839Y-101739824D01*
X50775113Y-102423551D01*
X50775113Y-102417339D01*
X50747854Y-102315606D01*
X50695193Y-102224394D01*
X50620719Y-102149920D01*
X50529507Y-102097259D01*
X50427774Y-102070000D01*
X50421559Y-102070000D01*
X51101035Y-101390524D01*
X51101034Y-101390523D01*
X51056472Y-101358147D01*
X51056463Y-101358141D01*
X50874144Y-101265244D01*
X50679530Y-101202009D01*
X50477430Y-101170000D01*
X50272796Y-101170000D01*
X50070695Y-101202009D01*
X49876081Y-101265244D01*
X49693757Y-101358143D01*
X49649190Y-101390523D01*
X49649190Y-101390524D01*
X50328667Y-102070000D01*
X50322452Y-102070000D01*
X50220719Y-102097259D01*
X50129507Y-102149920D01*
X50055033Y-102224394D01*
X50002372Y-102315606D01*
X49975113Y-102417339D01*
X49975113Y-102423553D01*
X49295637Y-101744077D01*
X49295636Y-101744077D01*
X49263256Y-101788644D01*
X49170357Y-101970968D01*
X49107122Y-102165582D01*
X49075113Y-102367682D01*
X49075113Y-102572317D01*
X49107122Y-102774417D01*
X49170357Y-102969031D01*
X49263254Y-103151350D01*
X49263260Y-103151359D01*
X49295636Y-103195921D01*
X49295637Y-103195922D01*
X49975113Y-102516446D01*
X49975113Y-102522661D01*
X50002372Y-102624394D01*
X50055033Y-102715606D01*
X50129507Y-102790080D01*
X50220719Y-102842741D01*
X50322452Y-102870000D01*
X50328666Y-102870000D01*
X49649189Y-103549474D01*
X49693763Y-103581859D01*
X49876081Y-103674755D01*
X50070695Y-103737990D01*
X50272796Y-103770000D01*
X50477430Y-103770000D01*
X50679530Y-103737990D01*
X50874144Y-103674755D01*
X51056462Y-103581859D01*
X51101034Y-103549474D01*
X50421560Y-102870000D01*
X50427774Y-102870000D01*
X50529507Y-102842741D01*
X50620719Y-102790080D01*
X50695193Y-102715606D01*
X50747854Y-102624394D01*
X50775113Y-102522661D01*
X50775113Y-102516448D01*
X51459596Y-103200931D01*
X51509260Y-103211364D01*
X51559018Y-103260415D01*
X51573113Y-103314634D01*
X51574212Y-103314576D01*
X51574259Y-103314571D01*
X51574259Y-103314573D01*
X51574437Y-103314564D01*
X51574614Y-103317876D01*
X51581021Y-103377483D01*
X51631315Y-103512328D01*
X51631319Y-103512335D01*
X51717565Y-103627544D01*
X51717568Y-103627547D01*
X51832777Y-103713793D01*
X51832784Y-103713797D01*
X51967630Y-103764091D01*
X51967629Y-103764091D01*
X51974557Y-103764835D01*
X52027240Y-103770500D01*
X53722985Y-103770499D01*
X53782596Y-103764091D01*
X53917444Y-103713796D01*
X54032659Y-103627546D01*
X54118909Y-103512331D01*
X54169204Y-103377483D01*
X54169204Y-103377481D01*
X54170987Y-103369938D01*
X54173259Y-103370474D01*
X54195542Y-103316688D01*
X54252936Y-103276843D01*
X54292089Y-103270500D01*
X58546671Y-103270500D01*
X58567091Y-103276496D01*
X58588339Y-103277711D01*
X58609811Y-103289040D01*
X58613710Y-103290185D01*
X58619555Y-103294181D01*
X58651715Y-103317547D01*
X58694380Y-103372874D01*
X58702448Y-103427593D01*
X58700893Y-103447340D01*
X59358941Y-104105387D01*
X59338409Y-104110889D01*
X59201592Y-104189881D01*
X59089881Y-104301592D01*
X59010889Y-104438409D01*
X59005387Y-104458941D01*
X58347340Y-103800894D01*
X58287084Y-103883830D01*
X58179897Y-104094197D01*
X58106934Y-104318752D01*
X58070000Y-104551947D01*
X58070000Y-104788052D01*
X58106934Y-105021247D01*
X58179897Y-105245802D01*
X58287087Y-105456174D01*
X58347338Y-105539104D01*
X58347340Y-105539105D01*
X59005387Y-104881058D01*
X59010889Y-104901591D01*
X59089881Y-105038408D01*
X59201592Y-105150119D01*
X59338409Y-105229111D01*
X59358940Y-105234612D01*
X58700893Y-105892658D01*
X58783828Y-105952914D01*
X58994197Y-106060102D01*
X59218752Y-106133065D01*
X59218751Y-106133065D01*
X59451948Y-106170000D01*
X59688052Y-106170000D01*
X59921247Y-106133065D01*
X60145802Y-106060102D01*
X60356163Y-105952918D01*
X60356169Y-105952914D01*
X60439104Y-105892658D01*
X60439105Y-105892658D01*
X59781058Y-105234612D01*
X59801591Y-105229111D01*
X59938408Y-105150119D01*
X60050119Y-105038408D01*
X60129111Y-104901591D01*
X60134612Y-104881058D01*
X60792658Y-105539105D01*
X60792658Y-105539104D01*
X60852914Y-105456169D01*
X60852918Y-105456163D01*
X60960102Y-105245802D01*
X61033065Y-105021247D01*
X61070000Y-104788052D01*
X61070000Y-104551947D01*
X61033065Y-104318752D01*
X60960102Y-104094197D01*
X60852914Y-103883828D01*
X60792658Y-103800894D01*
X60792658Y-103800893D01*
X60134612Y-104458940D01*
X60129111Y-104438409D01*
X60050119Y-104301592D01*
X59938408Y-104189881D01*
X59801591Y-104110889D01*
X59781059Y-104105387D01*
X60439105Y-103447340D01*
X60437551Y-103427594D01*
X60451915Y-103359216D01*
X60488284Y-103317547D01*
X60489231Y-103316859D01*
X60547510Y-103274517D01*
X60714517Y-103107510D01*
X60805986Y-102981613D01*
X60861316Y-102938949D01*
X60906304Y-102930500D01*
X63947060Y-102930500D01*
X64014099Y-102950185D01*
X64034741Y-102966819D01*
X66963381Y-105895460D01*
X66963385Y-105895463D01*
X67094488Y-105983064D01*
X67094492Y-105983066D01*
X67094495Y-105983068D01*
X67240177Y-106043412D01*
X67394827Y-106074173D01*
X67394831Y-106074174D01*
X67394832Y-106074174D01*
X76194386Y-106074174D01*
X76261425Y-106093859D01*
X76307180Y-106146663D01*
X76317124Y-106215821D01*
X76288099Y-106279377D01*
X76282067Y-106285855D01*
X74878869Y-107689051D01*
X74817546Y-107722536D01*
X74771790Y-107723843D01*
X74618097Y-107699500D01*
X74618092Y-107699500D01*
X74381908Y-107699500D01*
X74381903Y-107699500D01*
X74148631Y-107736446D01*
X73924003Y-107809433D01*
X73713566Y-107916657D01*
X73669557Y-107948632D01*
X73522490Y-108055483D01*
X73522488Y-108055485D01*
X73522487Y-108055485D01*
X73355485Y-108222487D01*
X73355485Y-108222488D01*
X73355483Y-108222490D01*
X73324008Y-108265812D01*
X73216657Y-108413566D01*
X73109433Y-108624003D01*
X73036446Y-108848631D01*
X72999500Y-109081902D01*
X72999500Y-109318097D01*
X73036446Y-109551368D01*
X73109433Y-109775996D01*
X73213111Y-109979474D01*
X73216657Y-109986433D01*
X73355483Y-110177510D01*
X73522490Y-110344517D01*
X73713567Y-110483343D01*
X73812991Y-110534002D01*
X73924003Y-110590566D01*
X73924005Y-110590566D01*
X73924008Y-110590568D01*
X74044412Y-110629689D01*
X74148631Y-110663553D01*
X74381903Y-110700500D01*
X74381908Y-110700500D01*
X74618097Y-110700500D01*
X74851368Y-110663553D01*
X75075992Y-110590568D01*
X75286433Y-110483343D01*
X75477510Y-110344517D01*
X75644517Y-110177510D01*
X75783343Y-109986433D01*
X75890568Y-109775992D01*
X75963553Y-109551368D01*
X76000500Y-109318092D01*
X76000500Y-109081908D01*
X75976155Y-108928205D01*
X75985109Y-108858915D01*
X76010944Y-108821132D01*
X76634394Y-108197682D01*
X100000000Y-108197682D01*
X100000000Y-108402317D01*
X100032009Y-108604417D01*
X100095244Y-108799031D01*
X100188141Y-108981350D01*
X100188147Y-108981359D01*
X100220523Y-109025921D01*
X100220524Y-109025922D01*
X100900000Y-108346446D01*
X100900000Y-108352661D01*
X100927259Y-108454394D01*
X100979920Y-108545606D01*
X101054394Y-108620080D01*
X101145606Y-108672741D01*
X101247339Y-108700000D01*
X101253553Y-108700000D01*
X100574076Y-109379474D01*
X100618650Y-109411859D01*
X100800968Y-109504755D01*
X100995582Y-109567990D01*
X101197683Y-109600000D01*
X101402317Y-109600000D01*
X101604417Y-109567990D01*
X101799031Y-109504755D01*
X101981349Y-109411859D01*
X102025921Y-109379474D01*
X101346447Y-108700000D01*
X101352661Y-108700000D01*
X101454394Y-108672741D01*
X101545606Y-108620080D01*
X101620080Y-108545606D01*
X101672741Y-108454394D01*
X101700000Y-108352661D01*
X101700000Y-108346447D01*
X102379474Y-109025921D01*
X102411859Y-108981349D01*
X102504755Y-108799031D01*
X102567990Y-108604417D01*
X102600000Y-108402317D01*
X102600000Y-108197682D01*
X102567990Y-107995582D01*
X102504755Y-107800968D01*
X102411859Y-107618650D01*
X102379474Y-107574077D01*
X102379474Y-107574076D01*
X101700000Y-108253551D01*
X101700000Y-108247339D01*
X101672741Y-108145606D01*
X101620080Y-108054394D01*
X101545606Y-107979920D01*
X101454394Y-107927259D01*
X101352661Y-107900000D01*
X101346446Y-107900000D01*
X102025922Y-107220524D01*
X102025921Y-107220523D01*
X101981359Y-107188147D01*
X101981350Y-107188141D01*
X101799031Y-107095244D01*
X101604417Y-107032009D01*
X101402317Y-107000000D01*
X101197683Y-107000000D01*
X100995582Y-107032009D01*
X100800968Y-107095244D01*
X100618644Y-107188143D01*
X100574077Y-107220523D01*
X100574077Y-107220524D01*
X101253554Y-107900000D01*
X101247339Y-107900000D01*
X101145606Y-107927259D01*
X101054394Y-107979920D01*
X100979920Y-108054394D01*
X100927259Y-108145606D01*
X100900000Y-108247339D01*
X100900000Y-108253553D01*
X100220524Y-107574077D01*
X100220523Y-107574077D01*
X100188143Y-107618644D01*
X100095244Y-107800968D01*
X100032009Y-107995582D01*
X100000000Y-108197682D01*
X76634394Y-108197682D01*
X78248926Y-106583150D01*
X78310247Y-106549667D01*
X78379939Y-106554651D01*
X78392900Y-106560348D01*
X78514951Y-106622537D01*
X78514953Y-106622537D01*
X78514956Y-106622539D01*
X78631750Y-106660487D01*
X78732843Y-106693335D01*
X78959119Y-106729174D01*
X78959124Y-106729174D01*
X79188229Y-106729174D01*
X79414504Y-106693335D01*
X79416006Y-106692847D01*
X79632392Y-106622539D01*
X79836522Y-106518529D01*
X80021869Y-106383867D01*
X80183867Y-106221869D01*
X80248665Y-106132680D01*
X80303992Y-106090017D01*
X80373605Y-106084036D01*
X80422242Y-106109698D01*
X80433231Y-106110563D01*
X81034112Y-105509681D01*
X81060945Y-105574459D01*
X81130438Y-105678463D01*
X81218885Y-105766910D01*
X81322889Y-105836403D01*
X81387665Y-105863234D01*
X80786783Y-106464115D01*
X80861087Y-106518100D01*
X81065145Y-106622073D01*
X81282964Y-106692847D01*
X81282963Y-106692847D01*
X81509164Y-106728674D01*
X81738184Y-106728674D01*
X81964383Y-106692847D01*
X82182202Y-106622073D01*
X82386252Y-106518104D01*
X82386258Y-106518100D01*
X82460562Y-106464115D01*
X82460563Y-106464115D01*
X81859682Y-105863234D01*
X81924459Y-105836403D01*
X82028463Y-105766910D01*
X82116910Y-105678463D01*
X82186403Y-105574459D01*
X82213234Y-105509681D01*
X82681855Y-105978302D01*
X82715340Y-106039625D01*
X82718174Y-106065982D01*
X82718174Y-106276543D01*
X82718175Y-106276550D01*
X82724582Y-106336157D01*
X82774876Y-106471002D01*
X82774880Y-106471009D01*
X82861126Y-106586218D01*
X82861129Y-106586221D01*
X82976338Y-106672467D01*
X82976345Y-106672471D01*
X83021292Y-106689235D01*
X83111191Y-106722765D01*
X83170801Y-106729174D01*
X83777879Y-106729173D01*
X83816197Y-106735242D01*
X83822306Y-106737227D01*
X83938944Y-106755700D01*
X84055577Y-106774174D01*
X84055582Y-106774174D01*
X91144423Y-106774174D01*
X91377694Y-106737227D01*
X91383803Y-106735242D01*
X91602318Y-106664242D01*
X91812760Y-106557017D01*
X92003836Y-106418191D01*
X99437819Y-98984208D01*
X99499142Y-98950723D01*
X99568834Y-98955707D01*
X99624767Y-98997579D01*
X99649184Y-99063043D01*
X99649500Y-99071889D01*
X99649500Y-100968097D01*
X99686446Y-101201368D01*
X99759433Y-101425996D01*
X99859599Y-101622582D01*
X99866657Y-101636434D01*
X99989128Y-101805000D01*
X100005484Y-101827511D01*
X107006581Y-108828608D01*
X107040066Y-108889931D01*
X107042900Y-108916289D01*
X107042900Y-112321510D01*
X107023215Y-112388549D01*
X106970411Y-112434304D01*
X106901253Y-112444248D01*
X106837697Y-112415223D01*
X106831219Y-112409191D01*
X105077512Y-110655485D01*
X105077511Y-110655484D01*
X105063915Y-110645606D01*
X104886434Y-110516657D01*
X104865338Y-110505908D01*
X104675996Y-110409433D01*
X104451368Y-110336446D01*
X104218097Y-110299500D01*
X104218092Y-110299500D01*
X101181908Y-110299500D01*
X101181903Y-110299500D01*
X100948630Y-110336447D01*
X100948627Y-110336447D01*
X100724011Y-110409430D01*
X100724010Y-110409430D01*
X100573761Y-110485985D01*
X100517469Y-110499500D01*
X100452130Y-110499500D01*
X100452123Y-110499501D01*
X100392516Y-110505908D01*
X100257671Y-110556202D01*
X100257664Y-110556206D01*
X100142455Y-110642452D01*
X100142452Y-110642455D01*
X100056206Y-110757664D01*
X100056202Y-110757671D01*
X100005908Y-110892517D01*
X99999501Y-110952116D01*
X99999500Y-110952135D01*
X99999500Y-111017468D01*
X99985985Y-111073763D01*
X99909434Y-111224003D01*
X99836446Y-111448631D01*
X99799500Y-111681902D01*
X99799500Y-111918097D01*
X99836446Y-112151368D01*
X99909433Y-112375996D01*
X99939143Y-112434304D01*
X99985985Y-112526238D01*
X99999500Y-112582529D01*
X99999500Y-112647869D01*
X99999501Y-112647876D01*
X100005908Y-112707483D01*
X100056202Y-112842328D01*
X100056206Y-112842335D01*
X100142452Y-112957544D01*
X100142455Y-112957547D01*
X100257664Y-113043793D01*
X100257671Y-113043797D01*
X100392516Y-113094091D01*
X100418419Y-113096875D01*
X100452127Y-113100500D01*
X100517468Y-113100499D01*
X100573763Y-113114013D01*
X100592020Y-113123316D01*
X100724003Y-113190566D01*
X100724005Y-113190566D01*
X100724008Y-113190568D01*
X100844412Y-113229689D01*
X100948631Y-113263553D01*
X101181903Y-113300500D01*
X101181908Y-113300500D01*
X103427111Y-113300500D01*
X103494150Y-113320185D01*
X103514792Y-113336819D01*
X106155791Y-115977819D01*
X106189276Y-116039142D01*
X106184292Y-116108834D01*
X106142420Y-116164767D01*
X106076956Y-116189184D01*
X106068110Y-116189500D01*
X105886095Y-116189500D01*
X105858195Y-116193919D01*
X105654372Y-116226201D01*
X105431249Y-116298697D01*
X105222204Y-116405212D01*
X105032410Y-116543104D01*
X105032405Y-116543108D01*
X104866509Y-116709004D01*
X104822235Y-116769942D01*
X104766905Y-116812607D01*
X104712189Y-116820673D01*
X104678899Y-116818053D01*
X104072094Y-117424857D01*
X104048284Y-117367373D01*
X103976055Y-117259275D01*
X103884125Y-117167345D01*
X103776027Y-117095116D01*
X103718541Y-117071304D01*
X104325345Y-116464499D01*
X104325345Y-116464498D01*
X104244333Y-116405640D01*
X104035365Y-116299164D01*
X103812309Y-116226689D01*
X103580665Y-116190000D01*
X103346135Y-116190000D01*
X103114490Y-116226689D01*
X102891434Y-116299164D01*
X102682468Y-116405639D01*
X102601453Y-116464498D01*
X102601453Y-116464499D01*
X103208258Y-117071304D01*
X103150773Y-117095116D01*
X103042675Y-117167345D01*
X102950745Y-117259275D01*
X102878516Y-117367373D01*
X102854704Y-117424858D01*
X102247899Y-116818053D01*
X102214610Y-116820673D01*
X102210810Y-116819874D01*
X102207106Y-116821035D01*
X102176893Y-116812749D01*
X102146233Y-116806309D01*
X102142384Y-116803286D01*
X102139724Y-116802557D01*
X102130163Y-116793688D01*
X102112640Y-116779926D01*
X102108341Y-116775141D01*
X102060290Y-116709004D01*
X101894396Y-116543110D01*
X101894394Y-116543108D01*
X101894389Y-116543104D01*
X101704595Y-116405212D01*
X101704594Y-116405211D01*
X101704592Y-116405210D01*
X101600072Y-116351954D01*
X101495550Y-116298697D01*
X101272427Y-116226201D01*
X101068605Y-116193919D01*
X101040705Y-116189500D01*
X100806095Y-116189500D01*
X100778195Y-116193919D01*
X100574372Y-116226201D01*
X100351249Y-116298697D01*
X100142204Y-116405212D01*
X99952410Y-116543104D01*
X99952405Y-116543108D01*
X99786508Y-116709005D01*
X99786504Y-116709010D01*
X99753718Y-116754137D01*
X99698388Y-116796803D01*
X99628775Y-116802782D01*
X99566980Y-116770176D01*
X99553082Y-116754137D01*
X99520295Y-116709010D01*
X99520291Y-116709005D01*
X99354394Y-116543108D01*
X99354389Y-116543104D01*
X99164595Y-116405212D01*
X99164594Y-116405211D01*
X99164592Y-116405210D01*
X99060072Y-116351954D01*
X98955550Y-116298697D01*
X98732427Y-116226201D01*
X98528605Y-116193919D01*
X98500705Y-116189500D01*
X98266095Y-116189500D01*
X98238195Y-116193919D01*
X98034372Y-116226201D01*
X97811249Y-116298697D01*
X97602204Y-116405212D01*
X97412410Y-116543104D01*
X97412405Y-116543108D01*
X97246508Y-116709005D01*
X97246504Y-116709010D01*
X97213718Y-116754137D01*
X97158388Y-116796803D01*
X97088775Y-116802782D01*
X97026980Y-116770176D01*
X97013082Y-116754137D01*
X96980295Y-116709010D01*
X96980291Y-116709005D01*
X96814394Y-116543108D01*
X96814389Y-116543104D01*
X96624595Y-116405212D01*
X96624594Y-116405211D01*
X96624592Y-116405210D01*
X96520072Y-116351954D01*
X96415550Y-116298697D01*
X96192427Y-116226201D01*
X95988605Y-116193919D01*
X95960705Y-116189500D01*
X95726095Y-116189500D01*
X95698195Y-116193919D01*
X95494372Y-116226201D01*
X95271249Y-116298697D01*
X95062204Y-116405212D01*
X94872410Y-116543104D01*
X94872405Y-116543108D01*
X94706508Y-116709005D01*
X94706504Y-116709010D01*
X94673718Y-116754137D01*
X94618388Y-116796803D01*
X94548775Y-116802782D01*
X94486980Y-116770176D01*
X94473082Y-116754137D01*
X94440295Y-116709010D01*
X94440291Y-116709005D01*
X94274394Y-116543108D01*
X94274389Y-116543104D01*
X94084595Y-116405212D01*
X94084594Y-116405211D01*
X94084592Y-116405210D01*
X93980072Y-116351954D01*
X93875550Y-116298697D01*
X93652427Y-116226201D01*
X93448605Y-116193919D01*
X93420705Y-116189500D01*
X93186095Y-116189500D01*
X93158195Y-116193919D01*
X92954372Y-116226201D01*
X92731249Y-116298697D01*
X92522204Y-116405212D01*
X92332410Y-116543104D01*
X92332405Y-116543108D01*
X92166509Y-116709004D01*
X92122235Y-116769942D01*
X92066905Y-116812607D01*
X92012189Y-116820673D01*
X91978899Y-116818053D01*
X91372095Y-117424858D01*
X91348284Y-117367373D01*
X91276055Y-117259275D01*
X91184125Y-117167345D01*
X91076027Y-117095116D01*
X91018541Y-117071304D01*
X91625345Y-116464499D01*
X91625345Y-116464498D01*
X91544333Y-116405640D01*
X91335365Y-116299164D01*
X91112309Y-116226689D01*
X90880665Y-116190000D01*
X90646135Y-116190000D01*
X90414490Y-116226689D01*
X90191434Y-116299164D01*
X89982468Y-116405639D01*
X89901453Y-116464498D01*
X89901453Y-116464499D01*
X90508258Y-117071304D01*
X90450773Y-117095116D01*
X90342675Y-117167345D01*
X90250745Y-117259275D01*
X90178516Y-117367373D01*
X90154704Y-117424858D01*
X89547899Y-116818053D01*
X89547898Y-116818053D01*
X89489039Y-116899068D01*
X89382564Y-117108034D01*
X89310089Y-117331090D01*
X89273400Y-117562734D01*
X89273400Y-117797265D01*
X89310089Y-118028909D01*
X89382564Y-118251965D01*
X89489040Y-118460933D01*
X89547898Y-118541945D01*
X89547899Y-118541945D01*
X90154704Y-117935140D01*
X90178516Y-117992627D01*
X90250745Y-118100725D01*
X90342675Y-118192655D01*
X90450773Y-118264884D01*
X90508257Y-118288694D01*
X89901452Y-118895499D01*
X89901453Y-118895500D01*
X89982466Y-118954359D01*
X90191434Y-119060835D01*
X90414486Y-119133309D01*
X90436141Y-119136739D01*
X90499276Y-119166667D01*
X90536209Y-119225978D01*
X90535213Y-119295840D01*
X90504427Y-119346894D01*
X89588141Y-120263181D01*
X89526818Y-120296666D01*
X89500460Y-120299500D01*
X87321154Y-120299500D01*
X87166509Y-120330261D01*
X87166497Y-120330264D01*
X87123832Y-120347936D01*
X87123833Y-120347937D01*
X87020823Y-120390604D01*
X87020815Y-120390609D01*
X86905312Y-120467787D01*
X86905311Y-120467788D01*
X86889707Y-120478213D01*
X86889706Y-120478214D01*
X77104741Y-130263181D01*
X77043418Y-130296666D01*
X77017060Y-130299500D01*
X75399984Y-130299500D01*
X75297204Y-130310000D01*
X75297203Y-130310001D01*
X75130664Y-130365186D01*
X75130662Y-130365187D01*
X74981348Y-130457286D01*
X74981344Y-130457289D01*
X74857289Y-130581344D01*
X74857286Y-130581348D01*
X74765187Y-130730662D01*
X74765186Y-130730664D01*
X74710001Y-130897203D01*
X74710000Y-130897204D01*
X74699500Y-130999984D01*
X74699500Y-133400015D01*
X74710000Y-133502795D01*
X74710001Y-133502797D01*
X74727179Y-133554636D01*
X74765186Y-133669335D01*
X74765187Y-133669337D01*
X74857286Y-133818651D01*
X74857289Y-133818655D01*
X74981344Y-133942710D01*
X74981348Y-133942713D01*
X75130662Y-134034812D01*
X75130664Y-134034813D01*
X75130666Y-134034814D01*
X75297203Y-134089999D01*
X75399992Y-134100500D01*
X75399997Y-134100500D01*
X77800003Y-134100500D01*
X77800008Y-134100500D01*
X77902797Y-134089999D01*
X78069334Y-134034814D01*
X78218655Y-133942711D01*
X78342711Y-133818655D01*
X78434814Y-133669334D01*
X78489999Y-133502797D01*
X78500500Y-133400008D01*
X78500500Y-131182940D01*
X78520185Y-131115901D01*
X78536819Y-131095259D01*
X87695259Y-121936819D01*
X87756582Y-121903334D01*
X87782940Y-121900500D01*
X89962244Y-121900500D01*
X89962245Y-121900499D01*
X90116897Y-121869737D01*
X90231805Y-121822140D01*
X90301274Y-121814672D01*
X90363753Y-121845947D01*
X90399405Y-121906036D01*
X90396911Y-121975861D01*
X90366938Y-122024383D01*
X82091385Y-130299935D01*
X82030062Y-130333420D01*
X81975692Y-130332132D01*
X81975557Y-130332812D01*
X81971656Y-130332036D01*
X81971637Y-130332036D01*
X81971588Y-130332022D01*
X81971561Y-130332017D01*
X81724575Y-130299501D01*
X81724570Y-130299500D01*
X81724565Y-130299500D01*
X81475435Y-130299500D01*
X81475429Y-130299500D01*
X81475424Y-130299501D01*
X81228438Y-130332017D01*
X80987792Y-130396498D01*
X80757638Y-130491830D01*
X80757623Y-130491837D01*
X80541873Y-130616400D01*
X80344225Y-130768060D01*
X80344218Y-130768066D01*
X80168066Y-130944218D01*
X80168060Y-130944225D01*
X80016400Y-131141873D01*
X79891837Y-131357623D01*
X79891830Y-131357638D01*
X79796498Y-131587792D01*
X79732017Y-131828438D01*
X79699501Y-132075424D01*
X79699500Y-132075441D01*
X79699500Y-132324558D01*
X79699501Y-132324575D01*
X79732017Y-132571561D01*
X79796498Y-132812207D01*
X79891830Y-133042361D01*
X79891837Y-133042376D01*
X80016400Y-133258126D01*
X80168060Y-133455774D01*
X80168066Y-133455781D01*
X80344218Y-133631933D01*
X80344225Y-133631939D01*
X80541873Y-133783599D01*
X80757623Y-133908162D01*
X80757638Y-133908169D01*
X80856825Y-133949253D01*
X80987793Y-134003502D01*
X81228435Y-134067982D01*
X81475435Y-134100500D01*
X81475442Y-134100500D01*
X81724558Y-134100500D01*
X81724565Y-134100500D01*
X81971565Y-134067982D01*
X82212207Y-134003502D01*
X82442373Y-133908164D01*
X82658127Y-133783599D01*
X82855776Y-133631938D01*
X83031938Y-133455776D01*
X83183599Y-133258127D01*
X83308164Y-133042373D01*
X83403502Y-132812207D01*
X83467982Y-132571565D01*
X83500500Y-132324565D01*
X83500500Y-132075435D01*
X83467982Y-131828435D01*
X83403502Y-131587793D01*
X83336848Y-131426877D01*
X83329380Y-131357412D01*
X83360655Y-131294932D01*
X83363701Y-131291775D01*
X95473271Y-119182205D01*
X95534592Y-119148722D01*
X95580344Y-119147415D01*
X95726095Y-119170500D01*
X95726097Y-119170500D01*
X95960704Y-119170500D01*
X95960705Y-119170500D01*
X96192426Y-119133799D01*
X96415553Y-119061301D01*
X96624592Y-118954790D01*
X96814396Y-118816890D01*
X96980290Y-118650996D01*
X96982559Y-118647873D01*
X97013081Y-118605863D01*
X97068411Y-118563196D01*
X97138024Y-118557216D01*
X97199819Y-118589822D01*
X97213719Y-118605863D01*
X97246506Y-118650992D01*
X97412407Y-118816893D01*
X97531785Y-118903625D01*
X97574451Y-118958954D01*
X97582900Y-119003943D01*
X97582900Y-120562246D01*
X97613661Y-120716889D01*
X97613664Y-120716901D01*
X97674002Y-120862572D01*
X97674009Y-120862585D01*
X97761610Y-120993688D01*
X97761613Y-120993692D01*
X104478211Y-127710289D01*
X104589711Y-127821789D01*
X104589712Y-127821790D01*
X104720814Y-127909390D01*
X104720827Y-127909397D01*
X104866498Y-127969735D01*
X104866503Y-127969737D01*
X105021153Y-128000499D01*
X105021156Y-128000500D01*
X105021158Y-128000500D01*
X114217060Y-128000500D01*
X114284099Y-128020185D01*
X114304741Y-128036819D01*
X117258389Y-130990467D01*
X117291874Y-131051790D01*
X117290483Y-131110241D01*
X117232017Y-131328436D01*
X117199501Y-131575424D01*
X117199500Y-131575441D01*
X117199500Y-131824558D01*
X117199501Y-131824575D01*
X117232017Y-132071561D01*
X117296498Y-132312207D01*
X117391830Y-132542361D01*
X117391837Y-132542376D01*
X117516400Y-132758126D01*
X117668060Y-132955774D01*
X117668066Y-132955781D01*
X117844218Y-133131933D01*
X117844225Y-133131939D01*
X118041873Y-133283599D01*
X118257623Y-133408162D01*
X118257638Y-133408169D01*
X118356825Y-133449253D01*
X118487793Y-133503502D01*
X118728435Y-133567982D01*
X118975435Y-133600500D01*
X118975442Y-133600500D01*
X119224558Y-133600500D01*
X119224565Y-133600500D01*
X119471565Y-133567982D01*
X119712207Y-133503502D01*
X119942373Y-133408164D01*
X120158127Y-133283599D01*
X120355776Y-133131938D01*
X120531938Y-132955776D01*
X120683599Y-132758127D01*
X120808164Y-132542373D01*
X120903502Y-132312207D01*
X120967982Y-132071565D01*
X121000500Y-131824565D01*
X121000500Y-131575435D01*
X120967982Y-131328435D01*
X120903502Y-131087793D01*
X120844031Y-130944218D01*
X120808169Y-130857638D01*
X120808162Y-130857623D01*
X120683599Y-130641873D01*
X120531939Y-130444225D01*
X120531933Y-130444218D01*
X120355781Y-130268066D01*
X120355774Y-130268060D01*
X120158126Y-130116400D01*
X119942376Y-129991837D01*
X119942361Y-129991830D01*
X119712207Y-129896498D01*
X119595349Y-129865186D01*
X119471565Y-129832018D01*
X119471564Y-129832017D01*
X119471561Y-129832017D01*
X119224575Y-129799501D01*
X119224570Y-129799500D01*
X119224565Y-129799500D01*
X118975435Y-129799500D01*
X118975429Y-129799500D01*
X118975424Y-129799501D01*
X118728436Y-129832017D01*
X118510241Y-129890483D01*
X118440392Y-129888820D01*
X118390467Y-129858389D01*
X115110292Y-126578213D01*
X115110288Y-126578210D01*
X114979185Y-126490609D01*
X114979172Y-126490602D01*
X114833501Y-126430264D01*
X114833489Y-126430261D01*
X114678845Y-126399500D01*
X114678842Y-126399500D01*
X105482940Y-126399500D01*
X105415901Y-126379815D01*
X105395259Y-126363181D01*
X99220219Y-120188141D01*
X99186734Y-120126818D01*
X99183900Y-120100460D01*
X99183900Y-119003943D01*
X99203585Y-118936904D01*
X99235015Y-118903625D01*
X99354392Y-118816893D01*
X99354392Y-118816892D01*
X99354396Y-118816890D01*
X99520290Y-118650996D01*
X99522559Y-118647873D01*
X99553081Y-118605863D01*
X99608411Y-118563196D01*
X99678024Y-118557216D01*
X99739819Y-118589822D01*
X99753719Y-118605863D01*
X99786506Y-118650992D01*
X99952407Y-118816893D01*
X100071785Y-118903625D01*
X100114451Y-118958954D01*
X100122900Y-119003943D01*
X100122900Y-119302246D01*
X100153661Y-119456889D01*
X100153664Y-119456901D01*
X100214002Y-119602572D01*
X100214009Y-119602585D01*
X100301610Y-119733688D01*
X100301613Y-119733692D01*
X105573870Y-125005947D01*
X105573891Y-125005970D01*
X105689707Y-125121786D01*
X105689711Y-125121789D01*
X105820814Y-125209390D01*
X105820827Y-125209397D01*
X105966498Y-125269735D01*
X105966503Y-125269737D01*
X105966507Y-125269737D01*
X105966508Y-125269738D01*
X106121154Y-125300500D01*
X106121157Y-125300500D01*
X106121158Y-125300500D01*
X117317060Y-125300500D01*
X117384099Y-125320185D01*
X117404741Y-125336819D01*
X122219416Y-130151494D01*
X122252901Y-130212817D01*
X122249441Y-130278178D01*
X122210001Y-130397200D01*
X122210000Y-130397204D01*
X122199500Y-130499984D01*
X122199500Y-132900015D01*
X122210000Y-133002795D01*
X122210001Y-133002797D01*
X122217893Y-133026612D01*
X122265186Y-133169335D01*
X122265187Y-133169337D01*
X122357286Y-133318651D01*
X122357289Y-133318655D01*
X122481344Y-133442710D01*
X122481348Y-133442713D01*
X122630662Y-133534812D01*
X122630664Y-133534813D01*
X122630666Y-133534814D01*
X122797203Y-133589999D01*
X122899992Y-133600500D01*
X122899997Y-133600500D01*
X125300003Y-133600500D01*
X125300008Y-133600500D01*
X125402797Y-133589999D01*
X125569334Y-133534814D01*
X125718655Y-133442711D01*
X125842711Y-133318655D01*
X125934814Y-133169334D01*
X125989999Y-133002797D01*
X126000500Y-132900008D01*
X126000500Y-130499992D01*
X125989999Y-130397203D01*
X125934814Y-130230666D01*
X125864333Y-130116400D01*
X125842713Y-130081348D01*
X125842710Y-130081344D01*
X125718655Y-129957289D01*
X125718651Y-129957286D01*
X125569337Y-129865187D01*
X125569335Y-129865186D01*
X125469237Y-129832017D01*
X125402797Y-129810001D01*
X125402795Y-129810000D01*
X125300015Y-129799500D01*
X125300008Y-129799500D01*
X124182940Y-129799500D01*
X124115901Y-129779815D01*
X124095259Y-129763181D01*
X118210292Y-123878213D01*
X118210288Y-123878210D01*
X118079185Y-123790609D01*
X118079172Y-123790602D01*
X117933501Y-123730264D01*
X117933489Y-123730261D01*
X117778845Y-123699500D01*
X117778842Y-123699500D01*
X106582939Y-123699500D01*
X106515900Y-123679815D01*
X106495258Y-123663181D01*
X101854907Y-119022829D01*
X101849121Y-119012233D01*
X101839819Y-119004535D01*
X101832686Y-118982135D01*
X101821422Y-118961506D01*
X101822283Y-118949462D01*
X101818620Y-118937958D01*
X101824729Y-118915261D01*
X101826406Y-118891814D01*
X101834093Y-118880469D01*
X101836780Y-118870490D01*
X101852103Y-118853893D01*
X101859282Y-118843300D01*
X101864261Y-118838783D01*
X101894396Y-118816890D01*
X102060290Y-118650996D01*
X102104564Y-118590057D01*
X102159890Y-118547393D01*
X102214611Y-118539325D01*
X102247899Y-118541945D01*
X102854704Y-117935139D01*
X102878516Y-117992627D01*
X102950745Y-118100725D01*
X103042675Y-118192655D01*
X103150773Y-118264884D01*
X103208258Y-118288695D01*
X102601452Y-118895499D01*
X102601453Y-118895500D01*
X102682466Y-118954359D01*
X102891434Y-119060835D01*
X103114490Y-119133310D01*
X103346135Y-119170000D01*
X103580665Y-119170000D01*
X103812309Y-119133310D01*
X104035365Y-119060835D01*
X104244330Y-118954361D01*
X104325345Y-118895499D01*
X104325346Y-118895499D01*
X103718541Y-118288695D01*
X103776027Y-118264884D01*
X103884125Y-118192655D01*
X103976055Y-118100725D01*
X104048284Y-117992627D01*
X104072095Y-117935141D01*
X104678899Y-118541945D01*
X104712188Y-118539325D01*
X104780565Y-118553689D01*
X104822236Y-118590058D01*
X104866507Y-118650992D01*
X104866512Y-118650998D01*
X105032407Y-118816893D01*
X105151785Y-118903625D01*
X105194451Y-118958954D01*
X105202900Y-119003943D01*
X105202900Y-119482246D01*
X105233661Y-119636889D01*
X105233664Y-119636901D01*
X105294002Y-119782572D01*
X105294009Y-119782585D01*
X105381610Y-119913688D01*
X105381613Y-119913692D01*
X107978211Y-122510289D01*
X108089711Y-122621789D01*
X108089712Y-122621790D01*
X108220814Y-122709390D01*
X108220827Y-122709397D01*
X108366498Y-122769735D01*
X108366503Y-122769737D01*
X108521153Y-122800499D01*
X108521156Y-122800500D01*
X108521158Y-122800500D01*
X142268060Y-122800500D01*
X142335099Y-122820185D01*
X142380854Y-122872989D01*
X142390798Y-122942147D01*
X142361773Y-123005703D01*
X142355741Y-123012181D01*
X126004741Y-139363181D01*
X125943418Y-139396666D01*
X125917060Y-139399500D01*
X118082939Y-139399500D01*
X118015900Y-139379815D01*
X117995258Y-139363181D01*
X114236819Y-135604741D01*
X114203334Y-135543418D01*
X114200500Y-135517060D01*
X114200500Y-131021155D01*
X114200499Y-131021153D01*
X114185197Y-130944224D01*
X114169737Y-130866503D01*
X114166065Y-130857638D01*
X114109397Y-130720827D01*
X114109390Y-130720814D01*
X114021790Y-130589712D01*
X113968897Y-130536819D01*
X113910289Y-130478211D01*
X113211893Y-129779815D01*
X112510292Y-129078213D01*
X112510288Y-129078210D01*
X112379185Y-128990609D01*
X112379172Y-128990602D01*
X112233501Y-128930264D01*
X112233489Y-128930261D01*
X112078845Y-128899500D01*
X112078842Y-128899500D01*
X102778843Y-128899500D01*
X102621158Y-128899500D01*
X102621155Y-128899500D01*
X102466510Y-128930261D01*
X102466498Y-128930264D01*
X102320827Y-128990602D01*
X102320814Y-128990609D01*
X102189711Y-129078210D01*
X102189707Y-129078213D01*
X100823704Y-130444218D01*
X100413111Y-130854811D01*
X100370719Y-130897203D01*
X100301609Y-130966312D01*
X100214009Y-131097414D01*
X100214002Y-131097427D01*
X100153664Y-131243098D01*
X100153661Y-131243110D01*
X100122900Y-131397753D01*
X100122900Y-131596056D01*
X100103215Y-131663095D01*
X100071785Y-131696374D01*
X99952410Y-131783104D01*
X99952405Y-131783108D01*
X99786508Y-131949005D01*
X99786504Y-131949010D01*
X99753718Y-131994137D01*
X99698388Y-132036803D01*
X99628775Y-132042782D01*
X99566980Y-132010176D01*
X99553082Y-131994137D01*
X99520295Y-131949010D01*
X99520291Y-131949005D01*
X99354394Y-131783108D01*
X99354389Y-131783104D01*
X99164595Y-131645212D01*
X99164594Y-131645211D01*
X99164592Y-131645210D01*
X99027663Y-131575441D01*
X98955550Y-131538697D01*
X98732427Y-131466201D01*
X98616565Y-131447850D01*
X98500705Y-131429500D01*
X98266095Y-131429500D01*
X98188854Y-131441733D01*
X98034372Y-131466201D01*
X97811249Y-131538697D01*
X97602204Y-131645212D01*
X97412410Y-131783104D01*
X97412405Y-131783108D01*
X97246508Y-131949005D01*
X97246504Y-131949010D01*
X97213718Y-131994137D01*
X97158388Y-132036803D01*
X97088775Y-132042782D01*
X97026980Y-132010176D01*
X97013082Y-131994137D01*
X96980295Y-131949010D01*
X96980291Y-131949005D01*
X96814394Y-131783108D01*
X96814389Y-131783104D01*
X96624595Y-131645212D01*
X96624594Y-131645211D01*
X96624592Y-131645210D01*
X96487663Y-131575441D01*
X96415550Y-131538697D01*
X96192427Y-131466201D01*
X96076565Y-131447850D01*
X95960705Y-131429500D01*
X95726095Y-131429500D01*
X95648854Y-131441733D01*
X95494372Y-131466201D01*
X95271249Y-131538697D01*
X95062204Y-131645212D01*
X94872410Y-131783104D01*
X94872405Y-131783108D01*
X94706508Y-131949005D01*
X94706504Y-131949010D01*
X94673718Y-131994137D01*
X94618388Y-132036803D01*
X94548775Y-132042782D01*
X94486980Y-132010176D01*
X94473082Y-131994137D01*
X94440295Y-131949010D01*
X94440291Y-131949005D01*
X94274394Y-131783108D01*
X94274389Y-131783104D01*
X94084595Y-131645212D01*
X94084594Y-131645211D01*
X94084592Y-131645210D01*
X93947663Y-131575441D01*
X93875550Y-131538697D01*
X93652427Y-131466201D01*
X93536565Y-131447850D01*
X93420705Y-131429500D01*
X93186095Y-131429500D01*
X93108854Y-131441733D01*
X92954372Y-131466201D01*
X92731249Y-131538697D01*
X92522204Y-131645212D01*
X92332410Y-131783104D01*
X92332405Y-131783108D01*
X92166509Y-131949004D01*
X92122235Y-132009942D01*
X92066905Y-132052607D01*
X92012189Y-132060673D01*
X91978899Y-132058053D01*
X91372094Y-132664857D01*
X91348284Y-132607373D01*
X91276055Y-132499275D01*
X91184125Y-132407345D01*
X91076027Y-132335116D01*
X91018541Y-132311304D01*
X91625345Y-131704499D01*
X91625345Y-131704498D01*
X91544333Y-131645640D01*
X91335365Y-131539164D01*
X91112309Y-131466689D01*
X90880665Y-131430000D01*
X90646135Y-131430000D01*
X90414490Y-131466689D01*
X90191434Y-131539164D01*
X89982468Y-131645639D01*
X89901453Y-131704498D01*
X89901453Y-131704499D01*
X90508258Y-132311304D01*
X90450773Y-132335116D01*
X90342675Y-132407345D01*
X90250745Y-132499275D01*
X90178516Y-132607373D01*
X90154704Y-132664858D01*
X89547899Y-132058053D01*
X89547898Y-132058053D01*
X89489039Y-132139068D01*
X89382564Y-132348034D01*
X89310089Y-132571090D01*
X89273400Y-132802734D01*
X89273400Y-133037265D01*
X89310089Y-133268909D01*
X89382564Y-133491965D01*
X89489040Y-133700933D01*
X89547898Y-133781945D01*
X89547899Y-133781945D01*
X90154704Y-133175140D01*
X90178516Y-133232627D01*
X90250745Y-133340725D01*
X90342675Y-133432655D01*
X90450773Y-133504884D01*
X90508258Y-133528695D01*
X89901452Y-134135499D01*
X89901453Y-134135500D01*
X89982466Y-134194359D01*
X90191434Y-134300835D01*
X90414490Y-134373310D01*
X90646135Y-134410000D01*
X90880665Y-134410000D01*
X91112309Y-134373310D01*
X91335365Y-134300835D01*
X91544330Y-134194361D01*
X91625345Y-134135499D01*
X91625346Y-134135499D01*
X91018541Y-133528695D01*
X91076027Y-133504884D01*
X91184125Y-133432655D01*
X91276055Y-133340725D01*
X91348284Y-133232627D01*
X91372095Y-133175141D01*
X91978899Y-133781945D01*
X92012188Y-133779325D01*
X92080565Y-133793689D01*
X92122236Y-133830058D01*
X92166507Y-133890992D01*
X92166512Y-133890998D01*
X92332405Y-134056891D01*
X92332410Y-134056895D01*
X92522206Y-134194789D01*
X92635194Y-134252359D01*
X92685991Y-134300333D01*
X92702900Y-134362844D01*
X92702900Y-134696503D01*
X92683215Y-134763542D01*
X92666581Y-134784184D01*
X89687584Y-137763181D01*
X89626261Y-137796666D01*
X89599903Y-137799500D01*
X73200098Y-137799500D01*
X73133059Y-137779815D01*
X73112417Y-137763181D01*
X48336819Y-112987583D01*
X48303334Y-112926260D01*
X48300500Y-112899902D01*
X48300500Y-83900097D01*
X48320185Y-83833058D01*
X48336819Y-83812416D01*
X73312416Y-58836819D01*
X73373739Y-58803334D01*
X73400097Y-58800500D01*
X82672572Y-58800500D01*
X82739611Y-58820185D01*
G37*
%TD.AperFunction*%
%TA.AperFunction,Conductor*%
G36*
X107797703Y-30652154D02*
G01*
X107814869Y-30670373D01*
X107881081Y-30756661D01*
X107881085Y-30756665D01*
X107881089Y-30756670D01*
X108043330Y-30918911D01*
X108043338Y-30918918D01*
X108225382Y-31058607D01*
X108225385Y-31058608D01*
X108225388Y-31058611D01*
X108424112Y-31173344D01*
X108424117Y-31173346D01*
X108424123Y-31173349D01*
X108515480Y-31211190D01*
X108636113Y-31261158D01*
X108857762Y-31320548D01*
X109085266Y-31350500D01*
X109085273Y-31350500D01*
X109150343Y-31350500D01*
X109217382Y-31370185D01*
X109263137Y-31422989D01*
X109273081Y-31492147D01*
X109244056Y-31555703D01*
X109188662Y-31592431D01*
X109044003Y-31639433D01*
X108833566Y-31746657D01*
X108724550Y-31825862D01*
X108642490Y-31885483D01*
X108642488Y-31885485D01*
X108642487Y-31885485D01*
X108475485Y-32052487D01*
X108475485Y-32052488D01*
X108475483Y-32052490D01*
X108447793Y-32090602D01*
X108336657Y-32243566D01*
X108229433Y-32454003D01*
X108156446Y-32678631D01*
X108119500Y-32911902D01*
X108119500Y-33148097D01*
X108156446Y-33381368D01*
X108229433Y-33605996D01*
X108325563Y-33794660D01*
X108336657Y-33816433D01*
X108475483Y-34007510D01*
X108642490Y-34174517D01*
X108677127Y-34199683D01*
X108719792Y-34255013D01*
X108725771Y-34324626D01*
X108693165Y-34386421D01*
X108677130Y-34400315D01*
X108659365Y-34413222D01*
X108642488Y-34425484D01*
X108475485Y-34592487D01*
X108475485Y-34592488D01*
X108475483Y-34592490D01*
X108446456Y-34632442D01*
X108336657Y-34783566D01*
X108229433Y-34994003D01*
X108156446Y-35218631D01*
X108119500Y-35451902D01*
X108119500Y-35688097D01*
X108156446Y-35921368D01*
X108229433Y-36145996D01*
X108336657Y-36356433D01*
X108475483Y-36547510D01*
X108642490Y-36714517D01*
X108677127Y-36739683D01*
X108719792Y-36795013D01*
X108725771Y-36864626D01*
X108693165Y-36926421D01*
X108677130Y-36940315D01*
X108659365Y-36953222D01*
X108642488Y-36965484D01*
X108475485Y-37132487D01*
X108475485Y-37132488D01*
X108475483Y-37132490D01*
X108446647Y-37172179D01*
X108336657Y-37323566D01*
X108229433Y-37534003D01*
X108156446Y-37758631D01*
X108119500Y-37991902D01*
X108119500Y-38228097D01*
X108156446Y-38461368D01*
X108229433Y-38685996D01*
X108336657Y-38896433D01*
X108475483Y-39087510D01*
X108642490Y-39254517D01*
X108677127Y-39279683D01*
X108719792Y-39335013D01*
X108725771Y-39404626D01*
X108693165Y-39466421D01*
X108677130Y-39480315D01*
X108659365Y-39493222D01*
X108642488Y-39505484D01*
X108475485Y-39672487D01*
X108475485Y-39672488D01*
X108475483Y-39672490D01*
X108446647Y-39712179D01*
X108336657Y-39863566D01*
X108229433Y-40074003D01*
X108156446Y-40298631D01*
X108119500Y-40531902D01*
X108119500Y-40768097D01*
X108156446Y-41001368D01*
X108229433Y-41225996D01*
X108336657Y-41436433D01*
X108475483Y-41627510D01*
X108642490Y-41794517D01*
X108677127Y-41819683D01*
X108719792Y-41875013D01*
X108725771Y-41944626D01*
X108693165Y-42006421D01*
X108677130Y-42020315D01*
X108659365Y-42033222D01*
X108642488Y-42045484D01*
X108475485Y-42212487D01*
X108475485Y-42212488D01*
X108475483Y-42212490D01*
X108446647Y-42252179D01*
X108336657Y-42403566D01*
X108229433Y-42614003D01*
X108156446Y-42838631D01*
X108119500Y-43071902D01*
X108119500Y-43308097D01*
X108156446Y-43541368D01*
X108229433Y-43765996D01*
X108336657Y-43976433D01*
X108475483Y-44167510D01*
X108642490Y-44334517D01*
X108677127Y-44359683D01*
X108719792Y-44415013D01*
X108725771Y-44484626D01*
X108693165Y-44546421D01*
X108677130Y-44560315D01*
X108659365Y-44573222D01*
X108642488Y-44585484D01*
X108475485Y-44752487D01*
X108475485Y-44752488D01*
X108475483Y-44752490D01*
X108475481Y-44752493D01*
X108336657Y-44943566D01*
X108229433Y-45154003D01*
X108156446Y-45378631D01*
X108119500Y-45611902D01*
X108119500Y-45848097D01*
X108156446Y-46081368D01*
X108229433Y-46305996D01*
X108277579Y-46400486D01*
X108336657Y-46516433D01*
X108475483Y-46707510D01*
X108642490Y-46874517D01*
X108677127Y-46899683D01*
X108719792Y-46955013D01*
X108725771Y-47024626D01*
X108693165Y-47086421D01*
X108677130Y-47100315D01*
X108659365Y-47113222D01*
X108642488Y-47125484D01*
X108475485Y-47292487D01*
X108475485Y-47292488D01*
X108475483Y-47292490D01*
X108446647Y-47332179D01*
X108336657Y-47483566D01*
X108229433Y-47694003D01*
X108156446Y-47918631D01*
X108119500Y-48151902D01*
X108119500Y-48388097D01*
X108156446Y-48621368D01*
X108229433Y-48845996D01*
X108336657Y-49056433D01*
X108475483Y-49247510D01*
X108642490Y-49414517D01*
X108677127Y-49439683D01*
X108719792Y-49495013D01*
X108725771Y-49564626D01*
X108693165Y-49626421D01*
X108677130Y-49640315D01*
X108659365Y-49653222D01*
X108642488Y-49665484D01*
X108475485Y-49832487D01*
X108475485Y-49832488D01*
X108475483Y-49832490D01*
X108469719Y-49840424D01*
X108336657Y-50023566D01*
X108229433Y-50234003D01*
X108156446Y-50458631D01*
X108119500Y-50691902D01*
X108119500Y-50928097D01*
X108156446Y-51161368D01*
X108229433Y-51385996D01*
X108336657Y-51596433D01*
X108475483Y-51787510D01*
X108642490Y-51954517D01*
X108677127Y-51979683D01*
X108719792Y-52035013D01*
X108725771Y-52104626D01*
X108693165Y-52166421D01*
X108677130Y-52180315D01*
X108659365Y-52193222D01*
X108642488Y-52205484D01*
X108475485Y-52372487D01*
X108475485Y-52372488D01*
X108475483Y-52372490D01*
X108475481Y-52372493D01*
X108336657Y-52563566D01*
X108229433Y-52774003D01*
X108156446Y-52998631D01*
X108119500Y-53231902D01*
X108119500Y-53468097D01*
X108156446Y-53701368D01*
X108229433Y-53925996D01*
X108336657Y-54136433D01*
X108475483Y-54327510D01*
X108642490Y-54494517D01*
X108677127Y-54519683D01*
X108719792Y-54575013D01*
X108725771Y-54644626D01*
X108693165Y-54706421D01*
X108677130Y-54720315D01*
X108659365Y-54733222D01*
X108642488Y-54745484D01*
X108475485Y-54912487D01*
X108475485Y-54912488D01*
X108475483Y-54912490D01*
X108446647Y-54952179D01*
X108336657Y-55103566D01*
X108229433Y-55314003D01*
X108156446Y-55538631D01*
X108119500Y-55771902D01*
X108119500Y-56008097D01*
X108156446Y-56241368D01*
X108229433Y-56465996D01*
X108336657Y-56676433D01*
X108475483Y-56867510D01*
X108642490Y-57034517D01*
X108677127Y-57059683D01*
X108719792Y-57115013D01*
X108725771Y-57184626D01*
X108693165Y-57246421D01*
X108677130Y-57260315D01*
X108659365Y-57273222D01*
X108642488Y-57285484D01*
X108475485Y-57452487D01*
X108475485Y-57452488D01*
X108475483Y-57452490D01*
X108475481Y-57452493D01*
X108384014Y-57578386D01*
X108328684Y-57621051D01*
X108283696Y-57629500D01*
X107391155Y-57629500D01*
X107236510Y-57660261D01*
X107236498Y-57660264D01*
X107090827Y-57720602D01*
X107090814Y-57720609D01*
X106959711Y-57808210D01*
X106959707Y-57808213D01*
X104775435Y-59992487D01*
X104089711Y-60678211D01*
X104033960Y-60733962D01*
X103978209Y-60789712D01*
X103890609Y-60920814D01*
X103890602Y-60920827D01*
X103830264Y-61066498D01*
X103830261Y-61066510D01*
X103799500Y-61221153D01*
X103799500Y-70278846D01*
X103830261Y-70433489D01*
X103830264Y-70433501D01*
X103890602Y-70579172D01*
X103890609Y-70579185D01*
X103978210Y-70710288D01*
X103978213Y-70710292D01*
X105789707Y-72521786D01*
X105789711Y-72521789D01*
X105920814Y-72609390D01*
X105920827Y-72609397D01*
X106066498Y-72669735D01*
X106066503Y-72669737D01*
X106221153Y-72700499D01*
X106221156Y-72700500D01*
X106221158Y-72700500D01*
X106378842Y-72700500D01*
X127217060Y-72700500D01*
X127284099Y-72720185D01*
X127304741Y-72736819D01*
X136863181Y-82295259D01*
X136896666Y-82356582D01*
X136899500Y-82382940D01*
X136899500Y-98047837D01*
X136879815Y-98114876D01*
X136827011Y-98160631D01*
X136801459Y-98169089D01*
X136797207Y-98169999D01*
X136630668Y-98225185D01*
X136630663Y-98225187D01*
X136481342Y-98317289D01*
X136357289Y-98441342D01*
X136265187Y-98590663D01*
X136265186Y-98590666D01*
X136210001Y-98757203D01*
X136210001Y-98757204D01*
X136210000Y-98757204D01*
X136199500Y-98859983D01*
X136199500Y-100460001D01*
X136199501Y-100460018D01*
X136210000Y-100562796D01*
X136210001Y-100562799D01*
X136265185Y-100729331D01*
X136265187Y-100729336D01*
X136272657Y-100741446D01*
X136357288Y-100878656D01*
X136481344Y-101002712D01*
X136517177Y-101024814D01*
X136529656Y-101032511D01*
X136576381Y-101084459D01*
X136587604Y-101153421D01*
X136564531Y-101211411D01*
X136558931Y-101219041D01*
X136555483Y-101222490D01*
X136463827Y-101348642D01*
X136463667Y-101348861D01*
X136436160Y-101369864D01*
X136408684Y-101391051D01*
X136408324Y-101391118D01*
X136408135Y-101391263D01*
X136407114Y-101391345D01*
X136363696Y-101399500D01*
X131750171Y-101399500D01*
X131683132Y-101379815D01*
X131649853Y-101348386D01*
X131646351Y-101343566D01*
X131562017Y-101227490D01*
X131395010Y-101060483D01*
X131203933Y-100921657D01*
X131171242Y-100905000D01*
X130993496Y-100814433D01*
X130768868Y-100741446D01*
X130535597Y-100704500D01*
X130535592Y-100704500D01*
X130299408Y-100704500D01*
X130299403Y-100704500D01*
X130066131Y-100741446D01*
X129841503Y-100814433D01*
X129631066Y-100921657D01*
X129553209Y-100978224D01*
X129439990Y-101060483D01*
X129439988Y-101060485D01*
X129439987Y-101060485D01*
X129272985Y-101227487D01*
X129272985Y-101227488D01*
X129272983Y-101227490D01*
X129222724Y-101296666D01*
X129134157Y-101418566D01*
X129026933Y-101629003D01*
X128953946Y-101853631D01*
X128917000Y-102086902D01*
X128917000Y-102323097D01*
X128953946Y-102556368D01*
X129026933Y-102780996D01*
X129129154Y-102981614D01*
X129134157Y-102991433D01*
X129272983Y-103182510D01*
X129439990Y-103349517D01*
X129631067Y-103488343D01*
X129717883Y-103532578D01*
X129841503Y-103595566D01*
X129841505Y-103595566D01*
X129841508Y-103595568D01*
X129939920Y-103627544D01*
X130066131Y-103668553D01*
X130299403Y-103705500D01*
X130299408Y-103705500D01*
X130535597Y-103705500D01*
X130768868Y-103668553D01*
X130784256Y-103663553D01*
X130993492Y-103595568D01*
X131203933Y-103488343D01*
X131395010Y-103349517D01*
X131562017Y-103182510D01*
X131641589Y-103072989D01*
X131657118Y-103051615D01*
X131712448Y-103008949D01*
X131757436Y-103000500D01*
X136363696Y-103000500D01*
X136430735Y-103020185D01*
X136464013Y-103051613D01*
X136555483Y-103177510D01*
X136722490Y-103344517D01*
X136781716Y-103387547D01*
X136824381Y-103442875D01*
X136832448Y-103497593D01*
X136830893Y-103517340D01*
X137488941Y-104175387D01*
X137468409Y-104180889D01*
X137331592Y-104259881D01*
X137219881Y-104371592D01*
X137140889Y-104508409D01*
X137135387Y-104528941D01*
X136477340Y-103870894D01*
X136417084Y-103953830D01*
X136309897Y-104164197D01*
X136236934Y-104388752D01*
X136200000Y-104621947D01*
X136200000Y-104858052D01*
X136236934Y-105091247D01*
X136309897Y-105315802D01*
X136417087Y-105526174D01*
X136477338Y-105609104D01*
X136477340Y-105609105D01*
X137135387Y-104951058D01*
X137140889Y-104971591D01*
X137219881Y-105108408D01*
X137331592Y-105220119D01*
X137468409Y-105299111D01*
X137488940Y-105304612D01*
X136830893Y-105962658D01*
X136913828Y-106022914D01*
X137124197Y-106130102D01*
X137348752Y-106203065D01*
X137348751Y-106203065D01*
X137581948Y-106240000D01*
X137818052Y-106240000D01*
X138051247Y-106203065D01*
X138275802Y-106130102D01*
X138486163Y-106022918D01*
X138486169Y-106022914D01*
X138569104Y-105962658D01*
X138569105Y-105962658D01*
X137911058Y-105304612D01*
X137931591Y-105299111D01*
X138068408Y-105220119D01*
X138180119Y-105108408D01*
X138259111Y-104971591D01*
X138264612Y-104951059D01*
X138922658Y-105609105D01*
X138922658Y-105609104D01*
X138982914Y-105526169D01*
X138982918Y-105526163D01*
X139090102Y-105315802D01*
X139163065Y-105091247D01*
X139200000Y-104858052D01*
X139200000Y-104621947D01*
X139163065Y-104388752D01*
X139090102Y-104164197D01*
X138982914Y-103953828D01*
X138922658Y-103870894D01*
X138922658Y-103870893D01*
X138264612Y-104528940D01*
X138259111Y-104508409D01*
X138180119Y-104371592D01*
X138068408Y-104259881D01*
X137931591Y-104180889D01*
X137911059Y-104175387D01*
X138569105Y-103517340D01*
X138567551Y-103497594D01*
X138581915Y-103429216D01*
X138618284Y-103387547D01*
X138677510Y-103344517D01*
X138844517Y-103177510D01*
X138935986Y-103051613D01*
X138991316Y-103008949D01*
X139036304Y-103000500D01*
X142594874Y-103000500D01*
X142661913Y-103020185D01*
X142707668Y-103072989D01*
X142716436Y-103104949D01*
X142716512Y-103104932D01*
X142717012Y-103107048D01*
X142718164Y-103111247D01*
X142718296Y-103112483D01*
X142768590Y-103247328D01*
X142768594Y-103247335D01*
X142854840Y-103362544D01*
X142854843Y-103362547D01*
X142970052Y-103448793D01*
X142970059Y-103448797D01*
X143104905Y-103499091D01*
X143104904Y-103499091D01*
X143111832Y-103499835D01*
X143164515Y-103505500D01*
X144860260Y-103505499D01*
X144919871Y-103499091D01*
X145054719Y-103448796D01*
X145169934Y-103362546D01*
X145256184Y-103247331D01*
X145306479Y-103112483D01*
X145312888Y-103052873D01*
X145312887Y-103040612D01*
X145316463Y-103026052D01*
X145326730Y-103008380D01*
X145332455Y-102988760D01*
X145343927Y-102978783D01*
X145351565Y-102965640D01*
X145369755Y-102956325D01*
X145385180Y-102942913D01*
X145401668Y-102939984D01*
X145413755Y-102933795D01*
X145428406Y-102935234D01*
X145428642Y-102935192D01*
X146112388Y-102251446D01*
X146112388Y-102257661D01*
X146139647Y-102359394D01*
X146192308Y-102450606D01*
X146266782Y-102525080D01*
X146357994Y-102577741D01*
X146459727Y-102605000D01*
X146465941Y-102605000D01*
X145786464Y-103284474D01*
X145831038Y-103316859D01*
X146013356Y-103409755D01*
X146207970Y-103472990D01*
X146410071Y-103505000D01*
X146614705Y-103505000D01*
X146816805Y-103472990D01*
X147011419Y-103409755D01*
X147193737Y-103316859D01*
X147238309Y-103284474D01*
X146558835Y-102605000D01*
X146565049Y-102605000D01*
X146666782Y-102577741D01*
X146757994Y-102525080D01*
X146832468Y-102450606D01*
X146885129Y-102359394D01*
X146912388Y-102257661D01*
X146912388Y-102251448D01*
X147591862Y-102930922D01*
X147591862Y-102930921D01*
X147624247Y-102886349D01*
X147717143Y-102704031D01*
X147780378Y-102509417D01*
X147812388Y-102307317D01*
X147812388Y-102102682D01*
X147780378Y-101900582D01*
X147717143Y-101705968D01*
X147624247Y-101523650D01*
X147591862Y-101479077D01*
X147591862Y-101479076D01*
X146912388Y-102158551D01*
X146912388Y-102152339D01*
X146885129Y-102050606D01*
X146832468Y-101959394D01*
X146757994Y-101884920D01*
X146666782Y-101832259D01*
X146565049Y-101805000D01*
X146558834Y-101805000D01*
X147238310Y-101125524D01*
X147238309Y-101125523D01*
X147193747Y-101093147D01*
X147193738Y-101093141D01*
X147011419Y-101000244D01*
X146816805Y-100937009D01*
X146614705Y-100905000D01*
X146410071Y-100905000D01*
X146207970Y-100937009D01*
X146013356Y-101000244D01*
X145831032Y-101093143D01*
X145786465Y-101125523D01*
X145786465Y-101125524D01*
X146465942Y-101805000D01*
X146459727Y-101805000D01*
X146357994Y-101832259D01*
X146266782Y-101884920D01*
X146192308Y-101959394D01*
X146139647Y-102050606D01*
X146112388Y-102152339D01*
X146112388Y-102158553D01*
X145427901Y-101474066D01*
X145378237Y-101463633D01*
X145328481Y-101414581D01*
X145316464Y-101383947D01*
X145312887Y-101369378D01*
X145312887Y-101357128D01*
X145306479Y-101297517D01*
X145273600Y-101209365D01*
X145273599Y-101209359D01*
X145256185Y-101162671D01*
X145256181Y-101162664D01*
X145169935Y-101047455D01*
X145169932Y-101047452D01*
X145054723Y-100961206D01*
X145054716Y-100961202D01*
X144919870Y-100910908D01*
X144919871Y-100910908D01*
X144860271Y-100904501D01*
X144860269Y-100904500D01*
X144860261Y-100904500D01*
X144860252Y-100904500D01*
X143164517Y-100904500D01*
X143164511Y-100904501D01*
X143104904Y-100910908D01*
X142970059Y-100961202D01*
X142970052Y-100961206D01*
X142854843Y-101047452D01*
X142854840Y-101047455D01*
X142768594Y-101162664D01*
X142768590Y-101162671D01*
X142718298Y-101297513D01*
X142716763Y-101304011D01*
X142682191Y-101364729D01*
X142620281Y-101397116D01*
X142596085Y-101399500D01*
X139036304Y-101399500D01*
X139031342Y-101398043D01*
X139026280Y-101399094D01*
X138998157Y-101388298D01*
X138969265Y-101379815D01*
X138964576Y-101375408D01*
X138961051Y-101374055D01*
X138937754Y-101350197D01*
X138936333Y-101348861D01*
X138936172Y-101348642D01*
X138844517Y-101222490D01*
X138841064Y-101219037D01*
X138835468Y-101211411D01*
X138826662Y-101187097D01*
X138814273Y-101164408D01*
X138814961Y-101154787D01*
X138811676Y-101145717D01*
X138817412Y-101120505D01*
X138819257Y-101094716D01*
X138825038Y-101086993D01*
X138827178Y-101077589D01*
X138845633Y-101059482D01*
X138861129Y-101038783D01*
X138870334Y-101032516D01*
X138918656Y-101002712D01*
X139042712Y-100878656D01*
X139134814Y-100729334D01*
X139189999Y-100562797D01*
X139200500Y-100460009D01*
X139200499Y-98859992D01*
X139189999Y-98757203D01*
X139134814Y-98590666D01*
X139042712Y-98441344D01*
X138918656Y-98317288D01*
X138769334Y-98225186D01*
X138689906Y-98198866D01*
X138602795Y-98170000D01*
X138598533Y-98169088D01*
X138537102Y-98135801D01*
X138503419Y-98074586D01*
X138500500Y-98047837D01*
X138500500Y-81921155D01*
X138500499Y-81921153D01*
X138469738Y-81766510D01*
X138469737Y-81766503D01*
X138431211Y-81673492D01*
X138409397Y-81620827D01*
X138409390Y-81620814D01*
X138321790Y-81489712D01*
X138316311Y-81484233D01*
X138210289Y-81378211D01*
X133267336Y-76435258D01*
X128110292Y-71278213D01*
X128110288Y-71278210D01*
X127979185Y-71190609D01*
X127979172Y-71190602D01*
X127833501Y-71130264D01*
X127833489Y-71130261D01*
X127678845Y-71099500D01*
X127678842Y-71099500D01*
X106682940Y-71099500D01*
X106615901Y-71079815D01*
X106595259Y-71063181D01*
X105436819Y-69904741D01*
X105403334Y-69843418D01*
X105400500Y-69817060D01*
X105400500Y-61682940D01*
X105420185Y-61615901D01*
X105436819Y-61595259D01*
X107765259Y-59266819D01*
X107826582Y-59233334D01*
X107852940Y-59230500D01*
X108283696Y-59230500D01*
X108350735Y-59250185D01*
X108384013Y-59281613D01*
X108475483Y-59407510D01*
X108642490Y-59574517D01*
X108677127Y-59599683D01*
X108719792Y-59655013D01*
X108725771Y-59724626D01*
X108693165Y-59786421D01*
X108677130Y-59800315D01*
X108659365Y-59813222D01*
X108642488Y-59825484D01*
X108475485Y-59992487D01*
X108475485Y-59992488D01*
X108475483Y-59992490D01*
X108415862Y-60074550D01*
X108336657Y-60183566D01*
X108229433Y-60394003D01*
X108156446Y-60618631D01*
X108119500Y-60851902D01*
X108119500Y-61088097D01*
X108156446Y-61321368D01*
X108229433Y-61545996D01*
X108265052Y-61615901D01*
X108336657Y-61756433D01*
X108475483Y-61947510D01*
X108642490Y-62114517D01*
X108677127Y-62139683D01*
X108719792Y-62195013D01*
X108725771Y-62264626D01*
X108693165Y-62326421D01*
X108677130Y-62340315D01*
X108659365Y-62353222D01*
X108642488Y-62365484D01*
X108475485Y-62532487D01*
X108475485Y-62532488D01*
X108475483Y-62532490D01*
X108415862Y-62614550D01*
X108336657Y-62723566D01*
X108229433Y-62934003D01*
X108156446Y-63158631D01*
X108119500Y-63391902D01*
X108119500Y-63628097D01*
X108156446Y-63861368D01*
X108229433Y-64085996D01*
X108336657Y-64296433D01*
X108475483Y-64487510D01*
X108642490Y-64654517D01*
X108701716Y-64697547D01*
X108744381Y-64752875D01*
X108752448Y-64807593D01*
X108750893Y-64827340D01*
X109482425Y-65558871D01*
X109423147Y-65574755D01*
X109306853Y-65641898D01*
X109211898Y-65736853D01*
X109144755Y-65853147D01*
X109128871Y-65912425D01*
X108397340Y-65180894D01*
X108337084Y-65263830D01*
X108229897Y-65474197D01*
X108156934Y-65698752D01*
X108120000Y-65931947D01*
X108120000Y-66168052D01*
X108156934Y-66401247D01*
X108229897Y-66625802D01*
X108337087Y-66836174D01*
X108427035Y-66959978D01*
X108450515Y-67025784D01*
X108434689Y-67093838D01*
X108385359Y-67141779D01*
X108385454Y-67141953D01*
X108384830Y-67142293D01*
X108384584Y-67142533D01*
X108383511Y-67143013D01*
X108377664Y-67146206D01*
X108262455Y-67232452D01*
X108262452Y-67232455D01*
X108176206Y-67347664D01*
X108176202Y-67347671D01*
X108125908Y-67482517D01*
X108119501Y-67542116D01*
X108119501Y-67542123D01*
X108119500Y-67542135D01*
X108119500Y-69637870D01*
X108119501Y-69637876D01*
X108125908Y-69697483D01*
X108176202Y-69832328D01*
X108176206Y-69832335D01*
X108262452Y-69947544D01*
X108262455Y-69947547D01*
X108377664Y-70033793D01*
X108377671Y-70033797D01*
X108512517Y-70084091D01*
X108512516Y-70084091D01*
X108519444Y-70084835D01*
X108572127Y-70090500D01*
X110667872Y-70090499D01*
X110727483Y-70084091D01*
X110862331Y-70033796D01*
X110977546Y-69947546D01*
X111063796Y-69832331D01*
X111114091Y-69697483D01*
X111120500Y-69637873D01*
X111120500Y-69514500D01*
X111140185Y-69447461D01*
X111192989Y-69401706D01*
X111244500Y-69390500D01*
X112258672Y-69390500D01*
X112282863Y-69392882D01*
X112301459Y-69396581D01*
X112321156Y-69400500D01*
X112321157Y-69400500D01*
X112478844Y-69400500D01*
X112478845Y-69400499D01*
X112633497Y-69369737D01*
X112779179Y-69309394D01*
X112910289Y-69221789D01*
X118395259Y-63736819D01*
X118456582Y-63703334D01*
X118482940Y-63700500D01*
X125417060Y-63700500D01*
X125484099Y-63720185D01*
X125504741Y-63736819D01*
X148363181Y-86595259D01*
X148396666Y-86656582D01*
X148399500Y-86682940D01*
X148399500Y-116917060D01*
X148379815Y-116984099D01*
X148363181Y-117004741D01*
X144204741Y-121163181D01*
X144143418Y-121196666D01*
X144117060Y-121199500D01*
X108982940Y-121199500D01*
X108915901Y-121179815D01*
X108895259Y-121163181D01*
X106840219Y-119108141D01*
X106825515Y-119081213D01*
X106808923Y-119055395D01*
X106808031Y-119049194D01*
X106806734Y-119046818D01*
X106803900Y-119020460D01*
X106803900Y-119003943D01*
X106823585Y-118936904D01*
X106855015Y-118903625D01*
X106974392Y-118816893D01*
X106974392Y-118816892D01*
X106974396Y-118816890D01*
X107140290Y-118650996D01*
X107166902Y-118614367D01*
X107222230Y-118571701D01*
X107291844Y-118565721D01*
X107353639Y-118598326D01*
X107367535Y-118614364D01*
X107372395Y-118621052D01*
X107398880Y-118657506D01*
X107398885Y-118657513D01*
X107685891Y-118944519D01*
X107685896Y-118944523D01*
X107822531Y-119043793D01*
X107876967Y-119083343D01*
X108005281Y-119148722D01*
X108087403Y-119190566D01*
X108087405Y-119190566D01*
X108087408Y-119190568D01*
X108207812Y-119229689D01*
X108312031Y-119263553D01*
X108545303Y-119300500D01*
X108545308Y-119300500D01*
X112718097Y-119300500D01*
X112951368Y-119263553D01*
X113175992Y-119190568D01*
X113326237Y-119114013D01*
X113382532Y-119100499D01*
X113447871Y-119100499D01*
X113447872Y-119100499D01*
X113507483Y-119094091D01*
X113642331Y-119043796D01*
X113757546Y-118957546D01*
X113843796Y-118842331D01*
X113894091Y-118707483D01*
X113900500Y-118647873D01*
X113900499Y-118635613D01*
X113904075Y-118621052D01*
X113914343Y-118603380D01*
X113920067Y-118583760D01*
X113931540Y-118573783D01*
X113939177Y-118560640D01*
X113957365Y-118551326D01*
X113972791Y-118537913D01*
X113989280Y-118534984D01*
X114001367Y-118528795D01*
X114016018Y-118530234D01*
X114016254Y-118530192D01*
X114700000Y-117846446D01*
X114700000Y-117852661D01*
X114727259Y-117954394D01*
X114779920Y-118045606D01*
X114854394Y-118120080D01*
X114945606Y-118172741D01*
X115047339Y-118200000D01*
X115053553Y-118200000D01*
X114374076Y-118879474D01*
X114418650Y-118911859D01*
X114600968Y-119004755D01*
X114795582Y-119067990D01*
X114997683Y-119100000D01*
X115202317Y-119100000D01*
X115404417Y-119067990D01*
X115599031Y-119004755D01*
X115781349Y-118911859D01*
X115825921Y-118879474D01*
X115146447Y-118200000D01*
X115152661Y-118200000D01*
X115254394Y-118172741D01*
X115345606Y-118120080D01*
X115420080Y-118045606D01*
X115472741Y-117954394D01*
X115500000Y-117852661D01*
X115500000Y-117846447D01*
X116179474Y-118525921D01*
X116211859Y-118481349D01*
X116304755Y-118299031D01*
X116367990Y-118104417D01*
X116400000Y-117902317D01*
X116400000Y-117697682D01*
X116367990Y-117495582D01*
X116304755Y-117300968D01*
X116211859Y-117118650D01*
X116179474Y-117074077D01*
X116179474Y-117074076D01*
X115500000Y-117753551D01*
X115500000Y-117747339D01*
X115472741Y-117645606D01*
X115420080Y-117554394D01*
X115345606Y-117479920D01*
X115254394Y-117427259D01*
X115152661Y-117400000D01*
X115146446Y-117400000D01*
X115825921Y-116720525D01*
X115825921Y-116720522D01*
X115781359Y-116688147D01*
X115781350Y-116688141D01*
X115599031Y-116595244D01*
X115404417Y-116532009D01*
X115202317Y-116500000D01*
X114997683Y-116500000D01*
X114795582Y-116532009D01*
X114600968Y-116595244D01*
X114418644Y-116688143D01*
X114374077Y-116720523D01*
X114374077Y-116720524D01*
X115053554Y-117400000D01*
X115047339Y-117400000D01*
X114945606Y-117427259D01*
X114854394Y-117479920D01*
X114779920Y-117554394D01*
X114727259Y-117645606D01*
X114700000Y-117747339D01*
X114700000Y-117753553D01*
X114015513Y-117069066D01*
X113965849Y-117058633D01*
X113916093Y-117009581D01*
X113904076Y-116978947D01*
X113900499Y-116964377D01*
X113900499Y-116952128D01*
X113894091Y-116892517D01*
X113861212Y-116804365D01*
X113861211Y-116804359D01*
X113843797Y-116757671D01*
X113843793Y-116757664D01*
X113757547Y-116642455D01*
X113757544Y-116642452D01*
X113642335Y-116556206D01*
X113642328Y-116556202D01*
X113507482Y-116505908D01*
X113507483Y-116505908D01*
X113447883Y-116499501D01*
X113447881Y-116499500D01*
X113447873Y-116499500D01*
X113447865Y-116499500D01*
X113382530Y-116499500D01*
X113326235Y-116485985D01*
X113312632Y-116479054D01*
X113284065Y-116464498D01*
X113175996Y-116409433D01*
X112951368Y-116336446D01*
X112718097Y-116299500D01*
X112718092Y-116299500D01*
X110167900Y-116299500D01*
X110100861Y-116279815D01*
X110055106Y-116227011D01*
X110043900Y-116175500D01*
X110043900Y-108125302D01*
X110006953Y-107892031D01*
X109955516Y-107733727D01*
X109933968Y-107667408D01*
X109933966Y-107667405D01*
X109933966Y-107667403D01*
X109826741Y-107456964D01*
X109826740Y-107456962D01*
X109816109Y-107442330D01*
X109816108Y-107442329D01*
X109687923Y-107265895D01*
X106934209Y-104512181D01*
X106900724Y-104450858D01*
X106905708Y-104381166D01*
X106947580Y-104325233D01*
X107013044Y-104300816D01*
X107021890Y-104300500D01*
X115975500Y-104300500D01*
X116042539Y-104320185D01*
X116088294Y-104372989D01*
X116099500Y-104424500D01*
X116099500Y-105327110D01*
X116079815Y-105394149D01*
X116063181Y-105414791D01*
X114512576Y-106965395D01*
X114451253Y-106998880D01*
X114438151Y-107001003D01*
X114431381Y-107001731D01*
X114392516Y-107005908D01*
X114257671Y-107056202D01*
X114257664Y-107056206D01*
X114142455Y-107142452D01*
X114142452Y-107142455D01*
X114056206Y-107257664D01*
X114056202Y-107257671D01*
X114005908Y-107392517D01*
X113999501Y-107452116D01*
X113999500Y-107452135D01*
X113999500Y-107517468D01*
X113985985Y-107573762D01*
X113985825Y-107574077D01*
X113909434Y-107724003D01*
X113909433Y-107724005D01*
X113909432Y-107724008D01*
X113895836Y-107765852D01*
X113836446Y-107948631D01*
X113799500Y-108181902D01*
X113799500Y-108418097D01*
X113836447Y-108651369D01*
X113836447Y-108651372D01*
X113909430Y-108875988D01*
X113909430Y-108875989D01*
X113985985Y-109026238D01*
X113999500Y-109082530D01*
X113999500Y-109147869D01*
X113999501Y-109147876D01*
X114005908Y-109207483D01*
X114056202Y-109342328D01*
X114056206Y-109342335D01*
X114142452Y-109457544D01*
X114142455Y-109457547D01*
X114257664Y-109543793D01*
X114257671Y-109543797D01*
X114392516Y-109594091D01*
X114452113Y-109600499D01*
X114452122Y-109600499D01*
X114452127Y-109600500D01*
X114452131Y-109600499D01*
X114455434Y-109600677D01*
X114455424Y-109600855D01*
X114455431Y-109600856D01*
X114455417Y-109600977D01*
X114455346Y-109602302D01*
X114516237Y-109620067D01*
X114562084Y-109672791D01*
X114569804Y-109716251D01*
X115253554Y-110400000D01*
X115247339Y-110400000D01*
X115145606Y-110427259D01*
X115054394Y-110479920D01*
X114979920Y-110554394D01*
X114927259Y-110645606D01*
X114900000Y-110747339D01*
X114900000Y-110753553D01*
X114220524Y-110074077D01*
X114220523Y-110074077D01*
X114188143Y-110118644D01*
X114095244Y-110300968D01*
X114032009Y-110495582D01*
X114000000Y-110697682D01*
X114000000Y-110902317D01*
X114032009Y-111104417D01*
X114095244Y-111299031D01*
X114188141Y-111481350D01*
X114188147Y-111481359D01*
X114220523Y-111525921D01*
X114220524Y-111525922D01*
X114900000Y-110846446D01*
X114900000Y-110852661D01*
X114927259Y-110954394D01*
X114979920Y-111045606D01*
X115054394Y-111120080D01*
X115145606Y-111172741D01*
X115247339Y-111200000D01*
X115253553Y-111200000D01*
X114574076Y-111879474D01*
X114618650Y-111911859D01*
X114800968Y-112004755D01*
X114995582Y-112067990D01*
X115197683Y-112100000D01*
X115402317Y-112100000D01*
X115604417Y-112067990D01*
X115799031Y-112004755D01*
X115981349Y-111911859D01*
X116025921Y-111879474D01*
X115346447Y-111200000D01*
X115352661Y-111200000D01*
X115454394Y-111172741D01*
X115545606Y-111120080D01*
X115620080Y-111045606D01*
X115672741Y-110954394D01*
X115700000Y-110852661D01*
X115700000Y-110846448D01*
X116379474Y-111525922D01*
X116379474Y-111525921D01*
X116411859Y-111481349D01*
X116504755Y-111299031D01*
X116567990Y-111104417D01*
X116600000Y-110902317D01*
X116600000Y-110697682D01*
X116567990Y-110495582D01*
X116504755Y-110300968D01*
X116411859Y-110118650D01*
X116379474Y-110074077D01*
X116379474Y-110074076D01*
X115700000Y-110753551D01*
X115700000Y-110747339D01*
X115672741Y-110645606D01*
X115620080Y-110554394D01*
X115545606Y-110479920D01*
X115454394Y-110427259D01*
X115352661Y-110400000D01*
X115346446Y-110400000D01*
X115901913Y-109844534D01*
X116030931Y-109715515D01*
X116041364Y-109665852D01*
X116090415Y-109616094D01*
X116144637Y-109602048D01*
X116144576Y-109600900D01*
X116144571Y-109600854D01*
X116144573Y-109600853D01*
X116144564Y-109600676D01*
X116147857Y-109600499D01*
X116147872Y-109600499D01*
X116207483Y-109594091D01*
X116342331Y-109543796D01*
X116457546Y-109457546D01*
X116543796Y-109342331D01*
X116594091Y-109207483D01*
X116598998Y-109161845D01*
X116625736Y-109097294D01*
X116634597Y-109087428D01*
X118744517Y-106977510D01*
X118883343Y-106786434D01*
X118990568Y-106575992D01*
X119063553Y-106351369D01*
X119084064Y-106221865D01*
X119100500Y-106118097D01*
X119100500Y-102879336D01*
X119120185Y-102812297D01*
X119172989Y-102766542D01*
X119242147Y-102756598D01*
X119297385Y-102779018D01*
X119387410Y-102844424D01*
X119591471Y-102948399D01*
X119809290Y-103019173D01*
X119809289Y-103019173D01*
X120035490Y-103055000D01*
X120264510Y-103055000D01*
X120490709Y-103019173D01*
X120708528Y-102948399D01*
X120912578Y-102844430D01*
X120912584Y-102844426D01*
X120986888Y-102790441D01*
X120986889Y-102790441D01*
X120386007Y-102189560D01*
X120450785Y-102162729D01*
X120554789Y-102093236D01*
X120643236Y-102004789D01*
X120712729Y-101900785D01*
X120739560Y-101836008D01*
X121340441Y-102436889D01*
X121354487Y-102435783D01*
X121379700Y-102416341D01*
X121449314Y-102410361D01*
X121511109Y-102442967D01*
X121525005Y-102459002D01*
X121571256Y-102522661D01*
X121589807Y-102548195D01*
X121751808Y-102710196D01*
X121815676Y-102756598D01*
X121840202Y-102774417D01*
X121848384Y-102780361D01*
X121891051Y-102835691D01*
X121899500Y-102880680D01*
X121899500Y-104983023D01*
X121879815Y-105050062D01*
X121827011Y-105095817D01*
X121799865Y-105103266D01*
X121800068Y-105104124D01*
X121792520Y-105105907D01*
X121657671Y-105156202D01*
X121657664Y-105156206D01*
X121542455Y-105242452D01*
X121542452Y-105242455D01*
X121456206Y-105357664D01*
X121456202Y-105357671D01*
X121405908Y-105492517D01*
X121402290Y-105526174D01*
X121399501Y-105552123D01*
X121399500Y-105552135D01*
X121399500Y-107247870D01*
X121399501Y-107247876D01*
X121405908Y-107307483D01*
X121456202Y-107442328D01*
X121456206Y-107442335D01*
X121542452Y-107557544D01*
X121542455Y-107557547D01*
X121657664Y-107643793D01*
X121657671Y-107643797D01*
X121702618Y-107660561D01*
X121792517Y-107694091D01*
X121852127Y-107700500D01*
X121852153Y-107700499D01*
X121855453Y-107700678D01*
X121855365Y-107702308D01*
X121916238Y-107720067D01*
X121962084Y-107772791D01*
X121969804Y-107816251D01*
X122653554Y-108500000D01*
X122647339Y-108500000D01*
X122545606Y-108527259D01*
X122454394Y-108579920D01*
X122379920Y-108654394D01*
X122327259Y-108745606D01*
X122300000Y-108847339D01*
X122300000Y-108853553D01*
X121620524Y-108174077D01*
X121620523Y-108174077D01*
X121588143Y-108218644D01*
X121495244Y-108400968D01*
X121432009Y-108595582D01*
X121400000Y-108797682D01*
X121400000Y-109002317D01*
X121432009Y-109204417D01*
X121495244Y-109399031D01*
X121588141Y-109581350D01*
X121588147Y-109581359D01*
X121620523Y-109625921D01*
X121620524Y-109625922D01*
X122300000Y-108946446D01*
X122300000Y-108952661D01*
X122327259Y-109054394D01*
X122379920Y-109145606D01*
X122454394Y-109220080D01*
X122545606Y-109272741D01*
X122647339Y-109300000D01*
X122653553Y-109300000D01*
X121974076Y-109979474D01*
X122018650Y-110011859D01*
X122200968Y-110104755D01*
X122395582Y-110167990D01*
X122597683Y-110200000D01*
X122802317Y-110200000D01*
X123004417Y-110167990D01*
X123199031Y-110104755D01*
X123381349Y-110011859D01*
X123425921Y-109979474D01*
X122746447Y-109300000D01*
X122752661Y-109300000D01*
X122854394Y-109272741D01*
X122945606Y-109220080D01*
X123020080Y-109145606D01*
X123072741Y-109054394D01*
X123100000Y-108952661D01*
X123100000Y-108946447D01*
X123779474Y-109625921D01*
X123811859Y-109581349D01*
X123904755Y-109399031D01*
X123967990Y-109204417D01*
X124000000Y-109002317D01*
X124000000Y-108797682D01*
X123967990Y-108595582D01*
X123904755Y-108400968D01*
X123811859Y-108218650D01*
X123779474Y-108174077D01*
X123779474Y-108174076D01*
X123100000Y-108853551D01*
X123100000Y-108847339D01*
X123072741Y-108745606D01*
X123020080Y-108654394D01*
X122945606Y-108579920D01*
X122854394Y-108527259D01*
X122752661Y-108500000D01*
X122746446Y-108500000D01*
X123430931Y-107815515D01*
X123441364Y-107765852D01*
X123490415Y-107716094D01*
X123544637Y-107702048D01*
X123544576Y-107700900D01*
X123544571Y-107700854D01*
X123544573Y-107700853D01*
X123544564Y-107700676D01*
X123547857Y-107700499D01*
X123547872Y-107700499D01*
X123607483Y-107694091D01*
X123742331Y-107643796D01*
X123857546Y-107557546D01*
X123943796Y-107442331D01*
X123994091Y-107307483D01*
X124000500Y-107247873D01*
X124000499Y-105552128D01*
X123994091Y-105492517D01*
X123956513Y-105391766D01*
X123943797Y-105357671D01*
X123943793Y-105357664D01*
X123857547Y-105242455D01*
X123857544Y-105242452D01*
X123742335Y-105156206D01*
X123742328Y-105156202D01*
X123607482Y-105105908D01*
X123599938Y-105104126D01*
X123600474Y-105101853D01*
X123546688Y-105079571D01*
X123506843Y-105022177D01*
X123500500Y-104983024D01*
X123500500Y-103831940D01*
X123520185Y-103764901D01*
X123572989Y-103719146D01*
X123642147Y-103709202D01*
X123705703Y-103738227D01*
X123712181Y-103744259D01*
X126463181Y-106495259D01*
X126496666Y-106556582D01*
X126499500Y-106582940D01*
X126499500Y-110917060D01*
X126479815Y-110984099D01*
X126463181Y-111004741D01*
X125109853Y-112358069D01*
X125048530Y-112391554D01*
X125022172Y-112394388D01*
X124116977Y-112394388D01*
X124049938Y-112374703D01*
X124004183Y-112321899D01*
X123996733Y-112294753D01*
X123995876Y-112294956D01*
X123994092Y-112287408D01*
X123943797Y-112152559D01*
X123943793Y-112152552D01*
X123857547Y-112037343D01*
X123857544Y-112037340D01*
X123742335Y-111951094D01*
X123742328Y-111951090D01*
X123607482Y-111900796D01*
X123607483Y-111900796D01*
X123547883Y-111894389D01*
X123547881Y-111894388D01*
X123547873Y-111894388D01*
X123547864Y-111894388D01*
X121852129Y-111894388D01*
X121852123Y-111894389D01*
X121792516Y-111900796D01*
X121657671Y-111951090D01*
X121657664Y-111951094D01*
X121542455Y-112037340D01*
X121542452Y-112037343D01*
X121456206Y-112152552D01*
X121456202Y-112152559D01*
X121405908Y-112287405D01*
X121399501Y-112347004D01*
X121399500Y-112347023D01*
X121399500Y-114042758D01*
X121399501Y-114042764D01*
X121405908Y-114102371D01*
X121456202Y-114237216D01*
X121456206Y-114237223D01*
X121542452Y-114352432D01*
X121542455Y-114352435D01*
X121657664Y-114438681D01*
X121657671Y-114438685D01*
X121702618Y-114455449D01*
X121792517Y-114488979D01*
X121852127Y-114495388D01*
X121852153Y-114495387D01*
X121855453Y-114495566D01*
X121855365Y-114497196D01*
X121916238Y-114514955D01*
X121962084Y-114567679D01*
X121969804Y-114611139D01*
X122653554Y-115294888D01*
X122647339Y-115294888D01*
X122545606Y-115322147D01*
X122454394Y-115374808D01*
X122379920Y-115449282D01*
X122327259Y-115540494D01*
X122300000Y-115642227D01*
X122300000Y-115648441D01*
X121620524Y-114968965D01*
X121620523Y-114968965D01*
X121588143Y-115013532D01*
X121495244Y-115195856D01*
X121432009Y-115390470D01*
X121400000Y-115592570D01*
X121400000Y-115797205D01*
X121432009Y-115999305D01*
X121495244Y-116193919D01*
X121588141Y-116376238D01*
X121588147Y-116376247D01*
X121620523Y-116420809D01*
X121620524Y-116420810D01*
X122300000Y-115741334D01*
X122300000Y-115747549D01*
X122327259Y-115849282D01*
X122379920Y-115940494D01*
X122454394Y-116014968D01*
X122545606Y-116067629D01*
X122647339Y-116094888D01*
X122653553Y-116094888D01*
X121974076Y-116774362D01*
X122018650Y-116806747D01*
X122200968Y-116899643D01*
X122395582Y-116962878D01*
X122597683Y-116994888D01*
X122802317Y-116994888D01*
X123004417Y-116962878D01*
X123199031Y-116899643D01*
X123381349Y-116806747D01*
X123425921Y-116774362D01*
X122746447Y-116094888D01*
X122752661Y-116094888D01*
X122854394Y-116067629D01*
X122945606Y-116014968D01*
X123020080Y-115940494D01*
X123072741Y-115849282D01*
X123100000Y-115747549D01*
X123100000Y-115741335D01*
X123779474Y-116420809D01*
X123811859Y-116376237D01*
X123904755Y-116193919D01*
X123967990Y-115999305D01*
X124000000Y-115797205D01*
X124000000Y-115592570D01*
X123967990Y-115390470D01*
X123904755Y-115195856D01*
X123811859Y-115013538D01*
X123779474Y-114968965D01*
X123779474Y-114968964D01*
X123100000Y-115648439D01*
X123100000Y-115642227D01*
X123072741Y-115540494D01*
X123020080Y-115449282D01*
X122945606Y-115374808D01*
X122854394Y-115322147D01*
X122752661Y-115294888D01*
X122746446Y-115294888D01*
X123430931Y-114610403D01*
X123441364Y-114560740D01*
X123490415Y-114510982D01*
X123544637Y-114496936D01*
X123544576Y-114495788D01*
X123544571Y-114495742D01*
X123544573Y-114495741D01*
X123544564Y-114495564D01*
X123547857Y-114495387D01*
X123547872Y-114495387D01*
X123607483Y-114488979D01*
X123742331Y-114438684D01*
X123857546Y-114352434D01*
X123943796Y-114237219D01*
X123994091Y-114102371D01*
X123994091Y-114102369D01*
X123995874Y-114094826D01*
X123998146Y-114095362D01*
X124020429Y-114041576D01*
X124077823Y-114001731D01*
X124116976Y-113995388D01*
X125483956Y-113995388D01*
X125483957Y-113995387D01*
X125638609Y-113964625D01*
X125784291Y-113904282D01*
X125915401Y-113816677D01*
X127810286Y-111921790D01*
X127810289Y-111921789D01*
X127921789Y-111810289D01*
X128009394Y-111679179D01*
X128069737Y-111533497D01*
X128100500Y-111378842D01*
X128100500Y-106121158D01*
X128088357Y-106060108D01*
X128069737Y-105966502D01*
X128063960Y-105952557D01*
X128041912Y-105899327D01*
X128040324Y-105895495D01*
X128040311Y-105895463D01*
X128009394Y-105820821D01*
X127921789Y-105689711D01*
X127810289Y-105578211D01*
X124837475Y-102605397D01*
X124803990Y-102544074D01*
X124808974Y-102474382D01*
X124850846Y-102418449D01*
X124900959Y-102396100D01*
X125033497Y-102369737D01*
X125179179Y-102309394D01*
X125310289Y-102221789D01*
X129221789Y-98310289D01*
X129309394Y-98179179D01*
X129369738Y-98033497D01*
X129400500Y-97878842D01*
X129400500Y-97721157D01*
X129400500Y-78621158D01*
X129400500Y-78621155D01*
X129400499Y-78621153D01*
X129369738Y-78466510D01*
X129369737Y-78466503D01*
X129347334Y-78412416D01*
X129309397Y-78320827D01*
X129309390Y-78320814D01*
X129221790Y-78189712D01*
X129221789Y-78189711D01*
X129110289Y-78078211D01*
X126951556Y-75919478D01*
X124610292Y-73578213D01*
X124610288Y-73578210D01*
X124479185Y-73490609D01*
X124479172Y-73490602D01*
X124333501Y-73430264D01*
X124333489Y-73430261D01*
X124178845Y-73399500D01*
X124178842Y-73399500D01*
X97095440Y-73399500D01*
X97028401Y-73379815D01*
X97007759Y-73363181D01*
X91612792Y-67968213D01*
X91612788Y-67968210D01*
X91481685Y-67880609D01*
X91481672Y-67880602D01*
X91336001Y-67820264D01*
X91335989Y-67820261D01*
X91181345Y-67789500D01*
X91181342Y-67789500D01*
X85556304Y-67789500D01*
X85489265Y-67769815D01*
X85455986Y-67738386D01*
X85440456Y-67717011D01*
X85364517Y-67612490D01*
X85197510Y-67445483D01*
X85138282Y-67402451D01*
X85095617Y-67347122D01*
X85087550Y-67292404D01*
X85089104Y-67272657D01*
X84357574Y-66541128D01*
X84416853Y-66525245D01*
X84533147Y-66458102D01*
X84628102Y-66363147D01*
X84695245Y-66246853D01*
X84711128Y-66187574D01*
X85442658Y-66919105D01*
X85442658Y-66919104D01*
X85502914Y-66836169D01*
X85502918Y-66836163D01*
X85610102Y-66625802D01*
X85683065Y-66401247D01*
X85720000Y-66168052D01*
X85720000Y-65931947D01*
X85683065Y-65698752D01*
X85610102Y-65474197D01*
X85502914Y-65263828D01*
X85442658Y-65180894D01*
X85442658Y-65180893D01*
X84711128Y-65912424D01*
X84695245Y-65853147D01*
X84628102Y-65736853D01*
X84533147Y-65641898D01*
X84416853Y-65574755D01*
X84357574Y-65558871D01*
X85089105Y-64827340D01*
X85087551Y-64807594D01*
X85101915Y-64739216D01*
X85138284Y-64697547D01*
X85197510Y-64654517D01*
X85364517Y-64487510D01*
X85503343Y-64296433D01*
X85610568Y-64085992D01*
X85683553Y-63861368D01*
X85720500Y-63628097D01*
X85720500Y-63391902D01*
X85683553Y-63158631D01*
X85615902Y-62950424D01*
X85610568Y-62934008D01*
X85610566Y-62934005D01*
X85610566Y-62934003D01*
X85544703Y-62804741D01*
X85503343Y-62723567D01*
X85364517Y-62532490D01*
X85197510Y-62365483D01*
X85162872Y-62340317D01*
X85120207Y-62284989D01*
X85114228Y-62215375D01*
X85146833Y-62153580D01*
X85162873Y-62139682D01*
X85197510Y-62114517D01*
X85364517Y-61947510D01*
X85503343Y-61756433D01*
X85610568Y-61545992D01*
X85683553Y-61321368D01*
X85699425Y-61221158D01*
X85720500Y-61088097D01*
X85720500Y-60851902D01*
X85683553Y-60618631D01*
X85610566Y-60394003D01*
X85503342Y-60183566D01*
X85364517Y-59992490D01*
X85197510Y-59825483D01*
X85162872Y-59800317D01*
X85120207Y-59744989D01*
X85114228Y-59675375D01*
X85146833Y-59613580D01*
X85162873Y-59599682D01*
X85197510Y-59574517D01*
X85364517Y-59407510D01*
X85503343Y-59216433D01*
X85610568Y-59005992D01*
X85683553Y-58781368D01*
X85720500Y-58548097D01*
X85720500Y-58311902D01*
X85683553Y-58078631D01*
X85610566Y-57854003D01*
X85542023Y-57719481D01*
X85503343Y-57643567D01*
X85364517Y-57452490D01*
X85197510Y-57285483D01*
X85162872Y-57260317D01*
X85120207Y-57204989D01*
X85114228Y-57135375D01*
X85146833Y-57073580D01*
X85162873Y-57059682D01*
X85197510Y-57034517D01*
X85364517Y-56867510D01*
X85503343Y-56676433D01*
X85610568Y-56465992D01*
X85683553Y-56241368D01*
X85720500Y-56008097D01*
X85720500Y-55771902D01*
X85683553Y-55538631D01*
X85610566Y-55314003D01*
X85554002Y-55202991D01*
X85503343Y-55103567D01*
X85364517Y-54912490D01*
X85197510Y-54745483D01*
X85162872Y-54720317D01*
X85120207Y-54664989D01*
X85114228Y-54595375D01*
X85146833Y-54533580D01*
X85162873Y-54519682D01*
X85197510Y-54494517D01*
X85364517Y-54327510D01*
X85503343Y-54136433D01*
X85610568Y-53925992D01*
X85683553Y-53701368D01*
X85693524Y-53638412D01*
X85720500Y-53468097D01*
X85720500Y-53231902D01*
X85683553Y-52998631D01*
X85610566Y-52774003D01*
X85554002Y-52662991D01*
X85503343Y-52563567D01*
X85364517Y-52372490D01*
X85197510Y-52205483D01*
X85162872Y-52180317D01*
X85120207Y-52124989D01*
X85114228Y-52055375D01*
X85146833Y-51993580D01*
X85162873Y-51979682D01*
X85197510Y-51954517D01*
X85364517Y-51787510D01*
X85503343Y-51596433D01*
X85610568Y-51385992D01*
X85683553Y-51161368D01*
X85697551Y-51072989D01*
X85720500Y-50928097D01*
X85720500Y-50691902D01*
X85683553Y-50458631D01*
X85610566Y-50234003D01*
X85554002Y-50122991D01*
X85503343Y-50023567D01*
X85364517Y-49832490D01*
X85197510Y-49665483D01*
X85162872Y-49640317D01*
X85120207Y-49584989D01*
X85114228Y-49515375D01*
X85146833Y-49453580D01*
X85162873Y-49439682D01*
X85197510Y-49414517D01*
X85364517Y-49247510D01*
X85503343Y-49056433D01*
X85610568Y-48845992D01*
X85683553Y-48621368D01*
X85693524Y-48558412D01*
X85720500Y-48388097D01*
X85720500Y-48151902D01*
X85683553Y-47918631D01*
X85610566Y-47694003D01*
X85549109Y-47573387D01*
X85503343Y-47483567D01*
X85364517Y-47292490D01*
X85197510Y-47125483D01*
X85162872Y-47100317D01*
X85120207Y-47044989D01*
X85114228Y-46975375D01*
X85146833Y-46913580D01*
X85162873Y-46899682D01*
X85197510Y-46874517D01*
X85364517Y-46707510D01*
X85503343Y-46516433D01*
X85610568Y-46305992D01*
X85683553Y-46081368D01*
X85693524Y-46018412D01*
X85720500Y-45848097D01*
X85720500Y-45611902D01*
X85683553Y-45378631D01*
X85610566Y-45154003D01*
X85542023Y-45019481D01*
X85503343Y-44943567D01*
X85364517Y-44752490D01*
X85197510Y-44585483D01*
X85162872Y-44560317D01*
X85120207Y-44504989D01*
X85114228Y-44435375D01*
X85146833Y-44373580D01*
X85162873Y-44359682D01*
X85197510Y-44334517D01*
X85364517Y-44167510D01*
X85503343Y-43976433D01*
X85610568Y-43765992D01*
X85683553Y-43541368D01*
X85703450Y-43415743D01*
X85720500Y-43308097D01*
X85720500Y-43071902D01*
X85683553Y-42838631D01*
X85610566Y-42614003D01*
X85554002Y-42502991D01*
X85503343Y-42403567D01*
X85364517Y-42212490D01*
X85197510Y-42045483D01*
X85162872Y-42020317D01*
X85120207Y-41964989D01*
X85114228Y-41895375D01*
X85146833Y-41833580D01*
X85162873Y-41819682D01*
X85197510Y-41794517D01*
X85364517Y-41627510D01*
X85503343Y-41436433D01*
X85610568Y-41225992D01*
X85683553Y-41001368D01*
X85720500Y-40768097D01*
X85720500Y-40531902D01*
X85683553Y-40298631D01*
X85610566Y-40074003D01*
X85543261Y-39941910D01*
X85503343Y-39863567D01*
X85364517Y-39672490D01*
X85197510Y-39505483D01*
X85162872Y-39480317D01*
X85120207Y-39424989D01*
X85114228Y-39355375D01*
X85146833Y-39293580D01*
X85162873Y-39279682D01*
X85197510Y-39254517D01*
X85364517Y-39087510D01*
X85503343Y-38896433D01*
X85610568Y-38685992D01*
X85683553Y-38461368D01*
X85693524Y-38398412D01*
X85720500Y-38228097D01*
X85720500Y-37991902D01*
X85683553Y-37758631D01*
X85610566Y-37534003D01*
X85554002Y-37422991D01*
X85503343Y-37323567D01*
X85364517Y-37132490D01*
X85197510Y-36965483D01*
X85162872Y-36940317D01*
X85120207Y-36884989D01*
X85114228Y-36815375D01*
X85146833Y-36753580D01*
X85162873Y-36739682D01*
X85197510Y-36714517D01*
X85364517Y-36547510D01*
X85503343Y-36356433D01*
X85610568Y-36145992D01*
X85683553Y-35921368D01*
X85693555Y-35858217D01*
X85720500Y-35688097D01*
X85720500Y-35451902D01*
X85683553Y-35218631D01*
X85623235Y-35032993D01*
X85610568Y-34994008D01*
X85610566Y-34994005D01*
X85610566Y-34994003D01*
X85532097Y-34840000D01*
X85503343Y-34783567D01*
X85364517Y-34592490D01*
X85197510Y-34425483D01*
X85162872Y-34400317D01*
X85120207Y-34344989D01*
X85114228Y-34275375D01*
X85146833Y-34213580D01*
X85162873Y-34199682D01*
X85197510Y-34174517D01*
X85364517Y-34007510D01*
X85503343Y-33816433D01*
X85610568Y-33605992D01*
X85683553Y-33381368D01*
X85720500Y-33148097D01*
X85720500Y-32911902D01*
X85683553Y-32678631D01*
X85610566Y-32454003D01*
X85503342Y-32243566D01*
X85455860Y-32178213D01*
X85364517Y-32052490D01*
X85197510Y-31885483D01*
X85006433Y-31746657D01*
X84929915Y-31707669D01*
X84795996Y-31639433D01*
X84651338Y-31592431D01*
X84593663Y-31552993D01*
X84566465Y-31488634D01*
X84578380Y-31419788D01*
X84625624Y-31368312D01*
X84689657Y-31350500D01*
X84804727Y-31350500D01*
X84804734Y-31350500D01*
X85032238Y-31320548D01*
X85253887Y-31261158D01*
X85465888Y-31173344D01*
X85664612Y-31058611D01*
X85846661Y-30918919D01*
X85846665Y-30918914D01*
X85846670Y-30918911D01*
X86008910Y-30756670D01*
X86008919Y-30756661D01*
X86070126Y-30676893D01*
X86126552Y-30635694D01*
X86196298Y-30631539D01*
X86257219Y-30665752D01*
X86289971Y-30727469D01*
X86292500Y-30752383D01*
X86292500Y-41775000D01*
X107592500Y-41775000D01*
X107592500Y-30745867D01*
X107612185Y-30678828D01*
X107664989Y-30633073D01*
X107734147Y-30623129D01*
X107797703Y-30652154D01*
G37*
%TD.AperFunction*%
%TA.AperFunction,Conductor*%
G36*
X82832971Y-64130185D02*
G01*
X82876416Y-64178203D01*
X82936657Y-64296433D01*
X83075483Y-64487510D01*
X83242490Y-64654517D01*
X83301716Y-64697547D01*
X83344381Y-64752875D01*
X83352448Y-64807593D01*
X83350893Y-64827340D01*
X84082425Y-65558871D01*
X84023147Y-65574755D01*
X83906853Y-65641898D01*
X83811898Y-65736853D01*
X83744755Y-65853147D01*
X83728871Y-65912425D01*
X82997340Y-65180894D01*
X82937084Y-65263830D01*
X82829897Y-65474197D01*
X82756934Y-65698752D01*
X82720000Y-65931947D01*
X82720000Y-66168052D01*
X82756934Y-66401247D01*
X82829897Y-66625802D01*
X82937087Y-66836174D01*
X82997338Y-66919104D01*
X82997340Y-66919105D01*
X83728871Y-66187574D01*
X83744755Y-66246853D01*
X83811898Y-66363147D01*
X83906853Y-66458102D01*
X84023147Y-66525245D01*
X84082425Y-66541128D01*
X83350893Y-67272658D01*
X83352448Y-67292405D01*
X83338084Y-67360783D01*
X83301717Y-67402451D01*
X83242490Y-67445482D01*
X83075485Y-67612487D01*
X83075485Y-67612488D01*
X83075483Y-67612490D01*
X83036969Y-67665500D01*
X82936657Y-67803566D01*
X82829433Y-68014003D01*
X82756446Y-68238631D01*
X82719500Y-68471902D01*
X82719500Y-68708097D01*
X82756446Y-68941368D01*
X82829433Y-69165996D01*
X82902497Y-69309390D01*
X82936657Y-69376433D01*
X83075483Y-69567510D01*
X83242490Y-69734517D01*
X83433567Y-69873343D01*
X83495189Y-69904741D01*
X83644003Y-69980566D01*
X83644005Y-69980566D01*
X83644008Y-69980568D01*
X83764412Y-70019689D01*
X83868631Y-70053553D01*
X84101903Y-70090500D01*
X84101908Y-70090500D01*
X84338097Y-70090500D01*
X84571368Y-70053553D01*
X84795992Y-69980568D01*
X85006433Y-69873343D01*
X85197510Y-69734517D01*
X85364517Y-69567510D01*
X85455986Y-69441613D01*
X85511316Y-69398949D01*
X85556304Y-69390500D01*
X90719560Y-69390500D01*
X90786599Y-69410185D01*
X90807241Y-69426819D01*
X96090711Y-74710289D01*
X96179922Y-74799500D01*
X96202212Y-74821790D01*
X96333314Y-74909390D01*
X96333327Y-74909397D01*
X96478998Y-74969735D01*
X96479003Y-74969737D01*
X96633653Y-75000499D01*
X96633656Y-75000500D01*
X96633658Y-75000500D01*
X107978546Y-75000500D01*
X108045585Y-75020185D01*
X108091340Y-75072989D01*
X108101284Y-75142147D01*
X108072259Y-75205703D01*
X108054034Y-75222874D01*
X108043341Y-75231079D01*
X108043330Y-75231089D01*
X107881081Y-75393338D01*
X107741392Y-75575382D01*
X107626657Y-75774109D01*
X107626650Y-75774123D01*
X107538842Y-75986112D01*
X107526738Y-76031285D01*
X107490049Y-76168215D01*
X107479453Y-76207759D01*
X107479451Y-76207770D01*
X107449500Y-76435258D01*
X107449500Y-76664741D01*
X107474446Y-76854215D01*
X107479452Y-76892238D01*
X107479453Y-76892240D01*
X107538842Y-77113887D01*
X107626650Y-77325876D01*
X107626657Y-77325890D01*
X107741392Y-77524617D01*
X107881081Y-77706661D01*
X107881089Y-77706670D01*
X108043330Y-77868911D01*
X108043337Y-77868917D01*
X108043339Y-77868919D01*
X108122557Y-77929705D01*
X108225382Y-78008607D01*
X108225385Y-78008608D01*
X108225388Y-78008611D01*
X108424112Y-78123344D01*
X108424117Y-78123346D01*
X108424123Y-78123349D01*
X108515480Y-78161190D01*
X108636113Y-78211158D01*
X108857762Y-78270548D01*
X109085266Y-78300500D01*
X109085273Y-78300500D01*
X109314727Y-78300500D01*
X109314734Y-78300500D01*
X109542238Y-78270548D01*
X109763887Y-78211158D01*
X109975888Y-78123344D01*
X110174612Y-78008611D01*
X110356661Y-77868919D01*
X110356663Y-77868917D01*
X110356670Y-77868911D01*
X110518911Y-77706670D01*
X110518914Y-77706665D01*
X110518919Y-77706661D01*
X110658611Y-77524612D01*
X110773344Y-77325888D01*
X110861158Y-77113887D01*
X110920548Y-76892238D01*
X110950500Y-76664734D01*
X110950500Y-76435266D01*
X110920548Y-76207762D01*
X110861158Y-75986113D01*
X110773344Y-75774112D01*
X110658611Y-75575388D01*
X110658608Y-75575385D01*
X110658607Y-75575382D01*
X110518918Y-75393338D01*
X110518911Y-75393330D01*
X110356670Y-75231089D01*
X110356664Y-75231084D01*
X110356661Y-75231081D01*
X110351962Y-75227475D01*
X110345966Y-75222874D01*
X110304764Y-75166446D01*
X110300611Y-75096700D01*
X110334824Y-75035780D01*
X110396542Y-75003028D01*
X110421454Y-75000500D01*
X123717060Y-75000500D01*
X123784099Y-75020185D01*
X123804741Y-75036819D01*
X127763181Y-78995259D01*
X127796666Y-79056582D01*
X127799500Y-79082940D01*
X127799500Y-97417060D01*
X127779815Y-97484099D01*
X127763181Y-97504741D01*
X124504741Y-100763181D01*
X124443418Y-100796666D01*
X124417060Y-100799500D01*
X123980680Y-100799500D01*
X123913641Y-100779815D01*
X123880361Y-100748384D01*
X123875320Y-100741446D01*
X123850420Y-100707173D01*
X123810196Y-100651808D01*
X123648193Y-100489805D01*
X123648188Y-100489801D01*
X123462851Y-100355147D01*
X123462850Y-100355146D01*
X123462848Y-100355145D01*
X123399102Y-100322665D01*
X123258722Y-100251136D01*
X123040830Y-100180338D01*
X122814555Y-100144500D01*
X122814550Y-100144500D01*
X122585450Y-100144500D01*
X122585445Y-100144500D01*
X122359169Y-100180338D01*
X122141277Y-100251136D01*
X121937148Y-100355147D01*
X121751811Y-100489801D01*
X121751806Y-100489805D01*
X121589805Y-100651806D01*
X121525008Y-100740992D01*
X121469678Y-100783657D01*
X121400064Y-100789636D01*
X121351430Y-100763974D01*
X121340441Y-100763109D01*
X120739560Y-101363990D01*
X120712729Y-101299215D01*
X120643236Y-101195211D01*
X120554789Y-101106764D01*
X120450785Y-101037271D01*
X120386007Y-101010438D01*
X120986889Y-100409557D01*
X120986888Y-100409556D01*
X120912589Y-100355575D01*
X120708528Y-100251600D01*
X120490709Y-100180826D01*
X120490710Y-100180826D01*
X120264510Y-100145000D01*
X120035490Y-100145000D01*
X119809290Y-100180826D01*
X119591471Y-100251600D01*
X119387417Y-100355571D01*
X119313110Y-100409557D01*
X119913992Y-101010438D01*
X119849215Y-101037271D01*
X119745211Y-101106764D01*
X119656764Y-101195211D01*
X119587271Y-101299215D01*
X119560438Y-101363992D01*
X119091818Y-100895371D01*
X119058333Y-100834048D01*
X119055499Y-100807690D01*
X119055499Y-100597129D01*
X119055498Y-100597123D01*
X119055497Y-100597116D01*
X119049091Y-100537517D01*
X119043379Y-100522203D01*
X119035154Y-100500149D01*
X118998797Y-100402671D01*
X118998793Y-100402664D01*
X118912547Y-100287455D01*
X118912544Y-100287452D01*
X118797335Y-100201206D01*
X118797328Y-100201202D01*
X118662482Y-100150908D01*
X118662483Y-100150908D01*
X118602883Y-100144501D01*
X118602881Y-100144500D01*
X118602873Y-100144500D01*
X118602865Y-100144500D01*
X117995793Y-100144500D01*
X117957475Y-100138431D01*
X117951368Y-100136446D01*
X117718097Y-100099500D01*
X117718092Y-100099500D01*
X117481908Y-100099500D01*
X117481903Y-100099500D01*
X117248639Y-100136445D01*
X117248625Y-100136449D01*
X117242519Y-100138433D01*
X117204207Y-100144500D01*
X116597129Y-100144500D01*
X116597123Y-100144501D01*
X116537516Y-100150908D01*
X116402671Y-100201202D01*
X116402664Y-100201206D01*
X116287455Y-100287452D01*
X116287452Y-100287455D01*
X116201206Y-100402664D01*
X116201202Y-100402671D01*
X116150908Y-100537517D01*
X116145962Y-100583526D01*
X116144501Y-100597123D01*
X116144500Y-100597135D01*
X116144500Y-100882110D01*
X116124815Y-100949149D01*
X116108181Y-100969791D01*
X115814792Y-101263181D01*
X115753469Y-101296666D01*
X115727111Y-101299500D01*
X107472890Y-101299500D01*
X107405851Y-101279815D01*
X107385209Y-101263181D01*
X102929792Y-96807765D01*
X102917587Y-96785414D01*
X102902000Y-96765273D01*
X102901122Y-96755260D01*
X102896307Y-96746442D01*
X102898123Y-96721041D01*
X102895900Y-96695670D01*
X102900833Y-96683153D01*
X102901291Y-96676750D01*
X102907703Y-96662408D01*
X102909684Y-96658637D01*
X102984814Y-96536834D01*
X103039999Y-96370297D01*
X103050500Y-96267508D01*
X103050500Y-94942966D01*
X104250000Y-94942966D01*
X104250000Y-95192033D01*
X104282508Y-95438963D01*
X104346973Y-95679549D01*
X104442283Y-95909648D01*
X104442288Y-95909659D01*
X104566813Y-96125341D01*
X104566819Y-96125349D01*
X104641400Y-96222545D01*
X105548958Y-95314987D01*
X105573978Y-95375390D01*
X105645112Y-95481851D01*
X105735649Y-95572388D01*
X105842110Y-95643522D01*
X105902511Y-95668541D01*
X104994953Y-96576098D01*
X105092150Y-96650680D01*
X105092158Y-96650686D01*
X105307840Y-96775211D01*
X105307851Y-96775216D01*
X105537950Y-96870526D01*
X105778536Y-96934991D01*
X106025466Y-96967500D01*
X106274534Y-96967500D01*
X106521463Y-96934991D01*
X106762049Y-96870526D01*
X106992148Y-96775216D01*
X106992159Y-96775211D01*
X107207855Y-96650678D01*
X107305045Y-96576100D01*
X107305045Y-96576097D01*
X106397488Y-95668541D01*
X106457890Y-95643522D01*
X106564351Y-95572388D01*
X106654888Y-95481851D01*
X106726022Y-95375390D01*
X106751041Y-95314989D01*
X107658597Y-96222545D01*
X107658600Y-96222545D01*
X107733178Y-96125355D01*
X107857711Y-95909659D01*
X107857716Y-95909648D01*
X107953026Y-95679549D01*
X108017491Y-95438963D01*
X108050000Y-95192033D01*
X108050000Y-94942966D01*
X108017491Y-94696036D01*
X107953026Y-94455450D01*
X107857716Y-94225351D01*
X107857711Y-94225340D01*
X107733186Y-94009658D01*
X107733180Y-94009650D01*
X107658598Y-93912453D01*
X106751041Y-94820010D01*
X106726022Y-94759610D01*
X106654888Y-94653149D01*
X106564351Y-94562612D01*
X106457890Y-94491478D01*
X106397487Y-94466457D01*
X107305045Y-93558900D01*
X107207849Y-93484319D01*
X107207841Y-93484313D01*
X106992159Y-93359788D01*
X106992148Y-93359783D01*
X106762049Y-93264473D01*
X106521463Y-93200008D01*
X106274534Y-93167500D01*
X106025466Y-93167500D01*
X105778536Y-93200008D01*
X105537950Y-93264473D01*
X105307851Y-93359783D01*
X105307847Y-93359785D01*
X105092143Y-93484323D01*
X104994953Y-93558899D01*
X104994953Y-93558900D01*
X105902511Y-94466458D01*
X105842110Y-94491478D01*
X105735649Y-94562612D01*
X105645112Y-94653149D01*
X105573978Y-94759610D01*
X105548958Y-94820011D01*
X104641400Y-93912453D01*
X104641399Y-93912453D01*
X104566823Y-94009643D01*
X104442285Y-94225347D01*
X104442283Y-94225351D01*
X104346973Y-94455450D01*
X104282508Y-94696036D01*
X104250000Y-94942966D01*
X103050500Y-94942966D01*
X103050500Y-93867492D01*
X103039999Y-93764703D01*
X102984814Y-93598166D01*
X102965590Y-93567000D01*
X102892713Y-93448848D01*
X102892712Y-93448847D01*
X102892711Y-93448845D01*
X102768655Y-93324789D01*
X102709401Y-93288240D01*
X102662678Y-93236291D01*
X102650500Y-93182702D01*
X102650500Y-84999579D01*
X102634169Y-84896473D01*
X102631868Y-84881947D01*
X104532323Y-84881947D01*
X104532323Y-85118052D01*
X104569257Y-85351247D01*
X104642220Y-85575802D01*
X104749410Y-85786174D01*
X104809661Y-85869104D01*
X104809663Y-85869105D01*
X105549360Y-85129408D01*
X105566398Y-85192993D01*
X105632224Y-85307007D01*
X105725316Y-85400099D01*
X105839330Y-85465925D01*
X105902913Y-85482962D01*
X105163216Y-86222658D01*
X105246151Y-86282914D01*
X105456520Y-86390102D01*
X105681075Y-86463065D01*
X105681074Y-86463065D01*
X105914271Y-86500000D01*
X106150375Y-86500000D01*
X106383570Y-86463065D01*
X106608125Y-86390102D01*
X106818486Y-86282918D01*
X106818492Y-86282914D01*
X106901427Y-86222658D01*
X106901428Y-86222658D01*
X106161731Y-85482962D01*
X106225316Y-85465925D01*
X106339330Y-85400099D01*
X106432422Y-85307007D01*
X106498248Y-85192993D01*
X106515285Y-85129409D01*
X107254981Y-85869105D01*
X107254981Y-85869104D01*
X107315237Y-85786169D01*
X107315241Y-85786163D01*
X107422425Y-85575802D01*
X107495388Y-85351247D01*
X107532323Y-85118052D01*
X107532323Y-84881947D01*
X107495388Y-84648752D01*
X107422425Y-84424197D01*
X107315237Y-84213828D01*
X107254981Y-84130894D01*
X107254981Y-84130893D01*
X106515285Y-84870590D01*
X106498248Y-84807007D01*
X106432422Y-84692993D01*
X106339330Y-84599901D01*
X106225316Y-84534075D01*
X106161732Y-84517037D01*
X106901428Y-83777340D01*
X106901427Y-83777338D01*
X106818497Y-83717087D01*
X106608125Y-83609897D01*
X106383570Y-83536934D01*
X106383571Y-83536934D01*
X106150375Y-83500000D01*
X105914271Y-83500000D01*
X105681075Y-83536934D01*
X105456520Y-83609897D01*
X105246153Y-83717084D01*
X105163217Y-83777340D01*
X105902914Y-84517037D01*
X105839330Y-84534075D01*
X105725316Y-84599901D01*
X105632224Y-84692993D01*
X105566398Y-84807007D01*
X105549360Y-84870590D01*
X104809663Y-84130894D01*
X104749407Y-84213830D01*
X104642220Y-84424197D01*
X104569257Y-84648752D01*
X104532323Y-84881947D01*
X102631868Y-84881947D01*
X102630070Y-84870599D01*
X102613553Y-84766309D01*
X102542063Y-84546287D01*
X102540655Y-84541643D01*
X102537473Y-84530355D01*
X102537489Y-84528860D01*
X102537141Y-84527410D01*
X102537505Y-84527322D01*
X102537620Y-84516705D01*
X102532822Y-84496712D01*
X102532822Y-83952129D01*
X102532821Y-83952123D01*
X102526414Y-83892517D01*
X102526413Y-83892514D01*
X102517245Y-83867931D01*
X102476120Y-83757671D01*
X102476116Y-83757664D01*
X102389870Y-83642455D01*
X102389867Y-83642452D01*
X102274658Y-83556206D01*
X102274651Y-83556202D01*
X102139805Y-83505908D01*
X102139806Y-83505908D01*
X102080206Y-83499501D01*
X102080204Y-83499500D01*
X102080196Y-83499500D01*
X101150417Y-83499500D01*
X101150415Y-83499500D01*
X100914231Y-83499500D01*
X100914227Y-83499500D01*
X99984452Y-83499500D01*
X99984446Y-83499501D01*
X99924839Y-83505908D01*
X99789994Y-83556202D01*
X99789987Y-83556206D01*
X99674778Y-83642452D01*
X99674775Y-83642455D01*
X99588529Y-83757664D01*
X99588525Y-83757671D01*
X99538231Y-83892517D01*
X99531824Y-83952116D01*
X99531824Y-83952123D01*
X99531823Y-83952135D01*
X99531823Y-86047870D01*
X99531824Y-86047876D01*
X99538231Y-86107483D01*
X99588525Y-86242328D01*
X99588529Y-86242335D01*
X99624766Y-86290741D01*
X99649184Y-86356205D01*
X99649500Y-86365052D01*
X99649500Y-93182702D01*
X99629815Y-93249741D01*
X99590599Y-93288240D01*
X99531343Y-93324790D01*
X99407286Y-93448848D01*
X99370741Y-93508097D01*
X99318793Y-93554822D01*
X99265203Y-93567000D01*
X93970153Y-93567000D01*
X93931835Y-93560931D01*
X93913033Y-93554822D01*
X93856481Y-93536446D01*
X93623210Y-93499500D01*
X93623205Y-93499500D01*
X93387021Y-93499500D01*
X93387016Y-93499500D01*
X93153743Y-93536447D01*
X93153740Y-93536447D01*
X92929122Y-93609431D01*
X92929121Y-93609431D01*
X92778873Y-93685985D01*
X92722581Y-93699500D01*
X92657243Y-93699500D01*
X92657236Y-93699501D01*
X92597629Y-93705908D01*
X92462784Y-93756202D01*
X92462777Y-93756206D01*
X92347568Y-93842452D01*
X92347565Y-93842455D01*
X92261319Y-93957664D01*
X92261315Y-93957671D01*
X92211021Y-94092517D01*
X92204614Y-94152116D01*
X92204435Y-94155452D01*
X92202854Y-94155367D01*
X92184928Y-94216419D01*
X92132124Y-94262174D01*
X92088839Y-94269824D01*
X91405113Y-94953551D01*
X91405113Y-94947339D01*
X91377854Y-94845606D01*
X91325193Y-94754394D01*
X91250719Y-94679920D01*
X91159507Y-94627259D01*
X91057774Y-94600000D01*
X91051559Y-94600000D01*
X91731035Y-93920524D01*
X91731034Y-93920523D01*
X91686472Y-93888147D01*
X91686463Y-93888141D01*
X91504144Y-93795244D01*
X91309530Y-93732009D01*
X91107430Y-93700000D01*
X90902796Y-93700000D01*
X90700695Y-93732009D01*
X90506081Y-93795244D01*
X90323757Y-93888143D01*
X90279190Y-93920523D01*
X90279190Y-93920524D01*
X90958667Y-94600000D01*
X90952452Y-94600000D01*
X90850719Y-94627259D01*
X90759507Y-94679920D01*
X90685033Y-94754394D01*
X90632372Y-94845606D01*
X90605113Y-94947339D01*
X90605113Y-94953553D01*
X89925637Y-94274077D01*
X89925636Y-94274077D01*
X89893256Y-94318644D01*
X89800357Y-94500968D01*
X89737122Y-94695582D01*
X89705113Y-94897682D01*
X89705113Y-95102317D01*
X89737122Y-95304417D01*
X89800357Y-95499031D01*
X89893254Y-95681350D01*
X89893260Y-95681359D01*
X89925636Y-95725921D01*
X89925637Y-95725922D01*
X90605113Y-95046446D01*
X90605113Y-95052661D01*
X90632372Y-95154394D01*
X90685033Y-95245606D01*
X90759507Y-95320080D01*
X90850719Y-95372741D01*
X90952452Y-95400000D01*
X90958666Y-95400000D01*
X90279189Y-96079474D01*
X90323763Y-96111859D01*
X90506081Y-96204755D01*
X90700695Y-96267990D01*
X90902796Y-96300000D01*
X91107430Y-96300000D01*
X91309530Y-96267990D01*
X91504144Y-96204755D01*
X91686462Y-96111859D01*
X91731034Y-96079474D01*
X91051560Y-95400000D01*
X91057774Y-95400000D01*
X91159507Y-95372741D01*
X91250719Y-95320080D01*
X91325193Y-95245606D01*
X91377854Y-95154394D01*
X91405113Y-95052661D01*
X91405113Y-95046448D01*
X92089596Y-95730931D01*
X92139260Y-95741364D01*
X92189018Y-95790415D01*
X92203113Y-95844634D01*
X92204212Y-95844576D01*
X92204259Y-95844571D01*
X92204259Y-95844573D01*
X92204437Y-95844564D01*
X92204614Y-95847876D01*
X92211021Y-95907483D01*
X92261315Y-96042328D01*
X92261319Y-96042335D01*
X92347565Y-96157544D01*
X92347568Y-96157547D01*
X92462777Y-96243793D01*
X92462784Y-96243797D01*
X92597629Y-96294091D01*
X92657231Y-96300499D01*
X92657240Y-96300500D01*
X92676595Y-96300499D01*
X92743633Y-96320181D01*
X92749469Y-96324171D01*
X92786179Y-96350843D01*
X92925587Y-96421874D01*
X92996619Y-96458068D01*
X92996625Y-96458070D01*
X93069604Y-96481782D01*
X93069605Y-96481782D01*
X93145425Y-96506417D01*
X93221244Y-96531053D01*
X93454516Y-96568000D01*
X93454521Y-96568000D01*
X97310611Y-96568000D01*
X97377650Y-96587685D01*
X97423405Y-96640489D01*
X97433349Y-96709647D01*
X97404324Y-96773203D01*
X97398292Y-96779681D01*
X90441118Y-103736855D01*
X90379795Y-103770340D01*
X90353437Y-103773174D01*
X85898174Y-103773174D01*
X85831135Y-103753489D01*
X85785380Y-103700685D01*
X85774174Y-103649174D01*
X85774174Y-100355576D01*
X85737227Y-100122305D01*
X85723279Y-100079379D01*
X85664242Y-99897682D01*
X85587688Y-99747435D01*
X85574173Y-99691140D01*
X85574173Y-99625803D01*
X85574172Y-99625797D01*
X85574171Y-99625790D01*
X85567765Y-99566191D01*
X85554607Y-99530913D01*
X85517471Y-99431345D01*
X85517467Y-99431338D01*
X85431221Y-99316129D01*
X85431218Y-99316126D01*
X85316009Y-99229880D01*
X85316002Y-99229876D01*
X85181156Y-99179582D01*
X85181157Y-99179582D01*
X85121557Y-99173175D01*
X85121555Y-99173174D01*
X85121547Y-99173174D01*
X85121538Y-99173174D01*
X85118222Y-99172996D01*
X85118306Y-99171416D01*
X85057253Y-99153489D01*
X85011498Y-99100685D01*
X85003847Y-99057399D01*
X84320121Y-98373674D01*
X84326335Y-98373674D01*
X84428068Y-98346415D01*
X84519280Y-98293754D01*
X84593754Y-98219280D01*
X84646415Y-98128068D01*
X84673674Y-98026335D01*
X84673674Y-98020121D01*
X85353148Y-98699595D01*
X85385533Y-98655023D01*
X85478429Y-98472705D01*
X85541664Y-98278091D01*
X85573674Y-98075991D01*
X85573674Y-97871356D01*
X85541664Y-97669256D01*
X85478429Y-97474642D01*
X85385533Y-97292324D01*
X85353148Y-97247751D01*
X85353148Y-97247750D01*
X84673674Y-97927225D01*
X84673674Y-97921013D01*
X84646415Y-97819280D01*
X84593754Y-97728068D01*
X84519280Y-97653594D01*
X84428068Y-97600933D01*
X84326335Y-97573674D01*
X84320120Y-97573674D01*
X84999596Y-96894198D01*
X84999595Y-96894197D01*
X84955033Y-96861821D01*
X84955024Y-96861815D01*
X84772705Y-96768918D01*
X84578091Y-96705683D01*
X84375991Y-96673674D01*
X84171357Y-96673674D01*
X83969256Y-96705683D01*
X83774642Y-96768918D01*
X83592318Y-96861817D01*
X83547751Y-96894197D01*
X83547751Y-96894198D01*
X84227228Y-97573674D01*
X84221013Y-97573674D01*
X84119280Y-97600933D01*
X84028068Y-97653594D01*
X83953594Y-97728068D01*
X83900933Y-97819280D01*
X83873674Y-97921013D01*
X83873674Y-97927227D01*
X83194198Y-97247751D01*
X83194197Y-97247751D01*
X83161817Y-97292318D01*
X83068918Y-97474642D01*
X83005683Y-97669256D01*
X82973674Y-97871356D01*
X82973674Y-98075991D01*
X83005683Y-98278091D01*
X83068918Y-98472705D01*
X83161815Y-98655024D01*
X83161821Y-98655033D01*
X83194197Y-98699595D01*
X83194198Y-98699596D01*
X83873674Y-98020120D01*
X83873674Y-98026335D01*
X83900933Y-98128068D01*
X83953594Y-98219280D01*
X84028068Y-98293754D01*
X84119280Y-98346415D01*
X84221013Y-98373674D01*
X84227227Y-98373674D01*
X83542741Y-99058157D01*
X83532307Y-99107824D01*
X83483255Y-99157580D01*
X83429039Y-99171674D01*
X83429097Y-99172773D01*
X83429103Y-99172820D01*
X83429100Y-99172820D01*
X83429110Y-99172998D01*
X83425797Y-99173175D01*
X83366190Y-99179582D01*
X83231345Y-99229876D01*
X83231338Y-99229880D01*
X83116129Y-99316126D01*
X83116126Y-99316129D01*
X83029880Y-99431338D01*
X83029876Y-99431345D01*
X82979582Y-99566191D01*
X82973175Y-99625790D01*
X82973175Y-99625797D01*
X82973174Y-99625809D01*
X82973174Y-99691142D01*
X82959659Y-99747437D01*
X82883108Y-99897677D01*
X82810120Y-100122305D01*
X82773174Y-100355576D01*
X82773174Y-104058539D01*
X82765356Y-104101872D01*
X82724582Y-104211191D01*
X82718175Y-104270790D01*
X82718174Y-104270809D01*
X82718174Y-104481365D01*
X82698489Y-104548404D01*
X82681855Y-104569046D01*
X82213234Y-105037666D01*
X82186403Y-104972889D01*
X82116910Y-104868885D01*
X82028463Y-104780438D01*
X81924459Y-104710945D01*
X81859681Y-104684112D01*
X82460563Y-104083231D01*
X82460562Y-104083230D01*
X82386263Y-104029249D01*
X82182202Y-103925274D01*
X81964383Y-103854500D01*
X81964384Y-103854500D01*
X81738184Y-103818674D01*
X81509164Y-103818674D01*
X81282964Y-103854500D01*
X81065145Y-103925274D01*
X80861091Y-104029245D01*
X80786784Y-104083231D01*
X81387666Y-104684112D01*
X81322889Y-104710945D01*
X81218885Y-104780438D01*
X81130438Y-104868885D01*
X81060945Y-104972889D01*
X81034113Y-105037666D01*
X80433231Y-104436784D01*
X80419182Y-104437890D01*
X80393971Y-104457331D01*
X80324358Y-104463310D01*
X80262563Y-104430704D01*
X80248665Y-104414665D01*
X80183872Y-104325485D01*
X80183868Y-104325480D01*
X80080678Y-104222290D01*
X80021869Y-104163481D01*
X79922124Y-104091012D01*
X79919094Y-104088503D01*
X79901655Y-104062661D01*
X79882622Y-104037979D01*
X79881705Y-104033099D01*
X79880010Y-104030587D01*
X79879843Y-104023185D01*
X79874174Y-103992992D01*
X79874174Y-102656614D01*
X79893859Y-102589575D01*
X79910493Y-102568933D01*
X81495459Y-100983967D01*
X81495462Y-100983964D01*
X81499299Y-100978221D01*
X81499309Y-100978213D01*
X81499306Y-100978211D01*
X81529200Y-100933472D01*
X81583068Y-100852853D01*
X81643411Y-100707171D01*
X81643943Y-100704500D01*
X81652927Y-100659335D01*
X81665300Y-100597128D01*
X81674174Y-100552517D01*
X81674174Y-100394832D01*
X81674174Y-95894832D01*
X81666039Y-95853933D01*
X81666039Y-95853931D01*
X81666039Y-95853930D01*
X81643413Y-95740184D01*
X81643412Y-95740177D01*
X81583068Y-95594495D01*
X81583066Y-95594492D01*
X81583064Y-95594488D01*
X81495463Y-95463385D01*
X81495460Y-95463381D01*
X78610492Y-92578413D01*
X78577007Y-92517090D01*
X78574173Y-92490732D01*
X78574173Y-91978454D01*
X78574172Y-91978448D01*
X78574171Y-91978441D01*
X78567765Y-91918842D01*
X78517470Y-91783994D01*
X78517469Y-91783993D01*
X78517467Y-91783989D01*
X78431221Y-91668780D01*
X78431218Y-91668777D01*
X78316009Y-91582531D01*
X78316002Y-91582527D01*
X78181156Y-91532233D01*
X78181157Y-91532233D01*
X78121557Y-91525826D01*
X78121555Y-91525825D01*
X78121547Y-91525825D01*
X78121538Y-91525825D01*
X76425803Y-91525825D01*
X76425797Y-91525826D01*
X76366190Y-91532233D01*
X76231345Y-91582527D01*
X76231338Y-91582531D01*
X76116129Y-91668777D01*
X76116126Y-91668780D01*
X76029880Y-91783989D01*
X76029876Y-91783996D01*
X75979582Y-91918842D01*
X75973175Y-91978441D01*
X75973175Y-91978448D01*
X75973174Y-91978460D01*
X75973174Y-93674195D01*
X75973175Y-93674201D01*
X75979582Y-93733808D01*
X76029876Y-93868653D01*
X76029880Y-93868660D01*
X76116126Y-93983869D01*
X76116129Y-93983872D01*
X76231338Y-94070118D01*
X76231345Y-94070122D01*
X76366191Y-94120416D01*
X76366190Y-94120416D01*
X76373118Y-94121160D01*
X76425801Y-94126825D01*
X77843384Y-94126824D01*
X77910423Y-94146509D01*
X77931065Y-94163143D01*
X80036855Y-96268933D01*
X80070340Y-96330256D01*
X80073174Y-96356614D01*
X80073174Y-100090734D01*
X80053489Y-100157773D01*
X80036855Y-100178415D01*
X79208799Y-101006471D01*
X79147476Y-101039956D01*
X79077784Y-101034972D01*
X79033437Y-101006471D01*
X78610492Y-100583526D01*
X78577007Y-100522203D01*
X78574173Y-100495845D01*
X78574173Y-99530915D01*
X78574172Y-99530909D01*
X78574171Y-99530902D01*
X78567765Y-99471303D01*
X78517470Y-99336455D01*
X78517469Y-99336454D01*
X78517467Y-99336450D01*
X78431221Y-99221241D01*
X78431218Y-99221238D01*
X78316009Y-99134992D01*
X78316002Y-99134988D01*
X78181156Y-99084694D01*
X78181157Y-99084694D01*
X78121557Y-99078287D01*
X78121555Y-99078286D01*
X78121547Y-99078286D01*
X78121538Y-99078286D01*
X78118222Y-99078108D01*
X78118306Y-99076528D01*
X78057253Y-99058601D01*
X78011498Y-99005797D01*
X78003847Y-98962511D01*
X77320121Y-98278786D01*
X77326335Y-98278786D01*
X77428068Y-98251527D01*
X77519280Y-98198866D01*
X77593754Y-98124392D01*
X77646415Y-98033180D01*
X77673674Y-97931447D01*
X77673674Y-97925233D01*
X78353148Y-98604707D01*
X78385533Y-98560135D01*
X78478429Y-98377817D01*
X78541664Y-98183203D01*
X78573674Y-97981103D01*
X78573674Y-97776468D01*
X78541664Y-97574368D01*
X78478429Y-97379754D01*
X78385533Y-97197436D01*
X78353148Y-97152863D01*
X78353148Y-97152862D01*
X77673674Y-97832337D01*
X77673674Y-97826125D01*
X77646415Y-97724392D01*
X77593754Y-97633180D01*
X77519280Y-97558706D01*
X77428068Y-97506045D01*
X77326335Y-97478786D01*
X77320120Y-97478786D01*
X77999596Y-96799310D01*
X77999595Y-96799309D01*
X77955033Y-96766933D01*
X77955024Y-96766927D01*
X77772705Y-96674030D01*
X77578091Y-96610795D01*
X77375991Y-96578786D01*
X77171357Y-96578786D01*
X76969256Y-96610795D01*
X76774642Y-96674030D01*
X76592318Y-96766929D01*
X76547751Y-96799309D01*
X76547751Y-96799310D01*
X77227228Y-97478786D01*
X77221013Y-97478786D01*
X77119280Y-97506045D01*
X77028068Y-97558706D01*
X76953594Y-97633180D01*
X76900933Y-97724392D01*
X76873674Y-97826125D01*
X76873674Y-97832339D01*
X76194198Y-97152863D01*
X76194197Y-97152863D01*
X76161817Y-97197430D01*
X76068918Y-97379754D01*
X76005683Y-97574368D01*
X75973674Y-97776468D01*
X75973674Y-97981103D01*
X76005683Y-98183203D01*
X76068918Y-98377817D01*
X76161815Y-98560136D01*
X76161821Y-98560145D01*
X76194197Y-98604707D01*
X76194198Y-98604708D01*
X76873674Y-97925232D01*
X76873674Y-97931447D01*
X76900933Y-98033180D01*
X76953594Y-98124392D01*
X77028068Y-98198866D01*
X77119280Y-98251527D01*
X77221013Y-98278786D01*
X77227227Y-98278786D01*
X76542741Y-98963269D01*
X76532307Y-99012936D01*
X76483255Y-99062692D01*
X76429039Y-99076786D01*
X76429097Y-99077885D01*
X76429103Y-99077932D01*
X76429100Y-99077932D01*
X76429110Y-99078110D01*
X76425797Y-99078287D01*
X76366190Y-99084694D01*
X76231345Y-99134988D01*
X76231338Y-99134992D01*
X76116129Y-99221238D01*
X76116126Y-99221241D01*
X76029880Y-99336450D01*
X76029876Y-99336457D01*
X75979582Y-99471303D01*
X75973175Y-99530902D01*
X75973175Y-99530909D01*
X75973174Y-99530921D01*
X75973174Y-101226656D01*
X75973175Y-101226662D01*
X75979582Y-101286269D01*
X76029876Y-101421114D01*
X76029880Y-101421121D01*
X76116126Y-101536330D01*
X76116129Y-101536333D01*
X76231338Y-101622579D01*
X76231345Y-101622583D01*
X76366191Y-101672877D01*
X76366190Y-101672877D01*
X76373118Y-101673621D01*
X76425801Y-101679286D01*
X77390733Y-101679285D01*
X77457772Y-101698969D01*
X77478414Y-101715604D01*
X78236855Y-102474045D01*
X78270340Y-102535368D01*
X78273174Y-102561726D01*
X78273174Y-103992992D01*
X78253489Y-104060031D01*
X78222060Y-104093309D01*
X78125485Y-104163476D01*
X78125476Y-104163483D01*
X77963477Y-104325482D01*
X77893313Y-104422058D01*
X77837983Y-104464725D01*
X77792994Y-104473174D01*
X67856614Y-104473174D01*
X67789575Y-104453489D01*
X67768933Y-104436855D01*
X64610292Y-101278213D01*
X64610288Y-101278210D01*
X64479185Y-101190609D01*
X64479172Y-101190602D01*
X64333501Y-101130264D01*
X64333489Y-101130261D01*
X64178845Y-101099500D01*
X64178842Y-101099500D01*
X64021158Y-101099500D01*
X64021155Y-101099500D01*
X63866510Y-101130261D01*
X63866498Y-101130264D01*
X63720827Y-101190602D01*
X63720815Y-101190609D01*
X63622441Y-101256341D01*
X63622436Y-101256344D01*
X63618208Y-101259170D01*
X63589711Y-101278211D01*
X63569723Y-101298198D01*
X63564165Y-101302612D01*
X63538099Y-101313188D01*
X63513417Y-101326666D01*
X63501806Y-101327914D01*
X63499422Y-101328882D01*
X63497014Y-101328429D01*
X63487059Y-101329500D01*
X60906304Y-101329500D01*
X60839265Y-101309815D01*
X60805986Y-101278386D01*
X60714517Y-101152490D01*
X60714508Y-101152481D01*
X60711353Y-101148786D01*
X60713134Y-101147264D01*
X60684273Y-101094408D01*
X60689257Y-101024716D01*
X60731129Y-100968783D01*
X60740334Y-100962516D01*
X60788656Y-100932712D01*
X60912712Y-100808656D01*
X61004814Y-100659334D01*
X61059999Y-100492797D01*
X61070500Y-100390009D01*
X61070499Y-98789992D01*
X61059999Y-98687203D01*
X61004814Y-98520666D01*
X60912712Y-98371344D01*
X60788656Y-98247288D01*
X60663353Y-98170001D01*
X60639336Y-98155187D01*
X60639331Y-98155185D01*
X60637862Y-98154698D01*
X60472797Y-98100001D01*
X60472795Y-98100000D01*
X60370016Y-98089500D01*
X60370009Y-98089500D01*
X60294500Y-98089500D01*
X60285814Y-98086949D01*
X60276853Y-98088238D01*
X60252812Y-98077259D01*
X60227461Y-98069815D01*
X60221533Y-98062974D01*
X60213297Y-98059213D01*
X60199007Y-98036978D01*
X60181706Y-98017011D01*
X60179418Y-98006496D01*
X60175523Y-98000435D01*
X60170500Y-97965500D01*
X60170500Y-89224007D01*
X75973674Y-89224007D01*
X75973674Y-89428642D01*
X76005683Y-89630742D01*
X76068918Y-89825356D01*
X76161815Y-90007675D01*
X76161821Y-90007684D01*
X76194197Y-90052246D01*
X76194198Y-90052247D01*
X76873674Y-89372771D01*
X76873674Y-89378986D01*
X76900933Y-89480719D01*
X76953594Y-89571931D01*
X77028068Y-89646405D01*
X77119280Y-89699066D01*
X77221013Y-89726325D01*
X77227227Y-89726325D01*
X76547750Y-90405799D01*
X76592324Y-90438184D01*
X76774642Y-90531080D01*
X76969256Y-90594315D01*
X77171357Y-90626325D01*
X77375991Y-90626325D01*
X77578091Y-90594315D01*
X77772705Y-90531080D01*
X77955023Y-90438184D01*
X77999595Y-90405799D01*
X77320121Y-89726325D01*
X77326335Y-89726325D01*
X77428068Y-89699066D01*
X77519280Y-89646405D01*
X77593754Y-89571931D01*
X77646415Y-89480719D01*
X77673674Y-89378986D01*
X77673674Y-89372772D01*
X78353148Y-90052246D01*
X78385533Y-90007674D01*
X78478429Y-89825356D01*
X78541664Y-89630742D01*
X78573674Y-89428642D01*
X78573674Y-89224007D01*
X78541664Y-89021907D01*
X78478429Y-88827293D01*
X78385533Y-88644975D01*
X78353148Y-88600402D01*
X78353148Y-88600401D01*
X77673674Y-89279876D01*
X77673674Y-89273664D01*
X77646415Y-89171931D01*
X77593754Y-89080719D01*
X77519280Y-89006245D01*
X77428068Y-88953584D01*
X77326335Y-88926325D01*
X77320120Y-88926325D01*
X77999596Y-88246849D01*
X77999595Y-88246848D01*
X77955033Y-88214472D01*
X77955024Y-88214466D01*
X77772705Y-88121569D01*
X77578091Y-88058334D01*
X77375991Y-88026325D01*
X77171357Y-88026325D01*
X76969256Y-88058334D01*
X76774642Y-88121569D01*
X76592318Y-88214468D01*
X76547751Y-88246848D01*
X76547751Y-88246849D01*
X77227228Y-88926325D01*
X77221013Y-88926325D01*
X77119280Y-88953584D01*
X77028068Y-89006245D01*
X76953594Y-89080719D01*
X76900933Y-89171931D01*
X76873674Y-89273664D01*
X76873674Y-89279878D01*
X76194198Y-88600402D01*
X76194197Y-88600402D01*
X76161817Y-88644969D01*
X76068918Y-88827293D01*
X76005683Y-89021907D01*
X75973674Y-89224007D01*
X60170500Y-89224007D01*
X60170500Y-83630097D01*
X60190185Y-83563058D01*
X60206819Y-83542416D01*
X67313977Y-76435258D01*
X82939500Y-76435258D01*
X82939500Y-76664741D01*
X82964446Y-76854215D01*
X82969452Y-76892238D01*
X82969453Y-76892240D01*
X83028842Y-77113887D01*
X83116650Y-77325876D01*
X83116657Y-77325890D01*
X83231392Y-77524617D01*
X83371081Y-77706661D01*
X83371089Y-77706670D01*
X83533330Y-77868911D01*
X83533337Y-77868917D01*
X83533339Y-77868919D01*
X83612557Y-77929705D01*
X83715382Y-78008607D01*
X83715385Y-78008608D01*
X83715388Y-78008611D01*
X83914112Y-78123344D01*
X83914117Y-78123346D01*
X83914123Y-78123349D01*
X84005480Y-78161190D01*
X84126113Y-78211158D01*
X84347762Y-78270548D01*
X84575266Y-78300500D01*
X84575273Y-78300500D01*
X84804727Y-78300500D01*
X84804734Y-78300500D01*
X85032238Y-78270548D01*
X85253887Y-78211158D01*
X85465888Y-78123344D01*
X85664612Y-78008611D01*
X85846661Y-77868919D01*
X85846663Y-77868917D01*
X85846670Y-77868911D01*
X86008911Y-77706670D01*
X86008914Y-77706665D01*
X86008919Y-77706661D01*
X86148611Y-77524612D01*
X86263344Y-77325888D01*
X86351158Y-77113887D01*
X86410548Y-76892238D01*
X86440500Y-76664734D01*
X86440500Y-76435266D01*
X86410548Y-76207762D01*
X86351158Y-75986113D01*
X86263344Y-75774112D01*
X86148611Y-75575388D01*
X86148608Y-75575385D01*
X86148607Y-75575382D01*
X86008918Y-75393338D01*
X86008911Y-75393330D01*
X85846670Y-75231089D01*
X85846661Y-75231081D01*
X85664617Y-75091392D01*
X85465890Y-74976657D01*
X85465876Y-74976650D01*
X85253887Y-74888842D01*
X85032238Y-74829452D01*
X84994215Y-74824446D01*
X84804741Y-74799500D01*
X84804734Y-74799500D01*
X84575266Y-74799500D01*
X84575258Y-74799500D01*
X84358715Y-74828009D01*
X84347762Y-74829452D01*
X84254076Y-74854554D01*
X84126112Y-74888842D01*
X83914123Y-74976650D01*
X83914109Y-74976657D01*
X83715382Y-75091392D01*
X83533338Y-75231081D01*
X83371081Y-75393338D01*
X83231392Y-75575382D01*
X83116657Y-75774109D01*
X83116650Y-75774123D01*
X83028842Y-75986112D01*
X83016738Y-76031285D01*
X82980049Y-76168215D01*
X82969453Y-76207759D01*
X82969451Y-76207770D01*
X82939500Y-76435258D01*
X67313977Y-76435258D01*
X79602416Y-64146819D01*
X79663739Y-64113334D01*
X79690097Y-64110500D01*
X82765932Y-64110500D01*
X82832971Y-64130185D01*
G37*
%TD.AperFunction*%
%TA.AperFunction,Conductor*%
G36*
X116101526Y-33740707D02*
G01*
X116129781Y-33761859D01*
X117063181Y-34695259D01*
X117096666Y-34756582D01*
X117099500Y-34782940D01*
X117099500Y-62717060D01*
X117079815Y-62784099D01*
X117063181Y-62804741D01*
X112114741Y-67753181D01*
X112053418Y-67786666D01*
X112027060Y-67789500D01*
X111244499Y-67789500D01*
X111177460Y-67769815D01*
X111131705Y-67717011D01*
X111120499Y-67665500D01*
X111120499Y-67542129D01*
X111120498Y-67542123D01*
X111120497Y-67542116D01*
X111114091Y-67482517D01*
X111111915Y-67476684D01*
X111063797Y-67347671D01*
X111063793Y-67347664D01*
X110977547Y-67232455D01*
X110977544Y-67232452D01*
X110862335Y-67146206D01*
X110854546Y-67141953D01*
X110856267Y-67138799D01*
X110814025Y-67107186D01*
X110789599Y-67041725D01*
X110804442Y-66973450D01*
X110812964Y-66959977D01*
X110902914Y-66836171D01*
X111010102Y-66625802D01*
X111083065Y-66401247D01*
X111120000Y-66168052D01*
X111120000Y-65931947D01*
X111083065Y-65698752D01*
X111010102Y-65474197D01*
X110902914Y-65263828D01*
X110842658Y-65180894D01*
X110842658Y-65180893D01*
X110111127Y-65912423D01*
X110095245Y-65853147D01*
X110028102Y-65736853D01*
X109933147Y-65641898D01*
X109816853Y-65574755D01*
X109757574Y-65558871D01*
X110489105Y-64827340D01*
X110487551Y-64807594D01*
X110501915Y-64739216D01*
X110538284Y-64697547D01*
X110597510Y-64654517D01*
X110764517Y-64487510D01*
X110903343Y-64296433D01*
X111010568Y-64085992D01*
X111083553Y-63861368D01*
X111120500Y-63628097D01*
X111120500Y-63391902D01*
X111083553Y-63158631D01*
X111015902Y-62950424D01*
X111010568Y-62934008D01*
X111010566Y-62934005D01*
X111010566Y-62934003D01*
X110944703Y-62804741D01*
X110903343Y-62723567D01*
X110764517Y-62532490D01*
X110597510Y-62365483D01*
X110562872Y-62340317D01*
X110520207Y-62284989D01*
X110514228Y-62215375D01*
X110546833Y-62153580D01*
X110562873Y-62139682D01*
X110597510Y-62114517D01*
X110764517Y-61947510D01*
X110903343Y-61756433D01*
X111010568Y-61545992D01*
X111083553Y-61321368D01*
X111099425Y-61221158D01*
X111120500Y-61088097D01*
X111120500Y-60851902D01*
X111083553Y-60618631D01*
X111010566Y-60394003D01*
X110903342Y-60183566D01*
X110764517Y-59992490D01*
X110597510Y-59825483D01*
X110562872Y-59800317D01*
X110520207Y-59744989D01*
X110514228Y-59675375D01*
X110546833Y-59613580D01*
X110562873Y-59599682D01*
X110597510Y-59574517D01*
X110764517Y-59407510D01*
X110903343Y-59216433D01*
X111010568Y-59005992D01*
X111083553Y-58781368D01*
X111120500Y-58548097D01*
X111120500Y-58311902D01*
X111083553Y-58078631D01*
X111010566Y-57854003D01*
X110942023Y-57719481D01*
X110903343Y-57643567D01*
X110764517Y-57452490D01*
X110597510Y-57285483D01*
X110562872Y-57260317D01*
X110520207Y-57204989D01*
X110514228Y-57135375D01*
X110546833Y-57073580D01*
X110562873Y-57059682D01*
X110597510Y-57034517D01*
X110764517Y-56867510D01*
X110903343Y-56676433D01*
X111010568Y-56465992D01*
X111083553Y-56241368D01*
X111120500Y-56008097D01*
X111120500Y-55771902D01*
X111083553Y-55538631D01*
X111010566Y-55314003D01*
X110954002Y-55202991D01*
X110903343Y-55103567D01*
X110764517Y-54912490D01*
X110597510Y-54745483D01*
X110562872Y-54720317D01*
X110520207Y-54664989D01*
X110514228Y-54595375D01*
X110546833Y-54533580D01*
X110562873Y-54519682D01*
X110597510Y-54494517D01*
X110764517Y-54327510D01*
X110903343Y-54136433D01*
X111010568Y-53925992D01*
X111083553Y-53701368D01*
X111093524Y-53638412D01*
X111120500Y-53468097D01*
X111120500Y-53231902D01*
X111083553Y-52998631D01*
X111010566Y-52774003D01*
X110954002Y-52662991D01*
X110903343Y-52563567D01*
X110764517Y-52372490D01*
X110597510Y-52205483D01*
X110562872Y-52180317D01*
X110520207Y-52124989D01*
X110514228Y-52055375D01*
X110546833Y-51993580D01*
X110562873Y-51979682D01*
X110597510Y-51954517D01*
X110764517Y-51787510D01*
X110903343Y-51596433D01*
X111010568Y-51385992D01*
X111083553Y-51161368D01*
X111097551Y-51072989D01*
X111120500Y-50928097D01*
X111120500Y-50691902D01*
X111083553Y-50458631D01*
X111010566Y-50234003D01*
X110954002Y-50122991D01*
X110903343Y-50023567D01*
X110764517Y-49832490D01*
X110597510Y-49665483D01*
X110562872Y-49640317D01*
X110520207Y-49584989D01*
X110514228Y-49515375D01*
X110546833Y-49453580D01*
X110562873Y-49439682D01*
X110597510Y-49414517D01*
X110764517Y-49247510D01*
X110903343Y-49056433D01*
X111010568Y-48845992D01*
X111083553Y-48621368D01*
X111093524Y-48558412D01*
X111120500Y-48388097D01*
X111120500Y-48151902D01*
X111083553Y-47918631D01*
X111010566Y-47694003D01*
X110949109Y-47573387D01*
X110903343Y-47483567D01*
X110764517Y-47292490D01*
X110597510Y-47125483D01*
X110562872Y-47100317D01*
X110520207Y-47044989D01*
X110514228Y-46975375D01*
X110546833Y-46913580D01*
X110562873Y-46899682D01*
X110597510Y-46874517D01*
X110764517Y-46707510D01*
X110903343Y-46516433D01*
X111010568Y-46305992D01*
X111083553Y-46081368D01*
X111093524Y-46018412D01*
X111120500Y-45848097D01*
X111120500Y-45611902D01*
X111083553Y-45378631D01*
X111010566Y-45154003D01*
X110942023Y-45019481D01*
X110903343Y-44943567D01*
X110764517Y-44752490D01*
X110597510Y-44585483D01*
X110562872Y-44560317D01*
X110520207Y-44504989D01*
X110514228Y-44435375D01*
X110546833Y-44373580D01*
X110562873Y-44359682D01*
X110597510Y-44334517D01*
X110764517Y-44167510D01*
X110903343Y-43976433D01*
X110963583Y-43858204D01*
X111011558Y-43807409D01*
X111074068Y-43790500D01*
X111523331Y-43790500D01*
X111523347Y-43790501D01*
X111530943Y-43790501D01*
X111689054Y-43790501D01*
X111689057Y-43790501D01*
X111841785Y-43749577D01*
X111891904Y-43720639D01*
X111978716Y-43670520D01*
X112090520Y-43558716D01*
X112090520Y-43558714D01*
X112100728Y-43548507D01*
X112100729Y-43548504D01*
X113065081Y-42584153D01*
X113126403Y-42550669D01*
X113196095Y-42555653D01*
X113252028Y-42597525D01*
X113276445Y-42662989D01*
X113275234Y-42691233D01*
X113249500Y-42853713D01*
X113249500Y-43066287D01*
X113282754Y-43276243D01*
X113293102Y-43308092D01*
X113348444Y-43478414D01*
X113444951Y-43667820D01*
X113569890Y-43839786D01*
X113720213Y-43990109D01*
X113892182Y-44115050D01*
X113900946Y-44119516D01*
X113951742Y-44167491D01*
X113968536Y-44235312D01*
X113945998Y-44301447D01*
X113900946Y-44340484D01*
X113892182Y-44344949D01*
X113720213Y-44469890D01*
X113569890Y-44620213D01*
X113444951Y-44792179D01*
X113348444Y-44981585D01*
X113282753Y-45183760D01*
X113249500Y-45393713D01*
X113249500Y-45606286D01*
X113267025Y-45716938D01*
X113282754Y-45816243D01*
X113293102Y-45848092D01*
X113348444Y-46018414D01*
X113444951Y-46207820D01*
X113569890Y-46379786D01*
X113720213Y-46530109D01*
X113892182Y-46655050D01*
X113900946Y-46659516D01*
X113951742Y-46707491D01*
X113968536Y-46775312D01*
X113945998Y-46841447D01*
X113900946Y-46880484D01*
X113892182Y-46884949D01*
X113720213Y-47009890D01*
X113569890Y-47160213D01*
X113444951Y-47332179D01*
X113348444Y-47521585D01*
X113282753Y-47723760D01*
X113249500Y-47933713D01*
X113249500Y-48146286D01*
X113279677Y-48336819D01*
X113282754Y-48356243D01*
X113298629Y-48405102D01*
X113348444Y-48558414D01*
X113444951Y-48747820D01*
X113569890Y-48919786D01*
X113720213Y-49070109D01*
X113892182Y-49195050D01*
X113900946Y-49199516D01*
X113951742Y-49247491D01*
X113968536Y-49315312D01*
X113945998Y-49381447D01*
X113900946Y-49420484D01*
X113892182Y-49424949D01*
X113720213Y-49549890D01*
X113569890Y-49700213D01*
X113444951Y-49872179D01*
X113348444Y-50061585D01*
X113282753Y-50263760D01*
X113251889Y-50458631D01*
X113249500Y-50473713D01*
X113249500Y-50686287D01*
X113282754Y-50896243D01*
X113323025Y-51020185D01*
X113348444Y-51098414D01*
X113444951Y-51287820D01*
X113569890Y-51459786D01*
X113720213Y-51610109D01*
X113892182Y-51735050D01*
X113900946Y-51739516D01*
X113951742Y-51787491D01*
X113968536Y-51855312D01*
X113945998Y-51921447D01*
X113900946Y-51960484D01*
X113892182Y-51964949D01*
X113720213Y-52089890D01*
X113569890Y-52240213D01*
X113444951Y-52412179D01*
X113348444Y-52601585D01*
X113282753Y-52803760D01*
X113251889Y-52998631D01*
X113249500Y-53013713D01*
X113249500Y-53226287D01*
X113282754Y-53436243D01*
X113293102Y-53468092D01*
X113348444Y-53638414D01*
X113444951Y-53827820D01*
X113569890Y-53999786D01*
X113720213Y-54150109D01*
X113892182Y-54275050D01*
X113900946Y-54279516D01*
X113951742Y-54327491D01*
X113968536Y-54395312D01*
X113945998Y-54461447D01*
X113900946Y-54500484D01*
X113892182Y-54504949D01*
X113720213Y-54629890D01*
X113569890Y-54780213D01*
X113444951Y-54952179D01*
X113348444Y-55141585D01*
X113282753Y-55343760D01*
X113251889Y-55538631D01*
X113249500Y-55553713D01*
X113249500Y-55766287D01*
X113282754Y-55976243D01*
X113293102Y-56008092D01*
X113348444Y-56178414D01*
X113444951Y-56367820D01*
X113569890Y-56539786D01*
X113720213Y-56690109D01*
X113892179Y-56815048D01*
X113892181Y-56815049D01*
X113892184Y-56815051D01*
X114081588Y-56911557D01*
X114283757Y-56977246D01*
X114493713Y-57010500D01*
X114493714Y-57010500D01*
X114706286Y-57010500D01*
X114706287Y-57010500D01*
X114916243Y-56977246D01*
X115118412Y-56911557D01*
X115307816Y-56815051D01*
X115329789Y-56799086D01*
X115479786Y-56690109D01*
X115479788Y-56690106D01*
X115479792Y-56690104D01*
X115630104Y-56539792D01*
X115630106Y-56539788D01*
X115630109Y-56539786D01*
X115755048Y-56367820D01*
X115755047Y-56367820D01*
X115755051Y-56367816D01*
X115851557Y-56178412D01*
X115917246Y-55976243D01*
X115950500Y-55766287D01*
X115950500Y-55553713D01*
X115917246Y-55343757D01*
X115851557Y-55141588D01*
X115755051Y-54952184D01*
X115755049Y-54952181D01*
X115755048Y-54952179D01*
X115630109Y-54780213D01*
X115479786Y-54629890D01*
X115307820Y-54504951D01*
X115307115Y-54504591D01*
X115299054Y-54500485D01*
X115248259Y-54452512D01*
X115231463Y-54384692D01*
X115253999Y-54318556D01*
X115299054Y-54279515D01*
X115307816Y-54275051D01*
X115329789Y-54259086D01*
X115479786Y-54150109D01*
X115479788Y-54150106D01*
X115479792Y-54150104D01*
X115630104Y-53999792D01*
X115630106Y-53999788D01*
X115630109Y-53999786D01*
X115755048Y-53827820D01*
X115755047Y-53827820D01*
X115755051Y-53827816D01*
X115851557Y-53638412D01*
X115917246Y-53436243D01*
X115950500Y-53226287D01*
X115950500Y-53013713D01*
X115917246Y-52803757D01*
X115851557Y-52601588D01*
X115755051Y-52412184D01*
X115755049Y-52412181D01*
X115755048Y-52412179D01*
X115630109Y-52240213D01*
X115479786Y-52089890D01*
X115307820Y-51964951D01*
X115307115Y-51964591D01*
X115299054Y-51960485D01*
X115248259Y-51912512D01*
X115231463Y-51844692D01*
X115253999Y-51778556D01*
X115299054Y-51739515D01*
X115307816Y-51735051D01*
X115329789Y-51719086D01*
X115479786Y-51610109D01*
X115479788Y-51610106D01*
X115479792Y-51610104D01*
X115630104Y-51459792D01*
X115630106Y-51459788D01*
X115630109Y-51459786D01*
X115755048Y-51287820D01*
X115755047Y-51287820D01*
X115755051Y-51287816D01*
X115851557Y-51098412D01*
X115917246Y-50896243D01*
X115950500Y-50686287D01*
X115950500Y-50473713D01*
X115917246Y-50263757D01*
X115851557Y-50061588D01*
X115755051Y-49872184D01*
X115755049Y-49872181D01*
X115755048Y-49872179D01*
X115630109Y-49700213D01*
X115479786Y-49549890D01*
X115307820Y-49424951D01*
X115307115Y-49424591D01*
X115299054Y-49420485D01*
X115248259Y-49372512D01*
X115231463Y-49304692D01*
X115253999Y-49238556D01*
X115299054Y-49199515D01*
X115307816Y-49195051D01*
X115329789Y-49179086D01*
X115479786Y-49070109D01*
X115479788Y-49070106D01*
X115479792Y-49070104D01*
X115630104Y-48919792D01*
X115630106Y-48919788D01*
X115630109Y-48919786D01*
X115755048Y-48747820D01*
X115755047Y-48747820D01*
X115755051Y-48747816D01*
X115851557Y-48558412D01*
X115917246Y-48356243D01*
X115950500Y-48146287D01*
X115950500Y-47933713D01*
X115917246Y-47723757D01*
X115851557Y-47521588D01*
X115755051Y-47332184D01*
X115755049Y-47332181D01*
X115755048Y-47332179D01*
X115630109Y-47160213D01*
X115479786Y-47009890D01*
X115307820Y-46884951D01*
X115307115Y-46884591D01*
X115299054Y-46880485D01*
X115248259Y-46832512D01*
X115231463Y-46764692D01*
X115253999Y-46698556D01*
X115299054Y-46659515D01*
X115307816Y-46655051D01*
X115329789Y-46639086D01*
X115479786Y-46530109D01*
X115479788Y-46530106D01*
X115479792Y-46530104D01*
X115630104Y-46379792D01*
X115630106Y-46379788D01*
X115630109Y-46379786D01*
X115755048Y-46207820D01*
X115755047Y-46207820D01*
X115755051Y-46207816D01*
X115851557Y-46018412D01*
X115917246Y-45816243D01*
X115950500Y-45606287D01*
X115950500Y-45393713D01*
X115917246Y-45183757D01*
X115851557Y-44981588D01*
X115755051Y-44792184D01*
X115755049Y-44792181D01*
X115755048Y-44792179D01*
X115630109Y-44620213D01*
X115479786Y-44469890D01*
X115307820Y-44344951D01*
X115307115Y-44344591D01*
X115299054Y-44340485D01*
X115248259Y-44292512D01*
X115231463Y-44224692D01*
X115253999Y-44158556D01*
X115299054Y-44119515D01*
X115307816Y-44115051D01*
X115329789Y-44099086D01*
X115479786Y-43990109D01*
X115479788Y-43990106D01*
X115479792Y-43990104D01*
X115630104Y-43839792D01*
X115630106Y-43839788D01*
X115630109Y-43839786D01*
X115755048Y-43667820D01*
X115755047Y-43667820D01*
X115755051Y-43667816D01*
X115851557Y-43478412D01*
X115917246Y-43276243D01*
X115950500Y-43066287D01*
X115950500Y-42853713D01*
X115917246Y-42643757D01*
X115851557Y-42441588D01*
X115755051Y-42252184D01*
X115755049Y-42252181D01*
X115755048Y-42252179D01*
X115630109Y-42080213D01*
X115479786Y-41929890D01*
X115307820Y-41804951D01*
X115307115Y-41804591D01*
X115299054Y-41800485D01*
X115248259Y-41752512D01*
X115231463Y-41684692D01*
X115253999Y-41618556D01*
X115299054Y-41579515D01*
X115307816Y-41575051D01*
X115329789Y-41559086D01*
X115479786Y-41450109D01*
X115479788Y-41450106D01*
X115479792Y-41450104D01*
X115630104Y-41299792D01*
X115630106Y-41299788D01*
X115630109Y-41299786D01*
X115755048Y-41127820D01*
X115755047Y-41127820D01*
X115755051Y-41127816D01*
X115851557Y-40938412D01*
X115917246Y-40736243D01*
X115950500Y-40526287D01*
X115950500Y-40313713D01*
X115917246Y-40103757D01*
X115851557Y-39901588D01*
X115755051Y-39712184D01*
X115755049Y-39712181D01*
X115755048Y-39712179D01*
X115630109Y-39540213D01*
X115479786Y-39389890D01*
X115307820Y-39264951D01*
X115307115Y-39264591D01*
X115299054Y-39260485D01*
X115248259Y-39212512D01*
X115231463Y-39144692D01*
X115253999Y-39078556D01*
X115299054Y-39039515D01*
X115307816Y-39035051D01*
X115400084Y-38968015D01*
X115479786Y-38910109D01*
X115479788Y-38910106D01*
X115479792Y-38910104D01*
X115630104Y-38759792D01*
X115630106Y-38759788D01*
X115630109Y-38759786D01*
X115755048Y-38587820D01*
X115755047Y-38587820D01*
X115755051Y-38587816D01*
X115851557Y-38398412D01*
X115917246Y-38196243D01*
X115950500Y-37986287D01*
X115950500Y-37773713D01*
X115917246Y-37563757D01*
X115851557Y-37361588D01*
X115755051Y-37172184D01*
X115755049Y-37172181D01*
X115755048Y-37172179D01*
X115630109Y-37000213D01*
X115479786Y-36849890D01*
X115307817Y-36724949D01*
X115298504Y-36720204D01*
X115247707Y-36672230D01*
X115230912Y-36604409D01*
X115253449Y-36538274D01*
X115298507Y-36499232D01*
X115307558Y-36494620D01*
X115479459Y-36369727D01*
X115479464Y-36369723D01*
X115629723Y-36219464D01*
X115629727Y-36219459D01*
X115754620Y-36047557D01*
X115851095Y-35858217D01*
X115916757Y-35656129D01*
X115916757Y-35656126D01*
X115927231Y-35590000D01*
X115033012Y-35590000D01*
X115065925Y-35532993D01*
X115100000Y-35405826D01*
X115100000Y-35274174D01*
X115065925Y-35147007D01*
X115033012Y-35090000D01*
X115927231Y-35090000D01*
X115916757Y-35023873D01*
X115916757Y-35023870D01*
X115851095Y-34821782D01*
X115754620Y-34632442D01*
X115629727Y-34460540D01*
X115629723Y-34460535D01*
X115516053Y-34346865D01*
X115482568Y-34285542D01*
X115487552Y-34215850D01*
X115529424Y-34159917D01*
X115560400Y-34143002D01*
X115692331Y-34093796D01*
X115807546Y-34007546D01*
X115893796Y-33892331D01*
X115925918Y-33806208D01*
X115967789Y-33750274D01*
X116033253Y-33725856D01*
X116101526Y-33740707D01*
G37*
%TD.AperFunction*%
%TD*%
M02*
