M48
; DRILL file {KiCad 9.0.0} date 2026-01-25T00:17:55-0500
; FORMAT={-:-/ absolute / metric / decimal}
; #@! TF.CreationDate,2026-01-25T00:17:55-05:00
; #@! TF.GenerationSoftware,Kicad,Pcbnew,9.0.0
; #@! TF.FileFunction,Plated,1,4,PTH
FMAT,2
METRIC
; #@! TA.AperFunction,Plated,PTH,ComponentDrill
T1C0.800
; #@! TA.AperFunction,Plated,PTH,ViaDrill
T2C1.000
; #@! TA.AperFunction,Plated,PTH,ComponentDrill
T3C1.000
; #@! TA.AperFunction,Plated,PTH,ComponentDrill
T4C1.020
; #@! TA.AperFunction,Plated,PTH,ComponentDrill
T5C1.200
; #@! TA.AperFunction,Plated,PTH,ComponentDrill
T6C1.270
; #@! TA.AperFunction,Plated,PTH,ComponentDrill
T7C1.300
; #@! TA.AperFunction,Plated,PTH,ComponentDrill
T8C1.320
%
G90
G05
T1
X50.675Y-96.97
X53.175Y-96.97
X77.574Y-83.826
X77.574Y-87.326
X77.574Y-92.379
X77.574Y-94.879
X84.574Y-92.474
X84.574Y-94.974
X91.305Y-89.5
X93.805Y-89.5
X101.6Y-102.8
X101.6Y-106.3
X112.9Y-112.3
X115.4Y-112.3
X115.6Y-102.8
X115.6Y-105.3
X123.0Y-100.9
X123.0Y-103.4
X123.0Y-107.695
X123.0Y-110.195
X171.195Y-97.1
X173.695Y-97.1
T2
X74.8Y-103.7
X157.6Y-97.1
T3
X101.332Y-79.5
X106.332Y-79.5
X121.1Y-24.88
X121.1Y-27.42
X121.1Y-29.96
X121.1Y-32.5
X121.1Y-35.04
X121.1Y-37.58
X121.1Y-40.12
X121.1Y-42.66
X121.1Y-45.2
X121.1Y-47.74
T4
X91.328Y-27.455
X91.328Y-29.995
X91.328Y-32.535
X91.328Y-35.075
X91.328Y-37.615
X91.328Y-40.155
X91.328Y-42.695
X91.328Y-45.235
X91.328Y-47.775
X91.328Y-50.315
X91.328Y-52.855
X91.328Y-55.395
X91.328Y-57.935
X91.328Y-60.475
X91.328Y-63.015
X116.727Y-27.455
X116.727Y-29.995
X116.727Y-32.535
X116.727Y-35.075
X116.727Y-37.615
X116.727Y-40.155
X116.727Y-42.695
X116.727Y-45.235
X116.727Y-47.775
X116.727Y-50.315
X116.727Y-52.855
X116.727Y-55.395
X116.727Y-57.935
X116.727Y-60.475
X116.727Y-63.015
T5
X59.87Y-94.09
X59.87Y-96.63
X59.87Y-99.17
X164.882Y-94.555
X164.882Y-97.095
X164.882Y-99.635
T6
X79.374Y-99.774
X81.924Y-99.774
X84.474Y-99.774
X117.9Y-96.1
X120.45Y-96.1
X123.0Y-96.1
T7
X76.9Y-126.7
X81.9Y-126.7
X101.45Y-89.567
X106.45Y-89.567
X119.4Y-126.2
X124.4Y-126.2
T8
X91.063Y-112.18
X91.063Y-127.42
X93.603Y-112.18
X93.603Y-127.42
X96.143Y-112.18
X96.143Y-127.42
X98.683Y-112.18
X98.683Y-127.42
X101.223Y-112.18
X101.223Y-127.42
X103.763Y-112.18
X103.763Y-127.42
X106.303Y-112.18
X106.303Y-127.42
X108.843Y-112.18
X108.843Y-127.42
M30
